<?xml version="1.0" encoding="UTF-8"?>
<svg id="Camada_1" xmlns="http://www.w3.org/2000/svg" version="1.1" viewBox="0 0 293 187">
  <!-- Generator: Adobe Illustrator 29.5.1, SVG Export Plug-In . SVG Version: 2.1.0 Build 141)  -->
  <defs>
    <style>
      .st0 {
        fill: #9556cc;
      }

      .st1 {
        fill: #b9a4d8;
      }

      .st2 {
        fill: #a1abbf;
      }

      .st3 {
        fill: #d4d4ff;
      }

      .st4 {
        fill: #2a272d;
      }

      .st5 {
        fill: #7547a5;
      }

      .st6 {
        fill: #ffba94;
      }

      .st7 {
        fill: #b7bee2;
      }

      .st8 {
        fill: #858da0;
      }

      .st9 {
        fill: #e3d9ff;
      }

      .st10 {
        fill: #f48378;
      }

      .st11 {
        fill: #4b4f5b;
      }

      .st12 {
        fill: #683f93;
      }

      .st13 {
        fill: #f3f2f7;
      }

      .st14 {
        fill: #322e35;
      }

      .st15 {
        fill: #1f64c1;
      }

      .st16 {
        fill: #d4daff;
      }

      .st17 {
        fill: #3d3841;
      }

      .st18 {
        fill: #3b3b59;
      }

      .st19 {
        fill: #c4876c;
      }

      .st20 {
        fill: #e3eeff;
      }

      .st21 {
        fill: #2e2e44;
      }

      .st22 {
        fill: #bbb1ef;
      }

      .st23 {
        fill: #454954;
      }

      .st24 {
        fill: #6161bc;
      }

      .st25 {
        fill: #fff;
      }

      .st26 {
        fill: #c2b3e2;
      }

      .st27 {
        fill: #ff7915;
      }

      .st28 {
        fill: #464666;
      }

      .st29 {
        fill: #514b56;
      }

      .st30 {
        fill: #ff9517;
      }

      .st31 {
        fill: #695c89;
      }

      .st32 {
        fill: #595075;
      }

      .st33 {
        fill: #73798c;
      }

      .st34 {
        fill: #595d6e;
      }

      .st35 {
        fill: #f5f3ff;
      }

      .st36 {
        fill: #bf695e;
      }

      .st37 {
        fill: #2d2d2d;
      }

      .st38 {
        fill: #2a2a3d;
      }

      .st39 {
        fill: #c6c5ff;
      }

      .st40 {
        fill: #ff9a83;
      }

      .st41 {
        fill: #313149;
      }

      .st42 {
        fill: #824030;
      }
    </style>
  </defs>
  <g id="Layer_6">
    <path class="st16" d="M181.6,34c-4.1,0-8.3.8-12.1,2.3-6.5-18.1-26.4-27.5-44.5-21-9.3,3.3-16.7,10.4-20.5,19.6-18.1-2.7-35,9.8-37.7,27.9-.2,1.6-.4,3.3-.4,4.9v81.2h35.4v9.7h69.6v-1.7h43.2v-89.7c0-18.3-14.9-33.1-33.2-33.2h.2Z"/>
    <rect class="st16" x="173.1" y="14.9" width="2.6" height="4.9" rx="1.1" ry="1.1"/>
    <path class="st16" d="M68.7,48.1v-9.4c0-2.2-1.7-3.9-3.9-3.9s-3.9,1.7-3.9,3.9v9.4c0,2.2,1.7,3.9,3.9,3.9s3.9-1.7,3.9-3.9h0Z"/>
    <path class="st16" d="M74.2,35.7c1.1,0,2.1-.9,2.1-2.1h0v-4.6c0-1.1-.8-2.1-2-2.2-1.1,0-2.1.8-2.2,2v4.8c0,1.1.9,2.1,2.1,2.1Z"/>
    <path class="st16" d="M37.6,70.6v-9.4c0-2.2,1.7-3.9,3.9-3.9s3.9,1.7,3.9,3.9v9.4c0,2.2-1.7,3.9-3.9,3.9s-3.9-1.7-3.9-3.9h0Z"/>
    <path class="st16" d="M34.6,58.2c-1.1,0-2.1-.9-2.1-2.1h0v-4.6c0-1.1,1-2,2.2-2s1.9.9,2,2v4.6c0,1.1-.9,2.1-2.1,2.1Z"/>
    <path class="st16" d="M220.9,39.4c-1.2,0-2.2,1-2.2,2.2v32.9c0,1.2,1,2.2,2.2,2.2s2.2-1,2.2-2.2h0v-32.9c0-1.2-1-2.2-2.2-2.2Z"/>
    <rect class="st16" x="218.8" y="27.5" width="4.7" height="8.8" rx="2.1" ry="2.1"/>
    <path class="st16" d="M168.9,17.4h.3c1.2,0,2.2,1,2.2,2.2v4.4c0,1.2-1,2.2-2.2,2.2h-.3c-1.2,0-2.2-1-2.2-2.2h0v-4.4c0-1.2,1-2.2,2.2-2.2h0Z"/>
    <path class="st16" d="M227.7,36.8c-.8,0-1.4.6-1.4,1.4v2.6c0,.8.6,1.4,1.4,1.4s1.4-.6,1.4-1.4h0v-2.6c0-.8-.6-1.4-1.4-1.4Z"/>
    <circle class="st12" cx="166.4" cy="32.6" r="8.8"/>
    <path class="st25" d="M165.1,35.4l1-1h0l3-3c1.3.5,2.7-.1,3.2-1.4.1-.4.2-.8.1-1.2,0,0,0-.1-.2-.1h0l-1.2,1.2-1.5-.4-.3-1.5,1.2-1.2v-.2h0c-1.3-.2-2.6.8-2.8,2.1,0,.4,0,.8.1,1.2l-3.3,3.3h0l-.7.7c-1.3-.5-2.7,0-3.2,1.4-.1.4-.2.8-.1,1.2,0,0,0,0,.2,0h0l1.2-1.2,1.5.4.3,1.5-1.2,1.2v.2h0c1.3.2,2.6-.8,2.8-2.1,0-.4,0-.8-.1-1.2h0Z"/>
    <path class="st19" d="M180.8,40.9l-3.4-1.5s-2.9-.5-3.8-1.9l-.9-1.5-1.3-2.1c1.2,0,2.2.8,2.8,1.8l-.7-2.7-1.8-2,.8-2.3,4.4,2.9,2.2,4.6,3.1.9-1.4,3.8h0Z"/>
    <polygon class="st36" points="178.2 39.8 181.2 36.8 182.2 37.1 180.8 41.1 178.2 39.8"/>
    <path class="st39" d="M29,158.5c-.7-2.6-1.7-5.1-3-7.4l-1.7,2.9v-5.6c-1.3-1.7-2.8-3.1-4.5-4.4-1.9-1.3-4.2-2.1-6.5-2.3l.7,3.9-2.5-4c-2.9,0-5.9.6-8.6,1.7l25.9,17.8.2-2.7h0Z"/>
    <path class="st20" d="M36.1,162.9l2.9-3.2c0-6.4-2.2-14.4-11.1-22.4-1.3,3.3-2.2,6.7-2.6,10.2l3.2,4.1-3.4-1.4c-.3,7.3,1.6,16,10.7,21.7,1.6-3,2.6-6.3,3-9.7l-2.7.6h0Z"/>
    <path class="st16" d="M25.4,147.5l3.2,4.1-3.4-1.4c-.3,7.3,1.6,16,10.7,21.7l-7.9-34.7c-1.3,3.3-2.2,6.7-2.6,10.2h0Z"/>
    <path class="st20" d="M30.4,165.2l.2-3.9c-3.6-4.5-9.9-9-20.7-9.6,1,3.1,2.3,6,4,8.8l4.7,1.1-3.3,1c4,5.4,10.4,10.5,20.1,9.3-.6-3.1-1.7-6-3.5-8.6l-1.6,2h.1Z"/>
    <path class="st16" d="M13.9,160.5l4.7,1.1-3.3,1c4,5.4,10.4,10.5,20.1,9.3l-25.5-20.2c1,3.1,2.3,6,4,8.8h0Z"/>
    <path class="st39" d="M261.3,158.8c.7-2.8,1.8-5.5,3.2-8l1.8,3.2v-6.1c1.4-1.8,3-3.4,4.9-4.7,2.1-1.4,4.5-2.3,7.1-2.5l-.8,4.3,2.8-4.3c3.2,0,6.4.7,9.3,1.8l-28,19.3-.3-3Z"/>
    <path class="st20" d="M253.6,163.6l-3.1-3.4c0-6.9,2.4-15.6,12-24.2,1.4,3.6,2.3,7.3,2.8,11.1l-3.5,4.5,3.7-1.5c.3,7.9-1.8,17.3-11.6,23.5-1.8-3.2-2.9-6.8-3.2-10.5l3,.7v-.2Z"/>
    <path class="st16" d="M265.2,147l-3.5,4.5,3.7-1.5c.3,7.9-1.8,17.3-11.6,23.5l8.6-37.5c1.4,3.6,2.4,7.3,2.8,11.1h0Z"/>
    <path class="st20" d="M259.8,166.1l-.2-4.2c3.9-4.9,10.7-9.7,22.4-10.5-1,3.3-2.5,6.5-4.4,9.5l-5,1.2,3.5,1c-4.3,5.8-11.2,11.3-21.8,10.1.6-3.3,1.9-6.5,3.8-9.3l1.7,2.2Z"/>
    <path class="st16" d="M277.6,160.9l-5,1.2,3.5,1c-4.3,5.8-11.2,11.3-21.8,10.1l27.7-21.8c-1,3.3-2.5,6.5-4.4,9.4h0Z"/>
    <polygon class="st22" points="209.6 39.8 208.2 38.6 198.2 41.4 181.4 36.4 179.2 40.9 196.4 47.1 208.9 46.5 209.6 39.8"/>
    <polygon class="st3" points="220.2 35.5 228.1 37.6 232.9 45.6 206.8 45.6 208.2 38.6 213.4 36.7 220.2 35.5"/>
    <polygon class="st22" points="224.8 44.6 223.4 42.1 226.4 44.6 224.8 44.6"/>
    <path class="st39" d="M154.9,50.4v-3.5h-3.7c-.2-1.2-.7-2.3-1.3-3.3l2.7-2.7-2.5-2.5-2.6,2.6c-1-.7-2.1-1.2-3.3-1.4v-3.8h-3.5v3.7c-1.2.2-2.3.7-3.3,1.3l-2.7-2.7-2.5,2.5,2.6,2.6c-.7,1-1.2,2.1-1.4,3.3h-3.8v3.5h3.7c.2,1.2.7,2.3,1.3,3.3l-2.7,2.7,2.5,2.5,2.6-2.6c1,.7,2.1,1.2,3.3,1.4v3.7h3.5v-3.7c1.2-.2,2.3-.7,3.3-1.3l2.7,2.7,2.5-2.5-2.6-2.6c.7-1,1.2-2.1,1.4-3.3h3.8ZM142.4,54.7c-3.4,0-6.1-2.8-6.1-6.1s2.8-6.1,6.1-6.1,6.1,2.8,6.1,6.1h0c0,3.4-2.7,6.2-6.1,6.2h0Z"/>
    <path class="st39" d="M75.2,38.2v95.7H28.9V38.2h46.3ZM74.6,133.3V38.8H29.5v94.5h45.1Z"/>
    <rect class="st0" x="27.9" y="132.3" width="2.6" height="2.6"/>
    <rect class="st0" x="73.7" y="132.3" width="2.6" height="2.6"/>
    <rect class="st0" x="27.9" y="37.2" width="2.6" height="2.6"/>
    <rect class="st0" x="73.6" y="37.2" width="2.6" height="2.6"/>
    <path class="st39" d="M262.8,87.1v73.8h-46.3v-73.8s46.3,0,46.3,0ZM262.2,160.3v-72.6h-45.1v72.6h45.1Z"/>
    <rect class="st0" x="215.4" y="159.3" width="2.6" height="2.6"/>
    <rect class="st0" x="261.3" y="159.3" width="2.6" height="2.6"/>
    <rect class="st0" x="215.4" y="86.1" width="2.6" height="2.6"/>
    <rect class="st0" x="261.2" y="86.1" width="2.6" height="2.6"/>
    <path class="st17" d="M252.9,169.7H42V47.1c0-.8.6-1.4,1.4-1.4h208.2c.8,0,1.4.6,1.4,1.4h0v122.7h0Z"/>
    <rect class="st7" x="47" y="54.1" width="201" height="111.5"/>
    <rect class="st25" x="47" y="66" width="193.8" height="99.7"/>
    <rect class="st34" x="47" y="54.1" width="201" height="6.5"/>
    <path class="st2" d="M88,60.7h-41v-4.7c0-1,.8-1.8,1.8-1.8h37.3c1,0,1.8.8,1.8,1.8v4.7h0Z"/>
    <path class="st8" d="M129.1,60.7h-41v-4.7c0-1,.8-1.8,1.8-1.8h37.3c1,0,1.8.8,1.8,1.8v4.7h0Z"/>
    <path class="st33" d="M169.9,60.7h-41v-4.7c0-1,.8-1.8,1.8-1.8h37.3c1,0,1.8.8,1.8,1.8v4.7h0Z"/>
    <circle class="st15" cx="145.4" cy="50" r="2"/>
    <circle class="st29" cx="145.4" cy="50" r="2"/>
    <circle class="st14" cx="145.4" cy="50" r="1.1"/>
    <polygon class="st13" points="84.4 58.4 83.4 57.4 84.4 56.3 83.5 55.4 82.4 56.5 81.4 55.4 80.5 56.3 81.6 57.4 80.5 58.4 81.4 59.3 82.4 58.3 83.5 59.3 84.4 58.4"/>
    <polygon class="st13" points="125.4 58.4 124.4 57.4 125.4 56.3 124.5 55.4 123.5 56.5 122.4 55.4 121.5 56.3 122.6 57.4 121.5 58.4 122.4 59.3 123.5 58.3 124.5 59.3 125.4 58.4"/>
    <polygon class="st13" points="166.4 58.4 165.4 57.4 166.4 56.3 165.4 55.4 164.4 56.5 163.4 55.4 162.4 56.3 163.6 57.4 162.4 58.4 163.4 59.3 164.4 58.3 165.4 59.3 166.4 58.4"/>
    <rect class="st11" x="242.4" y="66" width="3.9" height="99.7"/>
    <rect class="st7" x="243.4" y="67" width="2.1" height="13.1"/>
    <path class="st2" d="M158.1,169.2H22.6v4.3c0,1.6,1.3,2.8,2.8,2.8h244.2c1.6,0,2.8-1.3,2.8-2.8v-4.3h-114.4.1Z"/>
    <rect class="st23" x="33.6" y="171.1" width="32" height="2.3"/>
    <circle class="st23" cx="74.1" cy="172.3" r="1.6"/>
    <path class="st33" d="M170.7,173.9h-61.4c-.8,0-1.4-.6-1.4-1.4h0v-3.2h64.2v3.2c0,.8-.6,1.4-1.4,1.4h0Z"/>
    <rect class="st34" x="49.6" y="69.4" width="131.8" height="93.1"/>
    <rect class="st25" x="125.2" y="83.3" width="54.3" height="77.3"/>
    <rect class="st0" x="125.2" y="83.3" width="54.3" height="10.7"/>
    <rect class="st25" x="51.4" y="83.3" width="71.3" height="77.3"/>
    <rect class="st0" x="51.4" y="83.3" width="71.3" height="10.7"/>
    <rect class="st25" x="88.7" y="74" width="4.8" height="4.8"/>
    <polygon class="st25" points="79.1 91 79.1 90.8 74.6 90.8 74.6 86.5 78.8 86.5 78.8 91 79.1 91 79.1 90.8 79.1 91 79.4 91 79.4 86 74.1 86 74.1 91.3 79.4 91.3 79.4 91 79.1 91"/>
    <polygon class="st25" points="88.5 91 88.5 90.8 84 90.8 84 86.5 88.2 86.5 88.2 91 88.5 91 88.5 90.8 88.5 91 88.8 91 88.8 86 83.5 86 83.5 91.3 88.8 91.3 88.8 91 88.5 91"/>
    <polygon class="st25" points="98 91 98 90.8 93.5 90.8 93.5 86.5 97.7 86.5 97.7 91 98 91 98 90.8 98 91 98.2 91 98.2 86 92.9 86 92.9 91.3 98.2 91.3 98.2 91 98 91"/>
    <polygon class="st25" points="145.4 91 145.4 90.8 140.9 90.8 140.9 86.5 145.1 86.5 145.1 91 145.4 91 145.4 90.8 145.4 91 145.7 91 145.7 86 140.4 86 140.4 91.3 145.7 91.3 145.7 91 145.4 91"/>
    <polygon class="st25" points="154.8 91 154.8 90.8 150.2 90.8 150.2 86.5 154.6 86.5 154.6 91 154.8 91 154.8 90.8 154.8 91 155.1 91 155.1 86 149.8 86 149.8 91.3 155.1 91.3 155.1 91 154.8 91"/>
    <polygon class="st25" points="164.2 91 164.2 90.8 159.8 90.8 159.8 86.5 163.9 86.5 163.9 91 164.2 91 164.2 90.8 164.2 91 164.6 91 164.6 86 159.2 86 159.2 91.3 164.6 91.3 164.6 91 164.2 91"/>
    <rect class="st25" x="101.8" y="74" width="4.8" height="4.8"/>
    <rect class="st25" x="114.9" y="74" width="4.8" height="4.8"/>
    <rect class="st25" x="127.9" y="74" width="4.8" height="4.8"/>
    <rect class="st34" x="184.9" y="69.4" width="51.7" height="93.1"/>
    <rect class="st25" x="186.8" y="78.9" width="48.1" height="39.4"/>
    <rect class="st0" x="186.8" y="78.9" width="48.1" height="6.5"/>
    <rect class="st25" x="186.8" y="121.3" width="48.1" height="39.4"/>
    <rect class="st0" x="186.8" y="121.3" width="48.1" height="6.5"/>
    <rect class="st23" x="170.9" y="72.5" width="7.3" height="7.3"/>
    <polygon class="st25" points="177.1 74.6 176.1 73.6 174.4 75.2 172.9 73.6 171.9 74.6 173.6 76.1 171.9 77.7 172.9 78.7 174.4 77.1 176.1 78.7 177.1 77.7 175.4 76.1 177.1 74.6"/>
    <rect class="st23" x="227.7" y="70.4" width="7.3" height="7.3"/>
    <polygon class="st25" points="233.9 72.5 232.9 71.5 231.2 73.1 229.8 71.5 228.8 72.5 230.4 74 228.8 75.6 229.8 76.6 231.2 75 232.9 76.6 233.9 75.6 232.2 74 233.9 72.5"/>
    <path class="st34" d="M17.4,176.3h262.4c.5,0,.9.4.9.9h0v.5c0,.5-.4.9-.9.9H17.4c-.5,0-.9-.4-.9-.9h0v-.5c0-.5.4-.9.9-.9Z"/>
    <rect class="st20" x="54.6" y="126.9" width="28.3" height="4.1"/>
    <rect class="st39" x="84.8" y="126.8" width="34.8" height="4.2"/>
    <rect class="st20" x="54.6" y="133.1" width="21.2" height="4.1"/>
    <rect class="st39" x="77.7" y="133.1" width="13.2" height="4.1"/>
    <rect class="st20" x="54.6" y="139.3" width="56.1" height="4.1"/>
    <rect class="st20" x="54.6" y="145.6" width="36.6" height="4.1"/>
    <rect class="st39" x="93.2" y="145.7" width="18.3" height="4"/>
    <path class="st24" d="M104.8,98.7h-17.4c-.2,0-.4-.2-.4-.4s.2-.4.4-.4h17.4c.2,0,.4.2.4.4s-.2.4-.4.4h0Z"/>
    <path class="st24" d="M84.8,98.7h-19.8c-.2,0-.4-.2-.4-.4s.2-.4.4-.4h19.8c.2,0,.4.2.4.4s-.2.4-.4.4Z"/>
    <path class="st24" d="M62.5,98.7h-8.2c-.2,0-.4-.2-.4-.4s.2-.4.4-.4h8.2c.2,0,.4.2.4.4s-.2.4-.4.4h0Z"/>
    <path class="st24" d="M90.9,102.3h-19.1c-.2,0-.4-.2-.4-.4s.2-.4.4-.4h19.1c.2,0,.4.2.4.4s-.2.4-.4.4Z"/>
    <path class="st24" d="M69.2,102.3h-14.9c-.2,0-.4-.2-.4-.4s.2-.4.4-.4h14.9c.2,0,.4.2.4.4s-.2.4-.4.4h0Z"/>
    <path class="st24" d="M104.8,105.9h-7.5c-.2,0-.4-.2-.4-.4s.2-.4.4-.4h7.5c.2,0,.4.2.4.4s-.2.4-.4.4h0Z"/>
    <path class="st24" d="M94.2,105.9h-16.7c-.2,0-.4-.2-.4-.4s.2-.4.4-.4h16.7c.2,0,.4.2.4.4s-.2.4-.4.4h0Z"/>
    <path class="st24" d="M74.6,105.9h-20.4c-.2,0-.4-.2-.4-.4s.2-.4.4-.4h20.4c.2,0,.4.2.4.4s-.2.4-.4.4Z"/>
    <path class="st24" d="M80.8,109.5h-26.5c-.2,0-.4-.2-.4-.4s.2-.4.4-.4h26.5c.2,0,.4.2.4.4s-.2.4-.4.4h0Z"/>
    <path class="st24" d="M104.8,113h-7c-.2,0-.4-.2-.4-.4s.2-.4.4-.4h7c.2,0,.4.2.4.4s-.2.4-.4.4h0Z"/>
    <path class="st24" d="M95.5,113h-10.7c-.2,0-.4-.2-.4-.4s.2-.4.4-.4h10.7c.2,0,.4.2.4.4s-.2.4-.4.4h0Z"/>
    <path class="st24" d="M82.2,113.4h-19.5c-.2,0-.4-.2-.4-.4s.2-.4.4-.4h19.5c.2,0,.4.2.4.4s-.2.4-.4.4Z"/>
    <path class="st24" d="M60.2,113.4h-5.6c-.2,0-.4-.2-.4-.4s.2-.4.4-.4h5.6c.2,0,.4.2.4.4s-.2.4-.4.4h0Z"/>
    <path class="st24" d="M74.6,116.6h-20.4c-.2,0-.4-.2-.4-.4s.2-.4.4-.4h20.4c.2,0,.4.2.4.4s-.2.4-.4.4Z"/>
    <path class="st24" d="M96.8,120.2h-6.6c-.2,0-.4-.2-.4-.4s.2-.4.4-.4h6.6c.2,0,.4.2.4.4s-.2.4-.4.4Z"/>
    <path class="st24" d="M87.4,120.2h-13.9c-.2,0-.4-.2-.4-.4s.2-.4.4-.4h13.9c.2,0,.4.2.4.4s-.2.4-.4.4Z"/>
    <path class="st24" d="M70.6,120.2h-16.4c-.2,0-.4-.2-.4-.4s.2-.4.4-.4h16.4c.2,0,.4.2.4.4s-.2.4-.4.4Z"/>
    <path class="st24" d="M104.8,123.8h-20c-.2,0-.4-.2-.4-.4s.2-.4.4-.4h20c.2,0,.4.2.4.4s-.2.4-.4.4h0Z"/>
    <path class="st24" d="M81.2,123.8h-13.7c-.2,0-.4-.2-.4-.4s.2-.4.4-.4h13.7c.2,0,.4.2.4.4s-.2.4-.4.4Z"/>
    <path class="st24" d="M64.4,123.8h-10.2c-.2,0-.4-.2-.4-.4s.2-.4.4-.4h10.2c.2,0,.4.2.4.4s-.2.4-.4.4Z"/>
    <path class="st39" d="M137.7,97.3c-5.2,0-9.3,4.2-9.3,9.3s4.2,9.3,9.3,9.3,9.3-4.2,9.3-9.3h0c0-5.2-4.2-9.3-9.3-9.3ZM137.7,114.3c-4.2,0-7.7-3.4-7.7-7.7s3.4-7.7,7.7-7.7,7.7,3.4,7.7,7.7-3.4,7.7-7.7,7.7h0Z"/>
    <path class="st20" d="M129.9,106.6c0-4.2,3.4-7.7,7.7-7.7h0v-1.7c-5.1,0-9.3,4.2-9.3,9.3h1.6Z"/>
    <path class="st20" d="M145.4,106.6c0,4.2-3.4,7.7-7.7,7.7h0v1.7c5.2,0,9.3-4.2,9.3-9.3h-1.7,0Z"/>
    <rect class="st20" x="128.1" y="118.7" width="37" height="3.5"/>
    <rect class="st39" x="166.4" y="118.7" width="10.7" height="3.6"/>
    <rect class="st20" x="128.1" y="124" width="16" height="3.5"/>
    <rect class="st39" x="145.4" y="124" width="18.2" height="3.5"/>
    <rect class="st20" x="128.1" y="129.3" width="40" height="3.5"/>
    <rect class="st20" x="128.1" y="134.6" width="22.1" height="3.5"/>
    <rect class="st39" x="151.8" y="134.8" width="25.3" height="3.4"/>
    <rect class="st0" x="127.5" y="141.1" width="4.6" height="4.8"/>
    <path class="st39" d="M207.8,107.9l2.1-2.1h0l6.3-6.3c2.6,1,5.6-.2,6.6-2.8.3-.8.4-1.7.3-2.5,0-.2-.2-.3-.3-.2h-.2l-2.5,2.5-3-.7-.7-3,2.5-2.5c.1,0,.1-.3,0-.4h-.2c-2.8-.4-5.3,1.6-5.7,4.3-.1.9,0,1.7.3,2.6l-6.9,6.9h0l-1.5,1.5c-2.6-1-5.6.2-6.6,2.8-.3.8-.4,1.7-.3,2.5,0,.2.2.3.3.2h.2l2.5-2.5,3,.7.7,3-2.5,2.5c-.1,0-.1.3,0,.4h.2c2.8.4,5.3-1.6,5.7-4.3.1-.9,0-1.7-.3-2.6h0Z"/>
    <circle class="st39" cx="163.7" cy="112.1" r="1.5"/>
    <path class="st39" d="M163.7,105.4c-2.2,0-4.3,1.2-5.5,3l1.4,1.4c1.2-2.3,4.1-3.2,6.4-2,.8.4,1.5,1.1,2,2l1.4-1.4c-1.2-1.9-3.3-3-5.6-3h0Z"/>
    <path class="st39" d="M163.7,101c-3.4,0-6.6,1.6-8.7,4.3l1.3,1.3c3-4.1,8.8-5,12.8-1.9.7.5,1.4,1.2,1.9,1.9l1.3-1.3c-2.1-2.7-5.3-4.3-8.7-4.3h0Z"/>
    <path class="st39" d="M163.7,96.7c-4.6,0-8.9,2-11.8,5.5l1.3,1.3c4.8-5.8,13.3-6.6,19.1-1.9.7.6,1.3,1.2,1.9,1.9l1.3-1.3c-2.9-3.5-7.3-5.5-11.8-5.5Z"/>
    <circle class="st39" cx="137.1" cy="153.6" r="4.1"/>
    <path class="st25" d="M139.4,151.5c-.2-.2-.6-.1-.8.1l-2.1,2.9-1.1-1.4c-.2-.2-.6-.2-.8,0s-.2.5,0,.7l1.5,2s.2.2.3.2h.3c.1,0,.2,0,.3-.2l2.5-3.4c.2-.2.1-.6,0-.8h0Z"/>
    <circle class="st39" cx="152.2" cy="153.6" r="4.1"/>
    <path class="st25" d="M154.7,151.5c-.2-.2-.6-.1-.8.1h0l-2.1,2.9-1.1-1.4c-.2-.2-.6-.2-.8,0s-.2.5,0,.7l1.5,2s.2.2.3.2h.3c.1,0,.2,0,.3-.2l2.5-3.4c.2-.2.1-.6,0-.8h0Z"/>
    <circle class="st39" cx="167.6" cy="153.6" r="4.1"/>
    <path class="st25" d="M169.9,151.5c-.2-.2-.6-.1-.8.1h0l-2.1,2.9-1.1-1.4c-.2-.2-.6-.2-.8,0s-.2.5,0,.7l1.5,2s.2.2.3.2h.3c.1,0,.2,0,.3-.2l2.5-3.4c.2-.2.1-.6,0-.8h0Z"/>
    <path class="st39" d="M212.1,140.3v-2.5h-2.7c-.2-.9-.5-1.7-1-2.4l1.9-1.9-1.8-1.8-1.9,1.9c-.7-.5-1.5-.8-2.4-1v-2.7h-2.5v2.7c-.9.2-1.7.5-2.4,1l-1.9-1.9-1.8,1.8,1.9,1.9c-.5.7-.8,1.5-1,2.4h-2.7v2.5h2.7c.2.9.5,1.7,1,2.4l-1.9,1.9,1.8,1.8,1.9-1.9c.7.5,1.5.8,2.4,1v2.7h2.5v-2.7c.9-.2,1.7-.5,2.4-1l1.9,1.9,1.8-1.8-1.9-1.9c.5-.7.8-1.5,1-2.4h2.7ZM202.9,143.4c-2.5,0-4.4-2-4.4-4.4s2-4.4,4.4-4.4,4.4,2,4.4,4.4-2,4.4-4.4,4.4h0Z"/>
    <path class="st39" d="M134.9,36.9v-3.5h-3.7c-.2-1.2-.7-2.3-1.3-3.3l2.7-2.7-2.5-2.5-2.6,2.6c-1-.7-2.1-1.2-3.3-1.4v-3.8h-3.5v3.7c-1.2.2-2.3.6-3.3,1.3l-2.7-2.7-2.5,2.5,2.6,2.6c-.7,1-1.2,2.1-1.4,3.3h-3.8v3.5h3.7c.2,1.2.7,2.3,1.3,3.3l-2.7,2.7,2.5,2.5,2.6-2.6c1,.7,2.1,1.2,3.3,1.4v3.8h3.5v-3.7c1.2-.2,2.3-.7,3.3-1.3l2.7,2.7,2.5-2.5-2.6-2.6c.7-1,1.2-2.1,1.4-3.3h3.8ZM122.2,41.2c-3.4,0-6.1-2.8-6.1-6.1s2.8-6.1,6.1-6.1,6.1,2.8,6.1,6.1h0c0,3.4-2.7,6.2-6.1,6.2h0Z"/>
    <circle class="st39" cx="202.9" cy="139" r="2.8"/>
    <path class="st39" d="M227.2,149.9v-2.5h-2.7c-.2-.9-.5-1.7-1-2.4l1.9-1.9-1.8-1.8-1.9,1.9c-.7-.5-1.5-.8-2.4-1v-2.7h-2.5v2.7c-.9.2-1.7.5-2.4,1l-1.9-1.9-1.8,1.8,1.9,1.9c-.5.7-.8,1.5-1,2.4h-2.7v2.5h2.7c.2.9.5,1.7,1,2.4l-1.9,1.9,1.8,1.8,1.9-1.9c.7.5,1.5.8,2.4,1v2.7h2.5v-2.7c.9-.2,1.7-.5,2.4-1l1.9,1.9,1.8-1.8-1.9-1.9c.5-.7.8-1.5,1-2.4h2.7ZM218.1,153c-2.5,0-4.4-2-4.4-4.4s2-4.4,4.4-4.4,4.4,2,4.4,4.4-2,4.4-4.4,4.4h0Z"/>
    <circle class="st39" cx="218.1" cy="148.6" r="2.8"/>
    <rect class="st12" x="174.4" y="44.6" width="32.2" height="23.9" rx="2.5" ry="2.5"/>
    <polygon class="st25" points="187.2 53.6 187.2 55.1 183.2 56.7 187.2 58.3 187.2 59.8 181.4 57.3 181.4 56.1 187.2 53.6"/>
    <polygon class="st25" points="191.8 50.3 193.2 50.3 189.4 62.9 187.9 62.9 191.8 50.3"/>
    <polygon class="st25" points="199.8 57.3 193.9 59.8 193.9 58.3 197.9 56.7 193.9 55.1 193.9 53.6 199.8 56.1 199.8 57.3"/>
    <rect class="st25" x="200.6" y="46.5" width="4.6" height="4.6"/>
    <polygon class="st12" points="204.6 47.8 203.9 47.1 202.9 48.1 201.9 47.1 201.2 47.8 202.2 48.8 201.2 49.8 201.9 50.4 202.9 49.4 203.9 50.4 204.6 49.8 203.6 48.8 204.6 47.8"/>
    <circle class="st12" cx="230.9" cy="123.5" r="8.8"/>
    <path class="st25" d="M227.6,123.4c-.3-.3-.4-.7-.4-1.1v-2.4c0-.4.1-.8.4-1.1.6-.5,1.6-.5,2.2,0,.3.3.4.7.4,1.1v2.4c0,.4-.1.8-.4,1.1-.6.5-1.6.5-2.2,0ZM229.2,122.4v-2.6c0-.4-.2-.6-.5-.6s-.5.2-.5.6v2.6c0,.4.2.6.5.6s.5-.2.5-.6h0ZM232.4,118.4h1l-4,9.7h-1s4-9.7,4-9.7ZM231.9,127.9c-.3-.3-.4-.7-.4-1.1v-2.4c0-.4.1-.8.4-1.1.6-.5,1.6-.5,2.2,0,.3.3.4.7.4,1.1v2.4c0,.4-.1.8-.4,1.1-.6.5-1.6.5-2.2,0ZM233.6,126.8v-2.6c0-.4-.2-.6-.5-.6s-.5.2-.5.6v2.6c0,.4.2.6.5.6s.5-.2.5-.6h0Z"/>
    <rect class="st12" x="96.5" y="34.9" width="33.4" height="16.4" rx="2.2" ry="2.2"/>
    <rect class="st25" x="123.7" y="36.6" width="4.6" height="4.6"/>
    <polygon class="st12" points="127.6 37.9 127 37.2 126 38.2 125 37.2 124.4 37.9 125.4 38.9 124.4 39.9 125 40.5 126 39.5 127 40.5 127.6 39.9 126.6 38.9 127.6 37.9"/>
    <polygon class="st25" points="105 42 105 42.8 102.9 43.7 105 44.5 105 45.3 102 44 102 43.4 105 42"/>
    <polygon class="st25" points="105.8 46.6 105.8 40.6 106.7 40.6 106.7 43.1 107.8 43.1 107.8 40.6 108.7 40.6 108.7 46.6 107.8 46.6 107.8 44 106.7 44 106.7 46.6 105.8 46.6"/>
    <polygon class="st25" points="109.4 40.6 112.2 40.6 112.2 41.5 111.2 41.5 111.2 46.6 110.4 46.6 110.4 41.5 109.4 41.5 109.4 40.6"/>
    <polygon class="st25" points="117.2 40.6 117.2 46.6 116.2 46.6 116.2 42.5 115.4 46.6 114.8 46.6 113.9 42.5 113.9 46.6 113 46.6 113 40.6 114.2 40.6 115.1 44.5 115.9 40.6 117.2 40.6"/>
    <polygon class="st25" points="118.2 40.6 119.1 40.6 119.1 45.8 120.7 45.8 120.7 46.6 118.2 46.6 118.2 40.6"/>
    <polygon class="st25" points="124.2 44 121.2 45.3 121.2 44.5 123.4 43.7 121.2 42.8 121.2 42 124.2 43.4 124.2 44"/>
    <rect class="st12" x="67.5" y="55.9" width="33.4" height="16.4" rx="2.2" ry="2.2"/>
    <rect class="st25" x="94.8" y="57.5" width="4.6" height="4.6"/>
    <polygon class="st12" points="98.7 58.8 98.1 58.2 97.1 59.2 96.1 58.2 95.4 58.8 96.4 59.8 95.4 60.8 96.1 61.4 97.1 60.4 98.1 61.4 98.7 60.8 97.7 59.8 98.7 58.8"/>
    <polygon class="st25" points="78.6 62.4 78.6 63.2 76.5 64 78.6 64.9 78.6 65.7 75.6 64.4 75.6 63.7 78.6 62.4"/>
    <path class="st25" d="M79.9,66.9c-.2,0-.4-.3-.5-.5s-.2-.5-.2-.8v-.2h.9c0,.3,0,.5.2.6,0,0,.3.2.4.2.2,0,.3,0,.4-.2,0,0,.2-.3.2-.4,0-.2,0-.4-.2-.6-.2-.3-.4-.5-.7-.7-.4-.3-.7-.7-.9-1.1-.2-.3-.2-.6-.2-.9s0-.8.4-1.1c.6-.5,1.5-.5,2,0,.3.3.4.7.4,1.1v.2h-.9c0-.2,0-.4,0-.5,0,0-.2-.2-.4-.2s-.3,0-.4,0c0,0,0,.3,0,.4,0,.2,0,.4.2.5.2.3.4.5.7.8.3.3.7.7.9,1.1.2.3.2.6.2.9s0,.5-.2.8c0,.2-.3.4-.5.5-.5.3-1.1.3-1.5,0h-.1Z"/>
    <polygon class="st22" points="142.4 75.2 128.4 92.2 141.4 105.9 144.2 101.7 137.7 92.2 146.4 86 142.4 75.2"/>
    <path class="st25" d="M85.9,66.5v.9c-.2,0-.4,0-.5,0,0,0-.3-.2-.3-.3-.2,0-.5.2-.7.2-.4,0-.8,0-1.1-.4-.3-.3-.4-.7-.4-1.1v-3.3c0-.4,0-.8.4-1.1.6-.5,1.5-.5,2.1,0,.3.3.4.7.4,1.1v3.3c0,.3,0,.5-.2.8h.3ZM84.8,62.3c0-.2,0-.3,0-.4-.2-.2-.6-.2-.8,0,0,0-.2.3,0,.4v3.3c0,.2,0,.3,0,.4.2.2.6.2.8,0,0,0,.2-.3,0-.4v-3.3Z"/>
    <polygon class="st25" points="86.7 61 87.6 61 87.6 66.1 89.2 66.1 89.2 67 86.7 67 86.7 61"/>
    <polygon class="st25" points="92.9 64.4 89.8 65.7 89.8 64.9 91.9 64 89.8 63.2 89.8 62.4 92.9 63.7 92.9 64.4"/>
    <path class="st6" d="M70.6,72.9l5.6-3.9,8.6-1.3c-.3.7-.8,1.2-1.4,1.6-1.1.3-2.2.6-3.4.7l1.1,1.7-1,2.5c-.7.7-1.9.6-2.6,0h0l-2.3-.3-2.6,2.8-1.9-3.7h0Z"/>
    <polygon class="st40" points="74.5 74.2 73.2 71 72.2 71.7 74.5 74.2"/>
    <path class="st40" d="M77.5,74.1l1.9.2s.3-1.2-1.7-1.6l.2-2,2.2-.7,1.1,1.7-1,2.5s-1.5,1.1-2.6,0h0Z"/>
    <path class="st10" d="M77.8,70.7l1.5,1.5-.6.9s-.8-.3-1.2-.4l.2-2h0Z"/>
    <path class="st6" d="M181.4,73.2l2-3.1s.9-2.8,2.5-3.4l1.6-.7,2.3-1c-.3,1.1-1.1,2.1-2.2,2.5l2.8-.3,2.3-1.4,2.1,1.1-3.6,3.9-4.8,1.4-1.4,2.9-3.5-2h-.1Z"/>
    <polygon class="st40" points="182.9 70.9 185.4 74.3 184.9 75.2 181.2 73.1 182.9 70.9"/>
    <polygon class="st22" points="46.7 91 72.5 71.1 74.9 74.6 56.3 96 46.7 91"/>
    <path class="st3" d="M146.4,74s2.9-3.3,12.5-.9l3.8,1.2,10.7,10.1,8.1-11.9,4.3,1.6-9,20-14.1-7.1-1.3,3.8,2.4,16.8h-23.1s-.6-28.6,5.8-33.7h0Z"/>
    <path class="st12" d="M35.4,169.2h64.1v-49.1c0-3.2-2.6-5.8-5.8-5.8h-52.4c-3.2,0-5.8,2.6-5.8,5.8h0v49.1h0Z"/>
    <path class="st0" d="M41,114.3h45.8c-3.1,0-5.5,2.5-5.5,5.5h0v49.4h-45.8v-49.4c0-3.1,2.5-5.5,5.5-5.6h0Z"/>
    <path class="st41" d="M48,128.6l18.3,2.8-.3,32.3h-6.7l-2-23.6h-5.3s-4.9-2.5-5.7-11.5h1.8,0Z"/>
    <path class="st38" d="M60,163.7v5.5h13.3c0-1.8-1.3-3.3-3.1-3.8-3.1-1-4.6-.8-4.6-.8l-.6-1h-5Z"/>
    <path class="st18" d="M58.3,128.6l18.3,2.8-.3,32.3h-6.7l-2-23.6h-26.7s-4.9-2.5-5.7-11.5h23.2,0Z"/>
    <path class="st41" d="M58.3,128.6l-22.2,4.8c-.5-1.6-.8-3.2-.9-4.8h23.1Z"/>
    <polygon class="st41" points="67.5 140.1 66.9 136.2 66.1 140.1 67.5 140.1"/>
    <path class="st41" d="M70.2,163.7v5.5h13.3c0-1.8-1.3-3.3-3.1-3.8-3.1-1-4.6-.8-4.6-.8l-.6-1h-5Z"/>
    <path class="st38" d="M148.2,163.7v5.5h13.3c-.1-1.8-1.3-3.3-3.1-3.8-3.1-1-4.6-.8-4.6-.8l-.6-1h-5,0Z"/>
    <path class="st41" d="M153.8,163.7v5.5h13.3c-.1-1.8-1.3-3.3-3.1-3.8-3.1-1-4.6-.8-4.6-.8l-.6-1h-5,0Z"/>
    <path class="st9" d="M87.9,112.9h-25.1c-.4,0-.7-.3-.7-.7h0c0,0,2-18.1,2-18.1,0-.4.4-.8.8-.8h25.1c.4,0,.7.3.7.7h0c0,0-2,18.1-2,18.1,0,.4-.4.8-.8.8Z"/>
    <path class="st35" d="M86,111.1h-22.1c-.3,0-.6-.2-.6-.5h0c0,0,1.7-15.2,1.7-15.2,0-.4.4-.6.7-.7h22.1c.3,0,.6.2.6.5h0c0,0-1.7,15.2-1.7,15.2,0,.4-.4.6-.7.7Z"/>
    <path class="st26" d="M90.1,93.4h-1.1c.4,0,.7.3.7.7h0c0,0-2,18.1-2,18.1,0,.4-.4.8-.8.8h1c.4,0,.8-.3.9-.8l2-18c0-.4-.2-.7-.6-.8h0Z"/>
    <path class="st1" d="M62,112.2c0,.4.2.7.6.7h25.1c.4,0,.8-.3.8-.7h-26.7.2Z"/>
    <path class="st9" d="M88.5,112.5h-30.4c0,1,.8,1.8,1.8,1.8h26.8c1,0,1.8-.8,1.8-1.8Z"/>
    <path class="st26" d="M67.4,112.5v.3c0,.2-.2.3-.3.3h-7.6c-.2,0-.3-.2-.3-.3v-.3h-9.7v.9c0,.5.4.9.9.9s0,0,0,0h28.6c.5,0,.9-.4.9-.9v-.9h-12.5Z"/>
    <path class="st12" d="M29.3,169.2h32.1v-23.3c0-3.2-2.6-5.8-5.8-5.8h-20.4c-3.2,0-5.8,2.6-5.8,5.8h0v23.3h0Z"/>
    <path class="st0" d="M34.8,140.1h13.8c-3.1,0-5.5,2.5-5.5,5.5v23.6h-13.8v-23.6c0-3.1,2.5-5.5,5.5-5.5h0Z"/>
    <path class="st31" d="M59.9,81.7s2.6-3.4,1.3-7.3-5.7-3.7-5.7-3.7c0,0-8.2-2.7-11.5,2.5-3.1,4.9-1.4,12.7,5.7,15.4,7.2,2.6,10.1-6.9,10.1-6.9h.1Z"/>
    <path class="st32" d="M54.8,83.9c5.3-2.2,5.8-7.6,5.5-11,.4.5.6,1,.8,1.5,1.4,3.9-1.3,7.3-1.3,7.3,0,0-3,9.5-10.1,6.9-3.5-1.2-6.2-4.2-7-7.8,2.4,2.3,6.8,5.2,12.1,3.1Z"/>
    <path class="st6" d="M54.1,82.4c-.6-2.5-3.7-1.8-3.3.4s1.9,2.6,1.9,2.6c.7,3-2.9,3.3-2.9,3.3l-1.8,2,6.6,3.4,1.4-4.2s3.3-.3,4.8-2,.9-4.5.9-4.5c.5-.4.9-1,.9-1.6,0-1.2-2.5-2.6-2.5-2.6-.4-1.5-1.2-2.9-2.4-4,0,0,1.1,5.4-3.4,7.2h-.2Z"/>
    <polygon class="st40" points="55.8 89.9 53 88.6 55.1 92.1 55.8 89.9"/>
    <path class="st40" d="M61.5,83.4l-1.6-4.2s2.5,1.4,2.5,2.6-.4,1.2-.9,1.6Z"/>
    <path class="st3" d="M45.8,91.2c-14.6,9.5-10.7,37.4-10.7,37.4h23.2l-3.7-19.3,6.8-11.6-4.5-3.8,1.2-3.1-11.8-2.3-.4,2.7h0Z"/>
    <path class="st6" d="M72.2,111.5l1.8-.8s2-1,2.9-1,2.6,1.1,2.6,1.1l1.3,1.7h-4.7l-1.2.7-2.8-1.7h0Z"/>
    <path class="st3" d="M61.4,97.7l4.9,17.1,7-4.4,2.6,3-7.5,7.5c-1.8,1.7-4.6,1.7-6.4,0-.2-.2-.4-.5-.6-.7l-7-10.8s7-11.7,7-11.7Z"/>
    <polygon class="st40" points="76.2 112.5 73.7 110.8 75.5 113 76.2 112.5"/>
    <polygon class="st22" points="54.7 109.8 51.5 104.9 55.8 115.8 54.7 109.8"/>
    <polygon class="st22" points="66.2 114.8 63.5 117 65.8 113.1 66.2 114.8"/>
    <path class="st22" d="M57.5,124.8l.7,3.8h-23.1c-.4-3.4-.5-6.9-.5-10.3,7.2,9.5,18.6,8.3,22.9,6.6h0Z"/>
    <path class="st30" d="M160.1,59.1s1.8-3.8-.3-7.4-6.3-2.4-6.3-2.4c0,0-8.6-.9-10.7,4.9-2,5.4,1.3,12.8,8.9,13.8,7.6,1.1,8.4-8.9,8.4-8.9h0Z"/>
    <path class="st27" d="M155.6,62.2c4.7-3.2,4-8.7,3-11.9.4.4.8.8,1.1,1.3,2.2,3.6.3,7.4.3,7.4,0,0-.9,10-8.4,8.9-3.7-.4-6.9-2.8-8.5-6.1,2.8,1.7,7.8,3.6,12.4.4h0Z"/>
    <path class="st6" d="M154.6,60.9c-1.1-2.3-4-1-3.2,1s2.4,2.2,2.4,2.2c1.3,2.8-2.2,3.8-2.2,3.8l-1.4,2.3,7.1,1.9.5-4.4s3.2-1,4.3-3,0-4.6,0-4.6c.5-.5.7-1.1.6-1.8-.3-1.2-3-2-3-2-.7-1.4-1.8-2.6-3.2-3.4,0,0,2.2,5.1-1.8,7.8v.2Z"/>
    <polygon class="st40" points="157.9 67.9 154.9 67.3 157.6 70.2 157.9 67.9"/>
    <path class="st40" d="M162.1,60.4l-2.5-3.8s2.8.8,3,2c0,.6-.1,1.3-.6,1.8h.1Z"/>
    <circle class="st25" cx="153.9" cy="64.2" r=".8"/>
    <path class="st25" d="M158.9,73.1s-6.6-6.1-9.5-4.4-.6,3.9-.6,3.9l10.1.5Z"/>
    <path class="st27" d="M147.4,64.9s-9.8,1.9-8.3,12.8l-1.4-2s-.2,6.5,4.8,7.7c6.8,1.5,14.2-8.1,9.2-17.1l-4.4-1.3h0Z"/>
    <polygon class="st22" points="162.7 87 158.2 84.3 161.9 89.1 162.7 87"/>
    <path class="st22" d="M140.6,99.5s13.6,12,22.1.9l1,7.3h-23.1s-.1-7.1,0-8.1h0Z"/>
    <path class="st12" d="M68.6,88.5h8.2c1.1,0,2.1-.9,2.1-2.1v-3.9c0-1.1-.9-2.1-2.1-2.1h-8.1c-1.1,0-2.1.9-2.1,2.1v8.7l2-2.8h0Z"/>
    <circle class="st25" cx="75.6" cy="84.3" r=".8"/>
    <circle class="st25" cx="72.7" cy="84.3" r=".8"/>
    <circle class="st25" cx="69.8" cy="84.3" r=".8"/>
    <path class="st12" d="M149.7,45h-8.2c-1.1,0-2.1-.9-2.1-2.1v-3.9c0-1.1.9-2.1,2.1-2.1h8.1c1.1,0,2.1.9,2.1,2.1v8.7l-2-2.8h0Z"/>
    <circle class="st25" cx="142.6" cy="40.9" r=".8"/>
    <circle class="st25" cx="145.6" cy="40.9" r=".8"/>
    <circle class="st25" cx="148.4" cy="40.9" r=".8"/>
    <path class="st12" d="M219.7,12.2h8.2c1.1,0,2.1-.9,2.1-2.1v-3.9c0-1.1-.9-2.1-2.1-2.1h-8.1c-1.1,0-2.1.9-2.1,2.1v8.7l2-2.8h0Z"/>
    <circle class="st25" cx="226.8" cy="8" r=".8"/>
    <circle class="st25" cx="223.9" cy="8" r=".8"/>
    <circle class="st25" cx="220.9" cy="8" r=".8"/>
    <rect class="st12" x="81.2" y="84" width="33.4" height="16.4" rx="2.2" ry="2.2"/>
    <rect class="st25" x="108.5" y="85.6" width="4.6" height="4.6"/>
    <polygon class="st12" points="112.5 86.9 111.8 86.3 110.8 87.3 109.8 86.3 109.2 86.9 110.2 87.9 109.2 88.9 109.8 89.5 110.8 88.5 111.8 89.5 112.5 88.9 111.5 87.9 112.5 86.9"/>
    <polygon class="st25" points="92.2 90.6 92.2 91.4 90.2 92.2 92.2 93.1 92.2 93.9 89.2 92.6 89.2 91.9 92.2 90.6"/>
    <path class="st25" d="M93.4,94.9c-.3-.3-.4-.6-.4-1v-3.3c0-.8.5-1.5,1.3-1.5s1.5.5,1.5,1.3v.9h-.9v-.7c0-.2,0-.3,0-.4-.2-.2-.5-.2-.8,0,0,0-.2.3,0,.4v3.3c0,.2,0,.3,0,.4.2.2.5.2.8,0,0,0,.2-.3,0-.4v-.9h.9v.9c0,.8-.7,1.4-1.5,1.4s-.7,0-1-.4h0Z"/>
    <path class="st25" d="M97.2,95.1c-.2,0-.4-.3-.5-.5s-.2-.5-.2-.8v-.2h.9c0,.3,0,.5.2.6,0,0,.3.2.4.2.2,0,.3,0,.4-.2,0,0,.2-.3.2-.4,0-.2,0-.4-.2-.6-.2-.3-.4-.5-.7-.7-.4-.3-.7-.7-.9-1.1-.2-.3-.2-.6-.2-.9s0-.8.4-1.1c.6-.5,1.5-.5,2,0s.4.7.4,1.1h0c0,0-.9.2-.9.2v-.2c0-.2,0-.4,0-.5,0,0-.2-.2-.4-.2s-.3,0-.4,0c0,0,0,.3,0,.4,0,.2,0,.4.2.5.2.3.4.5.7.8.3.3.7.7.9,1.1.2.3.2.6.2.9s0,.5-.2.8c0,.2-.3.4-.5.5-.5.3-1.1.3-1.5,0h0v.2Z"/>
    <path class="st25" d="M100.7,95.1c-.2,0-.4-.3-.5-.5s-.2-.5-.2-.8v-.2h.9c0,.3,0,.5.2.6,0,0,.3.2.4.2.2,0,.3,0,.4-.2,0,0,.2-.3.2-.4,0-.2,0-.4-.2-.6-.2-.3-.4-.5-.7-.7-.4-.3-.7-.7-.9-1.1-.2-.3-.2-.6-.2-.9s0-.8.4-1.1c.6-.5,1.5-.5,2,0s.4.7.4,1.1h0c0,0-.9.2-.9.2v-.2c0-.2,0-.4,0-.5,0,0-.2-.2-.4-.2s-.3,0-.4,0c0,0,0,.3,0,.4,0,.2,0,.4.2.5.2.3.4.5.7.8.3.3.7.7.9,1.1.2.3.2.6.2.9s0,.5-.2.8c0,.2-.3.4-.5.5-.5.3-1.1.3-1.5,0h0v.2Z"/>
    <polygon class="st25" points="106.6 92.6 103.6 93.9 103.6 93.1 105.7 92.2 103.6 91.4 103.6 90.6 106.6 91.9 106.6 92.6"/>
    <path class="st41" d="M141.1,107.6s1.3,6.8,4.1,10.5l2.2,45.6h7.2l2.5-56h-16Z"/>
    <path class="st18" d="M146.1,107.6s1.4,6.8,4.4,10.5l2.3,45.6h7.2l3.3-56h-17.2Z"/>
    <polygon class="st41" points="146.1 107.6 162.9 110.8 163.2 107.6 146.1 107.6"/>
    <polygon class="st22" points="173.4 84.5 171.8 86.7 172.2 83.3 173.4 84.5"/>
    <polygon class="st25" points="211.4 37.5 213.1 41.2 215.8 38.6 216.6 37.5 217.2 38.3 219.8 41.2 223.9 36.5 220.2 35.5 213.4 36.7 211.4 37.5"/>
    <path class="st19" d="M228.9,45.7c-.7-1-1.7-1.6-2.9-1.8-1.4,0-2.8.2-4,.9l-1.4,3.4,3.2.4,3.1-2.9h2Z"/>
    <polygon class="st4" points="223.9 48.6 228.9 45.7 226.9 45.7 223.9 48.6"/>
    <path class="st28" d="M206.8,26.7s-2.5-.2-2.9-2.5c-.3-1.3.3-2.7,1.4-3.4-.7-1.1-.7-2.5,0-3.6,1.1-2,3.5-1.1,3.5-1.1.7-1.5,2.3-2.5,3.9-2.2,3,.3,3.4,1.9,3.4,1.9,0,0,4.8-.5,6.5,3.7,1.6,4.2,0,10.1-2.9,12.3-2.9,2.2-12.9-5.1-12.9-5.1Z"/>
    <path class="st42" d="M213.9,14c-.4-.1-.8-.2-1.3-.2h-1.3,2.6v.2Z"/>
    <path class="st21" d="M215.8,27.2c-6.9,1.1-10.1-2.9-11.4-5.5-.5.7-.7,1.6-.5,2.5.4,2.3,2.9,2.5,2.9,2.5,0,0,10,7.4,12.9,5.2,2.4-1.8,3.9-6.2,3.4-10-.8,2.3-2.8,4.7-7.4,5.4h.1Z"/>
    <path class="st19" d="M216.6,20c-.6,4.1,1.6,5,1.6,5,0,0,.2-1.9,1.7-1.8,1.9,0,2.5,4-.9,5.8l1.4,6.6s-4.3,6-6.8,1.2l.3-2.2c-1.9.6-3.9,0-5.1-1.5-2.9-3.1-1.8-11.2-1.8-11.2,0,0,.5,1.5,2.7,1.3,1.3,0,2.4-.9,2.7-2.1.7.4,1.5.5,2.3.4.7-.3,1.4-.8,1.8-1.5h.1Z"/>
    <path class="st36" d="M210.6,25.1l.4,4.2s-2.9,0-.4-4.2Z"/>
    <path class="st25" d="M209.9,30.4l3.8-.6s-1.5,3.4-3.8.6Z"/>
    <ellipse class="st37" cx="209.3" cy="27.2" rx=".7" ry=".8" transform="translate(-1.7 20.9) rotate(-5.7)"/>
    <circle class="st37" cx="214.3" cy="26.1" r=".8"/>
    <polygon class="st36" points="213.9 34.5 217.7 32.6 213.4 36.7 213.9 34.5"/>
    <path class="st21" d="M215.8,24.1l-3.1.3s1.2-2.6,3.1-.3Z"/>
    <path class="st21" d="M208.9,25.1l-1.9.2s.7-2.5,1.9-.2Z"/>
    <polygon class="st22" points="206.8 45.6 207.2 43.9 221.7 45.6 206.8 45.6"/>
    <polygon class="st0" points="199.6 98.3 190.1 88.1 189.9 102 192.7 100.9 194.7 106 198.7 104.4 196.8 99.3 199.6 98.3"/>
    <polygon class="st5" points="190.1 88.1 196.7 105.2 198.7 104.4 196.8 99.3 199.6 98.3 190.1 88.1"/>
  </g>
</svg>