<svg width="160" height="160" viewBox="0 0 160 160" fill="none" xmlns="http://www.w3.org/2000/svg">
<path d="M99.7462 27.4078C97.4318 27.407 95.1383 28.1269 92.9869 29.5295C91.6625 23.4519 89.2485 18.1778 86.0636 14.4034C82.8788 10.629 79.0728 8.53186 75.1482 8.38882C71.2236 8.24578 67.3649 10.0636 64.0815 13.6022C60.7982 17.1408 58.2445 22.2339 56.7577 28.2091C54.1257 27.5602 51.4395 27.8533 48.8827 29.0683C46.3259 30.2832 43.9586 32.3915 41.9427 35.249C39.9267 38.1066 38.3094 41.646 37.2014 45.6257C36.0934 49.6054 35.5207 53.9315 35.5225 58.3085V132.852H55.2926V141.734H94.1329V140.154H118.254V57.8458C118.24 49.78 116.286 42.0509 112.818 36.3475C109.35 30.6441 104.65 27.4301 99.7462 27.4078Z" fill="#D4DAFF"/>
<path d="M95.7625 9.87512H95.6767C95.2977 9.87512 94.9905 10.3804 94.9905 11.0037V13.2327C94.9905 13.856 95.2977 14.3613 95.6767 14.3613H95.7625C96.1415 14.3613 96.4487 13.856 96.4487 13.2327V11.0037C96.4487 10.3804 96.1415 9.87512 95.7625 9.87512Z" fill="#D4DAFF"/>
<path d="M36.7645 40.3471V31.7303C36.7645 30.7822 36.5355 29.873 36.1278 29.2026C35.7202 28.5322 35.1673 28.1555 34.5909 28.1555C34.0144 28.1555 33.4615 28.5322 33.0539 29.2026C32.6462 29.873 32.4172 30.7822 32.4172 31.7303V40.3471C32.4172 41.2952 32.6462 42.2045 33.0539 42.8749C33.4615 43.5453 34.0144 43.9219 34.5909 43.9219C35.1673 43.9219 35.7202 43.5453 36.1278 42.8749C36.5355 42.2045 36.7645 41.2952 36.7645 40.3471Z" fill="#D4DAFF"/>
<path d="M39.8079 28.9539C40.1155 28.9539 40.4105 28.753 40.628 28.3953C40.8454 28.0376 40.9676 27.5525 40.9676 27.0466V22.8539C40.9762 22.5951 40.9526 22.3361 40.8983 22.0928C40.8439 21.8495 40.76 21.6269 40.6517 21.4387C40.5433 21.2505 40.4127 21.1006 40.268 20.9982C40.1232 20.8957 39.9672 20.8429 39.8096 20.8429C39.652 20.8429 39.4961 20.8957 39.3513 20.9982C39.2065 21.1006 39.076 21.2505 38.9676 21.4387C38.8592 21.6269 38.7753 21.8495 38.721 22.0928C38.6666 22.3361 38.643 22.5951 38.6516 22.8539V27.0466C38.6516 27.5515 38.7733 28.0358 38.9901 28.3933C39.2068 28.7508 39.5009 28.9524 39.8079 28.9539Z" fill="#D4DAFF"/>
<path d="M19.3721 60.9551V52.3496C19.3721 51.4 19.6014 50.4893 20.0097 49.8179C20.418 49.1464 20.9717 48.7692 21.5491 48.7692C22.1265 48.7692 22.6802 49.1464 23.0885 49.8179C23.4968 50.4893 23.7262 51.4 23.7262 52.3496V60.9664C23.7262 61.9145 23.4972 62.8238 23.0895 63.4942C22.6819 64.1646 22.129 64.5412 21.5525 64.5412C20.9761 64.5412 20.4232 64.1646 20.0156 63.4942C19.6079 62.8238 19.3789 61.9145 19.3789 60.9664L19.3721 60.9551Z" fill="#D4DAFF"/>
<path d="M17.7422 49.562C17.4347 49.562 17.1397 49.361 16.9222 49.0033C16.7047 48.6456 16.5825 48.1605 16.5825 47.6546V43.4619C16.5986 42.9748 16.7277 42.5163 16.9431 42.1808C17.1585 41.8453 17.4439 41.6583 17.7405 41.6583C18.0372 41.6583 18.3226 41.8453 18.538 42.1808C18.7534 42.5163 18.8824 42.9748 18.8985 43.4619V47.6546C18.8985 48.1595 18.7768 48.6438 18.5601 49.0013C18.3433 49.3589 18.0492 49.5605 17.7422 49.562Z" fill="#D4DAFF"/>
<path d="M121.692 32.3453C121.361 32.3468 121.045 32.5631 120.812 32.9469C120.578 33.3308 120.447 33.8509 120.446 34.3937V64.5553C120.446 65.0985 120.577 65.6195 120.811 66.0037C121.044 66.3878 121.361 66.6037 121.692 66.6037C122.022 66.6037 122.339 66.3878 122.572 66.0037C122.806 65.6195 122.937 65.0985 122.937 64.5553V34.3937C122.936 33.8509 122.805 33.3308 122.571 32.9469C122.338 32.5631 122.022 32.3468 121.692 32.3453Z" fill="#D4DAFF"/>
<path d="M121.915 21.4545H121.76C121.078 21.4545 120.525 22.364 120.525 23.4859V27.515C120.525 28.6369 121.078 29.5464 121.76 29.5464H121.915C122.597 29.5464 123.15 28.6369 123.15 27.515V23.4859C123.15 22.364 122.597 21.4545 121.915 21.4545Z" fill="#D4DAFF"/>
<path d="M92.6678 12.1211H92.8222C92.9849 12.1211 93.1459 12.1738 93.2962 12.2762C93.4465 12.3785 93.583 12.5286 93.6981 12.7177C93.8131 12.9069 93.9043 13.1315 93.9666 13.3786C94.0288 13.6258 94.0608 13.8907 94.0608 14.1582V18.1816C94.0608 18.7204 93.9307 19.2371 93.6991 19.6181C93.4674 19.999 93.1532 20.2131 92.8256 20.2131H92.6712C92.509 20.2131 92.3484 20.1605 92.1986 20.0584C92.0487 19.9563 91.9125 19.8067 91.7978 19.6181C91.6831 19.4294 91.5921 19.2055 91.5301 18.959C91.468 18.7126 91.436 18.4484 91.436 18.1816V14.1582C91.4356 13.8914 91.4671 13.6271 91.5287 13.3804C91.5904 13.1336 91.681 12.9092 91.7954 12.7201C91.9098 12.5309 92.0457 12.3807 92.1954 12.2779C92.3451 12.1751 92.5056 12.1218 92.6678 12.1211Z" fill="#D4DAFF"/>
<path d="M125.5 29.9189C125.298 29.9204 125.105 30.0529 124.962 30.2875C124.82 30.5221 124.739 30.8399 124.738 31.1717V33.5248C124.738 33.857 124.819 34.1757 124.961 34.4106C125.104 34.6455 125.298 34.7775 125.5 34.7775C125.702 34.7775 125.896 34.6455 126.039 34.4106C126.181 34.1757 126.262 33.857 126.262 33.5248V31.1717C126.261 30.8399 126.18 30.5221 126.038 30.2875C125.895 30.0529 125.702 29.9204 125.5 29.9189Z" fill="#D4DAFF"/>
<path d="M91.2952 34.2244C94.0107 34.2244 96.212 30.6041 96.212 26.1381C96.212 21.6721 94.0107 18.0518 91.2952 18.0518C88.5797 18.0518 86.3784 21.6721 86.3784 26.1381C86.3784 30.6041 88.5797 34.2244 91.2952 34.2244Z" fill="#683F93"/>
<path d="M99.3275 33.7279L97.4301 32.3624C97.4301 32.3624 95.8175 31.9448 95.3131 30.6074L94.8088 29.27L94.0642 27.3063C94.3883 27.3446 94.7015 27.5154 94.9753 27.8031C95.2491 28.0909 95.4749 28.4865 95.6322 28.954L95.2342 26.4598L94.2529 24.6033L94.6921 22.5323L97.1659 25.1902L98.3771 29.3829L100.113 30.2406L99.3275 33.7279Z" fill="#C4876C"/>
<path d="M97.8589 32.6727L99.5367 29.9697L100.106 30.2462L99.2862 33.9085L97.8589 32.6727Z" fill="#BF695E"/>
<path d="M14.5857 141.677C14.2197 139.306 13.6587 137.028 12.9182 134.906L11.9643 137.592L11.9403 132.451C11.2477 130.912 10.4117 129.561 9.46303 128.45C8.37912 127.237 7.12254 126.506 5.81575 126.329L6.22405 129.94L4.80357 126.25C3.15758 126.291 1.52989 126.825 0 127.824L14.4519 144.189L14.5857 141.677Z" fill="#C6C5FF"/>
<path d="M18.5624 145.689L20.1544 142.766C20.175 136.932 18.9021 129.528 13.9784 122.215C13.2539 125.223 12.7717 128.374 12.5442 131.588L14.3387 135.385L12.4207 134.088C12.2526 140.769 13.3402 148.787 18.4114 154.018C19.3213 151.266 19.8838 148.239 20.0652 145.12L18.5624 145.689Z" fill="#E3EEFF"/>
<path d="M12.5545 131.588L14.3489 135.385L12.4309 134.088C12.2628 140.769 13.3505 148.787 18.4217 154.018L13.9887 122.215C13.2641 125.223 12.7819 128.374 12.5545 131.588Z" fill="#D4DAFF"/>
<path d="M15.3508 147.839L15.464 144.251C13.4328 140.075 9.95365 135.995 3.89429 135.414C4.42728 138.242 5.18281 140.943 6.14167 143.449L8.74589 144.465L6.91367 145.351C9.12331 150.277 12.6985 154.972 18.1472 153.911C17.8336 151.092 17.1778 148.405 16.2189 146.011L15.3508 147.839Z" fill="#E3EEFF"/>
<path d="M6.14167 143.449L8.74589 144.465L6.91367 145.351C9.12331 150.277 12.6985 154.972 18.1472 153.911L3.89429 135.414C4.42728 138.242 5.18281 140.943 6.14167 143.449Z" fill="#D4DAFF"/>
<path d="M144.21 141.965C144.606 139.396 145.213 136.928 146.015 134.629L147.044 137.535L147.072 131.972C147.821 130.306 148.725 128.845 149.751 127.643C150.924 126.33 152.283 125.539 153.697 125.347L153.254 129.252L154.792 125.262C156.576 125.302 158.341 125.875 160 126.955L144.368 144.679L144.21 141.965Z" fill="#C6C5FF"/>
<path d="M139.911 146.31L138.195 143.145C138.175 136.836 139.551 128.823 144.865 120.911C145.65 124.171 146.171 127.586 146.416 131.069L144.474 135.177L146.533 133.772C146.715 141 145.541 149.673 140.052 155.333C139.068 152.355 138.46 149.081 138.264 145.706L139.911 146.31Z" fill="#E3EEFF"/>
<path d="M146.409 131.052L144.467 135.16L146.526 133.755C146.708 140.983 145.534 149.657 140.045 155.316L144.848 120.894C145.636 124.153 146.161 127.568 146.409 131.052Z" fill="#D4DAFF"/>
<path d="M143.383 148.635L143.26 144.753C145.449 140.238 149.223 135.814 155.78 135.16C155.203 138.221 154.385 141.144 153.347 143.856L150.53 144.984L152.5 145.938C150.098 151.265 146.241 156.349 140.35 155.204C140.69 152.148 141.402 149.236 142.443 146.643L143.383 148.635Z" fill="#E3EEFF"/>
<path d="M153.347 143.884L150.53 145.012L152.5 145.966C150.098 151.293 146.241 156.377 140.35 155.232L155.79 135.216C155.209 138.268 154.388 141.182 153.347 143.884Z" fill="#D4DAFF"/>
<path d="M115.392 32.7404L114.661 31.5836L109.079 34.1962L99.6911 29.6085L98.4834 33.6771L108.091 39.4329L115.032 38.8065L115.392 32.7404Z" fill="#BBB1EF"/>
<path d="M121.369 28.7733L125.696 30.7258L128.365 38.0503H113.803L114.661 31.5835L117.574 29.8624L121.369 28.7733Z" fill="#D4D4FF"/>
<path d="M123.867 37.1532L123.153 34.7719L124.738 37.1532H123.867Z" fill="#BBB1EF"/>
<path d="M84.9169 42.4519V39.2411H82.8342C82.7128 38.15 82.4596 37.1101 82.0897 36.1826L83.5754 33.7392L82.2029 31.4821L80.731 33.9029C80.1748 33.2697 79.5472 32.8265 78.885 32.5994V29.1459H76.9327V32.5711C76.2692 32.7704 75.6368 33.1868 75.0731 33.7957L73.5839 31.3523L72.2115 33.6094L73.6835 36.0303C73.2982 36.9426 73.0287 37.9732 72.8909 39.0605H70.791V42.2714H72.8737C72.9949 43.3626 73.2481 44.4026 73.6183 45.3298L72.1326 47.7732L73.505 50.0304L74.977 47.6096C75.5319 48.2427 76.1584 48.686 76.8195 48.9131V52.3497H78.7718V48.9639C79.4353 48.7646 80.0677 48.3482 80.6315 47.7394L82.1171 50.1884L83.4896 47.9312L82.0176 45.5104C82.4025 44.5978 82.6721 43.5673 82.8102 42.4801L84.9169 42.4519ZM77.8488 46.402C77.1702 46.402 76.5068 46.071 75.9426 45.451C75.3784 44.8309 74.9386 43.9496 74.6789 42.9185C74.4192 41.8874 74.3512 40.7528 74.4836 39.6582C74.616 38.5635 74.9428 37.5581 75.4227 36.7689C75.9025 35.9797 76.5139 35.4423 77.1795 35.2245C77.845 35.0068 78.5349 35.1186 79.1619 35.5457C79.7888 35.9728 80.3247 36.696 80.7017 37.624C81.0787 38.552 81.28 39.643 81.28 40.7591C81.2813 41.5015 81.1936 42.2371 81.0217 42.9237C80.8499 43.6103 80.5974 44.2344 80.2786 44.7602C79.9599 45.286 79.5812 45.7031 79.1642 45.9878C78.7473 46.2724 78.3003 46.4189 77.8488 46.4189V46.402Z" fill="#C6C5FF"/>
<path d="M40.3603 31.2394V119.1H14.5103V31.2394H40.3603ZM40.0172 118.547V31.7867H14.8431V118.547H40.0172Z" fill="#C6C5FF"/>
<path d="M15.3988 117.633H13.9543V120.008H15.3988V117.633Z" fill="#9556CC"/>
<path d="M40.9745 117.633H39.53V120.008H40.9745V117.633Z" fill="#9556CC"/>
<path d="M15.3988 30.3252H13.9543V32.7009H15.3988V30.3252Z" fill="#9556CC"/>
<path d="M40.9162 30.3252H39.4717V32.7009H40.9162V30.3252Z" fill="#9556CC"/>
<path d="M145.088 76.1177V143.867H119.238V76.1177H145.088ZM144.745 143.32V76.665H119.561V143.32H144.745Z" fill="#C6C5FF"/>
<path d="M120.127 142.405H118.682V144.781H120.127V142.405Z" fill="#9556CC"/>
<path d="M145.703 142.405H144.258V144.781H145.703V142.405Z" fill="#9556CC"/>
<path d="M120.127 75.2035H118.682V77.5792H120.127V75.2035Z" fill="#9556CC"/>
<path d="M145.644 75.2035H144.2V77.5792H145.644V75.2035Z" fill="#9556CC"/>
<path d="M139.609 151.948H21.8391V39.3708C21.8391 39.0236 21.923 38.6906 22.0723 38.4451C22.2215 38.1996 22.424 38.0616 22.6351 38.0616H138.813C139.024 38.0616 139.226 38.1996 139.376 38.4451C139.525 38.6906 139.609 39.0236 139.609 39.3708V151.948Z" fill="#3D3841"/>
<path d="M136.799 45.8602H24.6492V148.206H136.799V45.8602Z" fill="#B7BEE2"/>
<path d="M136.799 45.8602H24.6492V51.8418H136.799V45.8602Z" fill="#595D6E"/>
<path d="M47.5347 51.8418H24.6492V47.5645C24.6492 47.1155 24.7576 46.6849 24.9507 46.3674C25.1437 46.0499 25.4055 45.8716 25.6785 45.8716H46.4882C46.7612 45.8716 47.0231 46.0499 47.2161 46.3674C47.4091 46.6849 47.5176 47.1155 47.5176 47.5645L47.5347 51.8418Z" fill="#A1ABBF"/>
<path d="M70.4478 51.8418H47.5623V47.5645C47.5623 47.1155 47.6707 46.6849 47.8637 46.3674C48.0568 46.0499 48.3186 45.8716 48.5916 45.8716H69.4013C69.6743 45.8716 69.9361 46.0499 70.1292 46.3674C70.3222 46.6849 70.4307 47.1155 70.4307 47.5645L70.4478 51.8418Z" fill="#858DA0"/>
<path d="M93.2784 51.8418H70.3894V47.5645C70.3894 47.1155 70.4979 46.6849 70.6909 46.3674C70.8839 46.0499 71.1457 45.8716 71.4187 45.8716H92.2285C92.5015 45.8716 92.7633 46.0499 92.9563 46.3674C93.1494 46.6849 93.2578 47.1155 93.2578 47.5645L93.2784 51.8418Z" fill="#73798C"/>
<path d="M79.5402 43.9303C80.1541 43.9303 80.6518 43.1117 80.6518 42.102C80.6518 41.0922 80.1541 40.2737 79.5402 40.2737C78.9262 40.2737 78.4285 41.0922 78.4285 42.102C78.4285 43.1117 78.9262 43.9303 79.5402 43.9303Z" fill="#1F64C1"/>
<path d="M79.5402 43.9303C80.1541 43.9303 80.6518 43.1117 80.6518 42.102C80.6518 41.0922 80.1541 40.2737 79.5402 40.2737C78.9262 40.2737 78.4285 41.0922 78.4285 42.102C78.4285 43.1117 78.9262 43.9303 79.5402 43.9303Z" fill="#514B56"/>
<path d="M79.5404 43.0782C79.8682 43.0782 80.1339 42.6411 80.1339 42.102C80.1339 41.5628 79.8682 41.1257 79.5404 41.1257C79.2125 41.1257 78.9468 41.5628 78.9468 42.102C78.9468 42.6411 79.2125 43.0782 79.5404 43.0782Z" fill="#322E35"/>
<path d="M45.5103 49.8159L44.9236 48.851L45.5103 47.886L45.0059 47.0565L44.4192 48.0215L43.8325 47.0565L43.3315 47.886L43.9183 48.851L43.3315 49.8159L43.8325 50.6398L44.4192 49.6748L45.0059 50.6398L45.5103 49.8159Z" fill="#F3F2F7"/>
<path d="M68.4029 49.8159L67.8162 48.851L68.4029 47.886L67.8985 47.0565L67.3118 48.0215L66.7285 47.0565L66.2241 47.886L66.8108 48.851L66.2241 49.8159L66.7285 50.6398L67.3118 49.6748L67.8985 50.6398L68.4029 49.8159Z" fill="#F3F2F7"/>
<path d="M91.2952 49.8159L90.7085 48.851L91.2952 47.886L90.7908 47.0565L90.2076 48.0215L89.6208 47.0565L89.1165 47.886L89.7032 48.851L89.1165 49.8159L89.6208 50.6398L90.2076 49.6748L90.7908 50.6398L91.2952 49.8159Z" fill="#F3F2F7"/>
<path d="M135.955 56.7115H133.752V148.201H135.955V56.7115Z" fill="#4B4F5B"/>
<path d="M135.43 57.6879H134.273V69.6848H135.43V57.6879Z" fill="#B7BEE2"/>
<path d="M86.6427 151.507H11.0071V155.458C11.0071 156.147 11.1737 156.809 11.4704 157.297C11.767 157.785 12.1693 158.059 12.5888 158.059H148.887C149.306 158.059 149.708 157.785 150.005 157.297C150.302 156.809 150.468 156.147 150.468 155.458V151.507H86.6427Z" fill="#A1ABBF"/>
<path d="M35.0317 153.178H17.1555V155.322H35.0317V153.178Z" fill="#454954"/>
<path d="M39.7805 155.762C40.2713 155.762 40.6692 155.108 40.6692 154.301C40.6692 153.494 40.2713 152.839 39.7805 152.839C39.2897 152.839 38.8918 153.494 38.8918 154.301C38.8918 155.108 39.2897 155.762 39.7805 155.762Z" fill="#454954"/>
<path d="M93.6695 155.762H59.4098C59.3051 155.763 59.2014 155.73 59.1046 155.664C59.0079 155.599 58.9199 155.502 58.8459 155.38C58.7719 155.259 58.7133 155.114 58.6734 154.955C58.6336 154.796 58.6133 154.625 58.6138 154.453V151.507H94.4656V154.453C94.4656 154.8 94.3817 155.133 94.2324 155.379C94.0831 155.624 93.8807 155.762 93.6695 155.762Z" fill="#73798C"/>
<path d="M99.6295 59.8435H26.0938V145.317H99.6295V59.8435Z" fill="#595D6E"/>
<path d="M98.631 72.6246H68.3411V82.4547H98.631V72.6246Z" fill="#9556CC"/>
<path d="M66.8724 72.6246H27.092V82.4547H66.8724V72.6246Z" fill="#9556CC"/>
<path d="M130.53 59.8435H101.671V145.317H130.53V59.8435Z" fill="#595D6E"/>
<path d="M129.535 68.6069H102.669V74.5828H129.535V68.6069Z" fill="#9556CC"/>
<path d="M129.535 107.475H102.669V113.451H129.535V107.475Z" fill="#9556CC"/>
<path d="M97.8385 62.7213H93.7898V69.38H97.8385V62.7213Z" fill="#454954"/>
<path d="M129.535 60.8083H125.486V67.467H129.535V60.8083Z" fill="#454954"/>
<path d="M8.11804 157.952H154.569C154.695 157.952 154.816 158.034 154.906 158.181C154.995 158.328 155.045 158.528 155.045 158.736V159.21C155.045 159.42 154.995 159.62 154.905 159.769C154.815 159.917 154.693 160 154.565 160H8.11804C7.99155 160 7.87024 159.917 7.7808 159.77C7.69136 159.623 7.64111 159.424 7.64111 159.216V158.736C7.64111 158.528 7.69136 158.328 7.7808 158.181C7.87024 158.034 7.99155 157.952 8.11804 157.952Z" fill="#595D6E"/>
<path d="M44.6937 112.628H28.8728V116.414H44.6937V112.628Z" fill="#E3EEFF"/>
<path d="M65.1535 112.582H45.7368V116.414H65.1535V112.582Z" fill="#C6C5FF"/>
<path d="M40.7239 118.344H28.8728V122.13H40.7239V118.344Z" fill="#E3EEFF"/>
<path d="M49.12 118.344H41.7705V122.13H49.12V118.344Z" fill="#C6C5FF"/>
<path d="M60.1989 124.066H28.8728V127.852H60.1989V124.066Z" fill="#E3EEFF"/>
<path d="M49.3154 129.788H28.8728V133.574H49.3154V129.788Z" fill="#E3EEFF"/>
<path d="M60.7172 129.901H50.4958V133.569H60.7172V129.901Z" fill="#C6C5FF"/>
<path d="M56.8915 86.7716H47.1951C47.1419 86.7716 47.0908 86.7368 47.0532 86.6749C47.0155 86.613 46.9944 86.529 46.9944 86.4415C46.9944 86.3539 47.0155 86.2699 47.0532 86.208C47.0908 86.1461 47.1419 86.1113 47.1951 86.1113H56.8915C56.9447 86.1113 56.9957 86.1461 57.0334 86.208C57.071 86.2699 57.0922 86.3539 57.0922 86.4415C57.0922 86.529 57.071 86.613 57.0334 86.6749C56.9957 86.7368 56.9447 86.7716 56.8915 86.7716Z" fill="#6161BC"/>
<path d="M45.7233 86.7716H34.6819C34.6287 86.7716 34.5776 86.7368 34.54 86.6749C34.5023 86.613 34.4812 86.529 34.4812 86.4415C34.4812 86.3539 34.5023 86.2699 34.54 86.208C34.5776 86.1461 34.6287 86.1113 34.6819 86.1113H45.7233C45.7765 86.1113 45.8276 86.1461 45.8652 86.208C45.9028 86.2699 45.924 86.3539 45.924 86.4415C45.924 86.529 45.9028 86.613 45.8652 86.6749C45.8276 86.7368 45.7765 86.7716 45.7233 86.7716Z" fill="#6161BC"/>
<path d="M33.2612 86.7716H28.6978C28.6446 86.7716 28.5935 86.7368 28.5559 86.6749C28.5182 86.613 28.4971 86.529 28.4971 86.4415C28.4971 86.3539 28.5182 86.2699 28.5559 86.208C28.5935 86.1461 28.6446 86.1113 28.6978 86.1113H33.2612C33.3144 86.1113 33.3655 86.1461 33.4031 86.208C33.4408 86.2699 33.4619 86.3539 33.4619 86.4415C33.4619 86.529 33.4408 86.613 33.4031 86.6749C33.3655 86.7368 33.3144 86.7716 33.2612 86.7716Z" fill="#6161BC"/>
<path d="M49.1165 90.0389H38.48C38.4268 90.0389 38.3757 90.0041 38.3381 89.9422C38.3004 89.8803 38.2793 89.7963 38.2793 89.7088C38.2793 89.6212 38.3004 89.5373 38.3381 89.4754C38.3757 89.4134 38.4268 89.3787 38.48 89.3787H49.1165C49.1697 89.3787 49.2208 89.4134 49.2584 89.4754C49.2961 89.5373 49.3172 89.6212 49.3172 89.7088C49.3172 89.7963 49.2961 89.8803 49.2584 89.9422C49.2208 90.0041 49.1697 90.0389 49.1165 90.0389Z" fill="#6161BC"/>
<path d="M37.0183 90.0389H28.6978C28.6446 90.0389 28.5935 90.0041 28.5559 89.9422C28.5182 89.8803 28.4971 89.7963 28.4971 89.7088C28.4971 89.6212 28.5182 89.5373 28.5559 89.4754C28.5935 89.4134 28.6446 89.3787 28.6978 89.3787H37.0148C37.0681 89.3787 37.1191 89.4134 37.1568 89.4754C37.1944 89.5373 37.2155 89.6212 37.2155 89.7088C37.2155 89.7963 37.1944 89.8803 37.1568 89.9422C37.1191 90.0041 37.0681 90.0389 37.0148 90.0389H37.0183Z" fill="#6161BC"/>
<path d="M56.8913 93.3343H52.7156C52.6624 93.3343 52.6113 93.2995 52.5737 93.2376C52.536 93.1757 52.5149 93.0917 52.5149 93.0042C52.5149 92.9166 52.536 92.8327 52.5737 92.7708C52.6113 92.7089 52.6624 92.6741 52.7156 92.6741H56.8879C56.9411 92.6741 56.9921 92.7089 57.0298 92.7708C57.0674 92.8327 57.0886 92.9166 57.0886 93.0042C57.0886 93.0917 57.0674 93.1757 57.0298 93.2376C56.9921 93.2995 56.9411 93.3343 56.8879 93.3343H56.8913Z" fill="#6161BC"/>
<path d="M51.0311 93.3343H41.719C41.6658 93.3343 41.6147 93.2995 41.5771 93.2376C41.5395 93.1757 41.5183 93.0917 41.5183 93.0042C41.5183 92.9166 41.5395 92.8327 41.5771 92.7708C41.6147 92.7089 41.6658 92.6741 41.719 92.6741H51.0311C51.0843 92.6741 51.1354 92.7089 51.173 92.7708C51.2107 92.8327 51.2318 92.9166 51.2318 93.0042C51.2318 93.0917 51.2107 93.1757 51.173 93.2376C51.1354 93.2995 51.0843 93.3343 51.0311 93.3343Z" fill="#6161BC"/>
<path d="M40.0617 93.3343H28.6978C28.6446 93.3343 28.5935 93.2995 28.5559 93.2376C28.5182 93.1757 28.4971 93.0917 28.4971 93.0042C28.4971 92.9166 28.5182 92.8327 28.5559 92.7708C28.5935 92.7089 28.6446 92.6741 28.6978 92.6741H40.0617C40.1149 92.6741 40.1659 92.7089 40.2036 92.7708C40.2412 92.8327 40.2624 92.9166 40.2624 93.0042C40.2624 93.0917 40.2412 93.1757 40.2036 93.2376C40.1659 93.2995 40.1149 93.3343 40.0617 93.3343Z" fill="#6161BC"/>
<path d="M43.5065 96.6297H28.6978C28.6446 96.6297 28.5935 96.5949 28.5559 96.533C28.5182 96.4711 28.4971 96.3872 28.4971 96.2996C28.4971 96.2121 28.5182 96.1281 28.5559 96.0662C28.5935 96.0043 28.6446 95.9695 28.6978 95.9695H43.5031C43.5563 95.9695 43.6074 96.0043 43.645 96.0662C43.6826 96.1281 43.7038 96.2121 43.7038 96.2996C43.7038 96.3872 43.6826 96.4711 43.645 96.533C43.6074 96.5949 43.5563 96.6297 43.5031 96.6297H43.5065Z" fill="#6161BC"/>
<path d="M56.8915 99.9196H52.9834C52.9302 99.9196 52.8791 99.8848 52.8415 99.8229C52.8039 99.761 52.7827 99.6771 52.7827 99.5895C52.7827 99.502 52.8039 99.418 52.8415 99.3561C52.8791 99.2942 52.9302 99.2594 52.9834 99.2594H56.888C56.9413 99.2594 56.9923 99.2942 57.03 99.3561C57.0676 99.418 57.0888 99.502 57.0888 99.5895C57.0888 99.6771 57.0676 99.761 57.03 99.8229C56.9923 99.8848 56.9413 99.9196 56.888 99.9196H56.8915Z" fill="#6161BC"/>
<path d="M51.683 99.9196H45.7232C45.6699 99.9196 45.6189 99.8848 45.5813 99.8229C45.5436 99.761 45.5225 99.6771 45.5225 99.5895C45.5225 99.502 45.5436 99.418 45.5813 99.3561C45.6189 99.2942 45.6699 99.2594 45.7232 99.2594H51.6796C51.7328 99.2594 51.7839 99.2942 51.8215 99.3561C51.8592 99.418 51.8803 99.502 51.8803 99.5895C51.8803 99.6771 51.8592 99.761 51.8215 99.8229C51.7839 99.8848 51.7328 99.9196 51.6796 99.9196H51.683Z" fill="#6161BC"/>
<path d="M44.2889 100.247H33.3916C33.3389 100.247 33.2882 100.212 33.2509 100.151C33.2136 100.09 33.1926 100.006 33.1926 99.9196C33.1926 99.8328 33.2136 99.7495 33.2509 99.6882C33.2882 99.6268 33.3389 99.5923 33.3916 99.5923H44.2889C44.3416 99.5923 44.3923 99.6268 44.4296 99.6882C44.4669 99.7495 44.4879 99.8328 44.4879 99.9196C44.4879 100.006 44.4669 100.09 44.4296 100.151C44.3923 100.212 44.3416 100.247 44.2889 100.247Z" fill="#6161BC"/>
<path d="M32.0123 100.247H28.8728C28.8201 100.247 28.7694 100.212 28.7321 100.151C28.6948 100.09 28.6738 100.006 28.6738 99.9196C28.6738 99.8328 28.6948 99.7495 28.7321 99.6882C28.7694 99.6268 28.8201 99.5923 28.8728 99.5923H32.0089C32.0617 99.5923 32.1123 99.6268 32.1496 99.6882C32.1869 99.7495 32.2079 99.8328 32.2079 99.9196C32.2079 100.006 32.1869 100.09 32.1496 100.151C32.1123 100.212 32.0617 100.247 32.0089 100.247H32.0123Z" fill="#6161BC"/>
<path d="M40.0617 103.215H28.6978C28.6446 103.215 28.5935 103.18 28.5559 103.118C28.5182 103.057 28.4971 102.973 28.4971 102.885C28.4971 102.797 28.5182 102.714 28.5559 102.652C28.5935 102.59 28.6446 102.555 28.6978 102.555H40.0617C40.1149 102.555 40.1659 102.59 40.2036 102.652C40.2412 102.714 40.2624 102.797 40.2624 102.885C40.2624 102.973 40.2412 103.057 40.2036 103.118C40.1659 103.18 40.1149 103.215 40.0617 103.215Z" fill="#6161BC"/>
<path d="M52.407 106.522H48.7151C48.6619 106.522 48.6108 106.487 48.5732 106.425C48.5356 106.363 48.5144 106.279 48.5144 106.192C48.5144 106.104 48.5356 106.02 48.5732 105.958C48.6108 105.896 48.6619 105.862 48.7151 105.862H52.407C52.4602 105.862 52.5113 105.896 52.5489 105.958C52.5866 106.02 52.6077 106.104 52.6077 106.192C52.6077 106.279 52.5866 106.363 52.5489 106.425C52.5113 106.487 52.4602 106.522 52.407 106.522Z" fill="#6161BC"/>
<path d="M47.1951 106.522H39.4305C39.3772 106.522 39.3262 106.487 39.2885 106.425C39.2509 106.363 39.2297 106.279 39.2297 106.192C39.2297 106.104 39.2509 106.02 39.2885 105.958C39.3262 105.896 39.3772 105.862 39.4305 105.862H47.1951C47.2483 105.862 47.2994 105.896 47.337 105.958C47.3747 106.02 47.3958 106.104 47.3958 106.192C47.3958 106.279 47.3747 106.363 47.337 106.425C47.2994 106.487 47.2483 106.522 47.1951 106.522Z" fill="#6161BC"/>
<path d="M37.828 106.522H28.6978C28.6446 106.522 28.5935 106.487 28.5559 106.425C28.5182 106.363 28.4971 106.279 28.4971 106.192C28.4971 106.104 28.5182 106.02 28.5559 105.958C28.5935 105.896 28.6446 105.862 28.6978 105.862H37.828C37.8812 105.862 37.9323 105.896 37.9699 105.958C38.0076 106.02 38.0287 106.104 38.0287 106.192C38.0287 106.279 38.0076 106.363 37.9699 106.425C37.9323 106.487 37.8812 106.522 37.828 106.522Z" fill="#6161BC"/>
<path d="M56.8915 109.806H45.7232C45.6699 109.806 45.6189 109.771 45.5813 109.709C45.5436 109.647 45.5225 109.563 45.5225 109.476C45.5225 109.388 45.5436 109.304 45.5813 109.242C45.6189 109.181 45.6699 109.146 45.7232 109.146H56.888C56.9413 109.146 56.9923 109.181 57.03 109.242C57.0676 109.304 57.0888 109.388 57.0888 109.476C57.0888 109.563 57.0676 109.647 57.03 109.709C56.9923 109.771 56.9413 109.806 56.888 109.806H56.8915Z" fill="#6161BC"/>
<path d="M43.7572 109.806H36.1023C36.0491 109.806 35.998 109.771 35.9604 109.709C35.9228 109.647 35.9016 109.563 35.9016 109.476C35.9016 109.388 35.9228 109.304 35.9604 109.242C35.998 109.181 36.0491 109.146 36.1023 109.146H43.7572C43.8104 109.146 43.8614 109.181 43.8991 109.242C43.9367 109.304 43.9579 109.388 43.9579 109.476C43.9579 109.563 43.9367 109.647 43.8991 109.709C43.8614 109.771 43.8104 109.806 43.7572 109.806Z" fill="#6161BC"/>
<path d="M34.3626 109.806H28.6978C28.6446 109.806 28.5935 109.771 28.5559 109.709C28.5182 109.647 28.4971 109.563 28.4971 109.476C28.4971 109.388 28.5182 109.304 28.5559 109.242C28.5935 109.181 28.6446 109.146 28.6978 109.146H34.3626C34.4158 109.146 34.4669 109.181 34.5045 109.242C34.5421 109.304 34.5633 109.388 34.5633 109.476C34.5633 109.563 34.5421 109.647 34.5045 109.709C34.4669 109.771 34.4158 109.806 34.3626 109.806Z" fill="#6161BC"/>
<path d="M75.2443 85.4736C74.2142 85.4736 73.2072 85.976 72.3507 86.9173C71.4942 87.8585 70.8266 89.1963 70.4324 90.7616C70.0381 92.3268 69.935 94.0491 70.136 95.7108C70.3369 97.3724 70.833 98.8987 71.5614 100.097C72.2898 101.295 73.2179 102.11 74.2282 102.441C75.2386 102.772 76.2858 102.602 77.2375 101.954C78.1892 101.305 79.0027 100.207 79.575 98.7986C80.1473 97.39 80.4528 95.7338 80.4528 94.0396C80.4528 91.7678 79.904 89.589 78.9273 87.9825C77.9505 86.3761 76.6257 85.4736 75.2443 85.4736ZM75.2443 101.076C74.3981 101.076 73.5709 100.664 72.8673 99.8905C72.1637 99.1172 71.6153 98.0183 71.2914 96.7325C70.9676 95.4467 70.8828 94.0318 71.0479 92.6668C71.213 91.3018 71.6205 90.048 72.2189 89.0639C72.8173 88.0798 73.5797 87.4096 74.4096 87.1381C75.2396 86.8666 76.0999 87.0059 76.8817 87.5385C77.6635 88.0711 78.3317 88.973 78.8019 90.1302C79.272 91.2874 79.5229 92.6479 79.5229 94.0396C79.5229 94.9637 79.4123 95.8787 79.1973 96.7325C78.9822 97.5862 78.6671 98.3619 78.2698 99.0154C77.8725 99.6688 77.4008 100.187 76.8817 100.541C76.3626 100.894 75.8062 101.076 75.2443 101.076Z" fill="#C6C5FF"/>
<path d="M70.9659 94.0396C70.9659 92.1734 71.4167 90.3835 72.2191 89.0639C73.0215 87.7442 74.1098 87.0029 75.2445 87.0029V85.4736C73.865 85.4781 72.5428 86.3826 71.5683 87.9885C70.5937 89.5945 70.0464 91.7707 70.0464 94.0396H70.9659Z" fill="#E3EEFF"/>
<path d="M79.523 94.0397C79.523 94.9638 79.4123 95.8788 79.1973 96.7325C78.9823 97.5863 78.6671 98.362 78.2698 99.0154C77.8725 99.6688 77.4008 100.187 76.8817 100.541C76.3626 100.894 75.8063 101.076 75.2444 101.076V102.606C76.6257 102.606 77.9505 101.703 78.9273 100.097C79.9041 98.4903 80.4528 96.3115 80.4528 94.0397H79.523Z" fill="#E3EEFF"/>
<path d="M90.5095 105.111H69.8782V108.344H90.5095V105.111Z" fill="#E3EEFF"/>
<path d="M97.2482 105.072H91.2952V108.339H97.2482V105.072Z" fill="#C6C5FF"/>
<path d="M78.8197 109.992H69.8782V113.226H78.8197V109.992Z" fill="#E3EEFF"/>
<path d="M89.7719 109.992H79.6055V113.226H89.7719V109.992Z" fill="#C6C5FF"/>
<path d="M92.177 114.873H69.8782V118.101H92.177V114.873Z" fill="#E3EEFF"/>
<path d="M82.2028 119.755H69.8782V122.988H82.2028V119.755Z" fill="#E3EEFF"/>
<path d="M97.2412 119.856H83.0947V122.988H97.2412V119.856Z" fill="#C6C5FF"/>
<path d="M72.1186 125.657H69.5762V130.047H72.1186V125.657Z" fill="#9556CC"/>
<path d="M114.356 95.2361L115.539 93.2949L119.06 87.5052C119.519 87.8055 120.018 87.903 120.507 87.7882C120.997 87.6733 121.459 87.35 121.849 86.8503C122.239 86.3506 122.542 85.692 122.73 84.9398C122.917 84.1875 122.981 83.3678 122.916 82.562C122.912 82.5155 122.901 82.4717 122.883 82.4354C122.864 82.3992 122.84 82.372 122.813 82.3568C122.786 82.3415 122.757 82.339 122.729 82.3493C122.702 82.3596 122.676 82.3825 122.656 82.4153L121.259 84.7063L119.574 84.0405L119.176 81.2698L120.573 78.9787C120.593 78.9451 120.607 78.9031 120.613 78.8572C120.619 78.8114 120.618 78.7636 120.609 78.7192C120.599 78.6747 120.583 78.6354 120.561 78.6055C120.539 78.5756 120.512 78.5563 120.484 78.5499C119.994 78.4397 119.494 78.5425 119.036 78.8481C118.577 79.1536 118.175 79.6513 117.87 80.2915C117.565 80.9317 117.367 81.6923 117.295 82.4975C117.224 83.3027 117.282 84.1245 117.464 84.8813L113.621 91.1731L112.76 92.5895C112.301 92.2892 111.802 92.1917 111.313 92.3066C110.823 92.4215 110.361 92.7448 109.971 93.2445C109.581 93.7441 109.278 94.4028 109.09 95.155C108.903 95.9072 108.839 96.7269 108.904 97.5327C108.908 97.5793 108.919 97.6231 108.937 97.6593C108.956 97.6956 108.98 97.7228 109.007 97.738C109.034 97.7532 109.063 97.7558 109.091 97.7454C109.118 97.7351 109.144 97.7123 109.164 97.6794L110.561 95.3884L112.246 96.0543L112.644 98.825L111.247 101.116C111.227 101.15 111.213 101.192 111.207 101.238C111.201 101.283 111.202 101.331 111.212 101.376C111.221 101.42 111.237 101.459 111.259 101.489C111.281 101.519 111.308 101.538 111.336 101.545C111.827 101.655 112.326 101.552 112.784 101.247C113.243 100.941 113.645 100.443 113.95 99.8033C114.255 99.163 114.453 98.4025 114.525 97.5973C114.596 96.792 114.538 95.9702 114.356 95.2135V95.2361Z" fill="#C6C5FF"/>
<path d="M89.7718 100.405C90.2341 100.405 90.609 99.7886 90.609 99.0281C90.609 98.2677 90.2341 97.6512 89.7718 97.6512C89.3094 97.6512 88.9346 98.2677 88.9346 99.0281C88.9346 99.7886 89.3094 100.405 89.7718 100.405Z" fill="#C6C5FF"/>
<path d="M89.7718 92.945C89.1566 92.9492 88.5518 93.2064 88.0124 93.6933C87.4731 94.1802 87.0164 94.8812 86.6838 95.7326L87.4387 96.974C87.6641 96.2724 88.0015 95.6851 88.4148 95.2755C88.828 94.8659 89.3014 94.6494 89.7839 94.6494C90.2664 94.6494 90.7397 94.8659 91.153 95.2755C91.5662 95.6851 91.9037 96.2724 92.129 96.974L92.8839 95.7326C92.5492 94.8756 92.0886 94.171 91.5447 93.6839C91.0009 93.1967 90.3912 92.9426 89.7718 92.945Z" fill="#C6C5FF"/>
<path d="M89.7718 88.9103C88.8332 88.9121 87.9072 89.2657 87.0642 89.9443C86.2211 90.6229 85.4832 91.6086 84.9065 92.8265L85.6442 94.0397C86.1206 92.9769 86.7422 92.113 87.4589 91.5176C88.1755 90.9223 88.9672 90.6121 89.7701 90.6121C90.573 90.6121 91.3647 90.9223 92.0813 91.5176C92.798 92.113 93.4196 92.9769 93.896 94.0397L94.6337 92.8265C94.0584 91.6075 93.3213 90.6209 92.4786 89.9421C91.636 89.2634 90.7101 88.9104 89.7718 88.9103Z" fill="#C6C5FF"/>
<path d="M89.7718 84.9432C88.5161 84.9429 87.2756 85.3948 86.1375 86.2674C84.9994 87.1399 83.9913 88.4118 83.1841 89.9937L83.9183 91.2013C84.6286 89.7768 85.5223 88.6293 86.5348 87.8414C87.5473 87.0535 88.6534 86.6448 89.7735 86.6448C90.8937 86.6448 91.9998 87.0535 93.0123 87.8414C94.0248 88.6293 94.9184 89.7768 95.6288 91.2013L96.363 89.9937C95.5556 88.4108 94.5469 87.1382 93.4082 86.2656C92.2694 85.3931 91.0281 84.9417 89.7718 84.9432Z" fill="#C6C5FF"/>
<path d="M74.8979 140.87C76.1542 140.87 77.1727 139.195 77.1727 137.129C77.1727 135.063 76.1542 133.388 74.8979 133.388C73.6415 133.388 72.623 135.063 72.623 137.129C72.623 139.195 73.6415 140.87 74.8979 140.87Z" fill="#C6C5FF"/>
<path d="M83.4072 140.87C84.6635 140.87 85.682 139.195 85.682 137.129C85.682 135.063 84.6635 133.388 83.4072 133.388C82.1508 133.388 81.1323 135.063 81.1323 137.129C81.1323 139.195 82.1508 140.87 83.4072 140.87Z" fill="#C6C5FF"/>
<path d="M91.9162 140.87C93.1725 140.87 94.191 139.195 94.191 137.129C94.191 135.063 93.1725 133.388 91.9162 133.388C90.6598 133.388 89.6414 135.063 89.6414 137.129C89.6414 139.195 90.6598 140.87 91.9162 140.87Z" fill="#C6C5FF"/>
<path d="M116.768 124.969V122.661H115.269C115.182 121.875 115 121.127 114.733 120.46L115.804 118.699L114.812 117.063L113.752 118.806C113.352 118.351 112.9 118.033 112.424 117.87V115.381H111.021V117.847C110.543 117.99 110.088 118.289 109.683 118.727L108.612 116.967L107.621 118.598L108.681 120.341C108.404 120.999 108.21 121.742 108.111 122.525H106.598V124.833H108.098C108.184 125.618 108.366 126.367 108.633 127.034L107.562 128.795L108.554 130.431L109.614 128.687C110.014 129.143 110.466 129.461 110.942 129.624V132.113H112.345V129.658C112.823 129.515 113.278 129.216 113.683 128.778L114.754 130.538L115.749 128.902L114.689 127.158C114.966 126.5 115.159 125.758 115.258 124.974L116.768 124.969ZM111.68 127.824C111.19 127.824 110.711 127.585 110.303 127.137C109.896 126.69 109.578 126.053 109.391 125.309C109.203 124.564 109.154 123.745 109.25 122.955C109.346 122.165 109.581 121.439 109.928 120.869C110.274 120.299 110.716 119.911 111.196 119.754C111.677 119.597 112.175 119.677 112.628 119.986C113.08 120.294 113.467 120.816 113.739 121.486C114.012 122.156 114.157 122.944 114.157 123.75C114.156 124.829 113.895 125.864 113.43 126.627C112.966 127.39 112.336 127.818 111.68 127.818V127.824Z" fill="#C6C5FF"/>
<path d="M73.7106 30.0092V26.7984H71.6279C71.5068 25.7071 71.2536 24.667 70.8834 23.7399L72.3725 21.2965L71 19.0393L69.5281 21.4601C68.972 20.827 68.3443 20.3837 67.6821 20.1566V16.7031H65.723V20.1284C65.0636 20.317 64.4338 20.7199 63.8702 21.3134L62.3845 18.87L61.012 21.1272L62.484 23.548C62.0986 24.4602 61.829 25.4908 61.6914 26.5783H59.5916V29.7891H61.6742C61.7957 30.8802 62.0489 31.9202 62.4188 32.8476L60.9331 35.291L62.3056 37.5482L63.7775 35.1273C64.3324 35.7603 64.959 36.2036 65.62 36.4309V39.9351H67.5723V36.5099C68.2358 36.3103 68.8681 35.8939 69.432 35.2853L70.9177 37.7344L72.2901 35.4772L70.8182 33.0564C71.2031 32.1438 71.4727 31.1133 71.6108 30.0261L73.7106 30.0092ZM66.6425 33.9593C65.9639 33.9593 65.3005 33.6283 64.7363 33.0082C64.172 32.3882 63.7323 31.5069 63.4726 30.4758C63.2129 29.4447 63.1449 28.31 63.2773 27.2154C63.4097 26.1208 63.7365 25.1153 64.2163 24.3261C64.6962 23.537 65.3076 22.9995 65.9731 22.7818C66.6387 22.5641 67.3286 22.6758 67.9555 23.1029C68.5825 23.53 69.1184 24.2533 69.4954 25.1813C69.8724 26.1092 70.0736 27.2002 70.0736 28.3163C70.075 29.0588 69.9872 29.7944 69.8154 30.481C69.6436 31.1676 69.3911 31.7916 69.0723 32.3174C68.7536 32.8432 68.3749 33.2604 67.9579 33.545C67.541 33.8297 67.094 33.9762 66.6425 33.9762V33.9593Z" fill="#C6C5FF"/>
<path d="M111.68 126.323C112.546 126.323 113.248 125.168 113.248 123.744C113.248 122.32 112.546 121.165 111.68 121.165C110.814 121.165 110.112 122.32 110.112 123.744C110.112 125.168 110.814 126.323 111.68 126.323Z" fill="#C6C5FF"/>
<path d="M125.222 133.743V131.435H123.723C123.636 130.65 123.454 129.902 123.187 129.235L124.258 127.474L123.266 125.843L122.199 127.576C121.799 127.12 121.348 126.802 120.871 126.639V124.15H119.468V126.616C118.99 126.759 118.533 127.058 118.127 127.497L117.053 125.742L116.061 127.373L117.121 129.116C116.845 129.774 116.651 130.517 116.552 131.3H115.039V133.608H116.538C116.625 134.393 116.807 135.141 117.073 135.809L116.023 137.558L117.018 139.194L118.079 137.451C118.478 137.906 118.93 138.225 119.406 138.388V140.876H120.81V138.41C121.287 138.267 121.742 137.968 122.148 137.53L123.218 139.29L124.21 137.66L123.15 135.916C123.427 135.258 123.621 134.516 123.719 133.732L125.222 133.743ZM120.141 136.599C119.651 136.599 119.172 136.36 118.764 135.912C118.357 135.464 118.039 134.828 117.852 134.084C117.664 133.339 117.615 132.52 117.711 131.73C117.807 130.939 118.043 130.213 118.389 129.644C118.735 129.074 119.177 128.686 119.657 128.529C120.138 128.371 120.636 128.452 121.089 128.76C121.541 129.069 121.928 129.591 122.2 130.261C122.473 130.931 122.618 131.719 122.618 132.525C122.618 133.605 122.357 134.641 121.892 135.405C121.428 136.169 120.798 136.599 120.141 136.599Z" fill="#C6C5FF"/>
<path d="M120.137 135.103C121.005 135.103 121.709 133.946 121.709 132.519C121.709 131.092 121.005 129.934 120.137 129.934C119.269 129.934 118.566 131.092 118.566 132.519C118.566 133.946 119.269 135.103 120.137 135.103Z" fill="#C6C5FF"/>
<path d="M112.928 37.1531H96.6752C96.1995 37.1531 95.814 37.7872 95.814 38.5695V57.6426C95.814 58.4249 96.1995 59.059 96.6752 59.059H112.928C113.404 59.059 113.79 58.4249 113.79 57.6426V38.5695C113.79 37.7872 113.404 37.1531 112.928 37.1531Z" fill="#683F93"/>
<path d="M112.561 40.0028L112.215 39.4329L111.652 40.3527L111.093 39.4329L110.746 40.0028L111.306 40.9226L110.746 41.848L111.093 42.418L111.652 41.4982L112.215 42.418L112.561 41.848L112.002 40.9226L112.561 40.0028Z" fill="#683F93"/>
<path d="M127.274 117.571C129.989 117.571 132.191 113.95 132.191 109.484C132.191 105.018 129.989 101.398 127.274 101.398C124.559 101.398 122.357 105.018 122.357 109.484C122.357 113.95 124.559 117.571 127.274 117.571Z" fill="#683F93"/>
<path d="M70.0943 28.2429H53.0039C52.5795 28.2429 52.2354 28.8088 52.2354 29.5069V42.0681C52.2354 42.7662 52.5795 43.3322 53.0039 43.3322H70.0943C70.5188 43.3322 70.8629 42.7662 70.8629 42.0681V29.5069C70.8629 28.8088 70.5188 28.2429 70.0943 28.2429Z" fill="#683F93"/>
<path d="M69.6312 30.9177L69.2847 30.3478L68.722 31.2676L68.1627 30.3478L67.8162 30.9177L68.3754 31.8375L67.8162 32.763L68.1627 33.3329L68.722 32.4075L69.2847 33.3329L69.6312 32.763L69.0685 31.8375L69.6312 30.9177Z" fill="#683F93"/>
<path d="M53.951 47.4685H36.8606C36.4361 47.4685 36.092 48.0344 36.092 48.7325V61.2937C36.092 61.9918 36.4361 62.5577 36.8606 62.5577H53.951C54.3755 62.5577 54.7196 61.9918 54.7196 61.2937V48.7325C54.7196 48.0344 54.3755 47.4685 53.951 47.4685Z" fill="#683F93"/>
<path d="M53.4877 50.1432L53.1377 49.5732L52.5784 50.493L52.0192 49.5732L51.6726 50.1432L52.2319 51.063L51.6726 51.9828L52.0192 52.5584L52.5784 51.6386L53.1377 52.5584L53.4877 51.9828L52.925 51.063L53.4877 50.1432Z" fill="#683F93"/>
<path d="M77.8488 65.2098L70.0361 80.7562L77.3067 93.3343L78.9468 89.5422L75.2446 80.7562L80.1339 75.0794L77.8488 65.2098Z" fill="#BBB1EF"/>
<path d="M37.8213 63.0712L40.9367 59.4541L45.7163 58.286C45.5646 58.9029 45.2884 59.4151 44.934 59.7362C44.3161 60.026 43.6867 60.2447 43.0503 60.3908L43.6645 61.9821L43.0812 64.3014C42.9818 64.4544 42.8647 64.5728 42.7368 64.6494C42.6089 64.726 42.4729 64.7593 42.337 64.7472C42.201 64.735 42.068 64.6778 41.9459 64.5789C41.8238 64.48 41.7151 64.3414 41.6264 64.1716L40.3603 63.8556L38.8918 66.457L37.8213 63.0712Z" fill="#FFBA94"/>
<path d="M39.9691 64.2393L39.2828 61.3727L38.7407 61.999L39.9691 64.2393Z" fill="#FF9A83"/>
<path d="M41.6299 64.1659L42.6867 64.3522C42.6867 64.3522 42.8685 63.2574 41.7122 62.885L41.8323 61.0623L43.0538 60.3795L43.668 61.9708L43.0847 64.2901C43.0847 64.2901 42.2543 65.3284 41.6299 64.1659Z" fill="#FF9A83"/>
<path d="M41.8322 61.068L42.69 62.4279L42.3641 63.2913C42.3641 63.2913 41.942 63.043 41.7122 62.8907L41.8322 61.068Z" fill="#F48378"/>
<path d="M99.6741 63.3985L100.793 60.577C100.793 60.577 101.297 58.0434 102.165 57.4396L103.043 56.8414L104.337 55.9498C104.261 56.4651 104.109 56.9412 103.893 57.3353C103.677 57.7293 103.405 58.0289 103.102 58.207L104.653 57.9644L105.915 56.6778L107.082 57.7161L105.099 61.2824L102.405 62.5634L101.616 65.2268L99.6741 63.3985Z" fill="#FFBA94"/>
<path d="M100.539 61.2034L101.887 64.3408L101.626 65.2099L99.5745 63.3082L100.539 61.2034Z" fill="#FF9A83"/>
<path d="M24.4639 79.7348L38.8403 61.4291L40.2024 64.6061L29.8164 84.2943L24.4639 79.7348Z" fill="#BBB1EF"/>
<path d="M80.1338 64.1321C80.1338 64.1321 81.7773 61.0849 87.1161 63.2857L89.2194 64.4142L95.1689 73.6743L99.6774 62.7101L102.093 64.1998L97.0698 82.545L89.1782 76.05L88.4439 79.5656L89.7649 95.0216H76.8845C76.8845 95.0216 76.5242 68.8101 80.1338 64.1321Z" fill="#D4D4FF"/>
<path d="M18.1814 151.485H53.9543V106.426C53.9543 105.003 53.6105 103.638 52.9985 102.631C52.3866 101.625 51.5567 101.059 50.6913 101.059H21.4444C20.579 101.059 19.749 101.625 19.1371 102.631C18.5252 103.638 18.1814 105.003 18.1814 106.426V151.485Z" fill="#683F93"/>
<path d="M21.2797 101.059H46.8313C46.0123 101.059 45.2268 101.595 44.6477 102.547C44.0686 103.499 43.7433 104.791 43.7433 106.138V151.49H18.1814V106.155C18.1801 105.485 18.2593 104.822 18.4145 104.202C18.5697 103.583 18.7979 103.021 19.0859 102.547C19.3738 102.073 19.7159 101.698 20.0924 101.443C20.469 101.188 20.8725 101.057 21.2797 101.059Z" fill="#9556CC"/>
<path d="M25.2052 114.174L35.3922 116.707L35.224 146.389H31.4841L30.345 124.771H27.3942C27.3942 124.771 24.6699 122.48 24.2273 114.174H25.2052Z" fill="#313149"/>
<path d="M31.9163 146.389V151.468H39.3275C39.2986 150.668 39.1174 149.903 38.8095 149.283C38.5015 148.662 38.0825 148.216 37.6119 148.009C35.8964 147.1 35.0283 147.27 35.0283 147.27L34.7058 146.372L31.9163 146.389Z" fill="#2A2A3D"/>
<path d="M30.9316 114.174L41.1289 116.707L40.9608 146.389H37.2106L36.0783 124.771H21.1735C21.1735 124.771 18.4492 122.48 18.0066 114.174H30.9316Z" fill="#3B3B59"/>
<path d="M30.9316 114.174L18.5452 118.598C18.2924 117.151 18.1168 115.671 18.0203 114.174H30.9316Z" fill="#313149"/>
<path d="M36.0679 124.771L35.7351 121.16L35.2891 124.771H36.0679Z" fill="#313149"/>
<path d="M37.636 146.389V151.468H45.0472C45.0184 150.668 44.8371 149.903 44.5292 149.283C44.2213 148.662 43.8023 148.216 43.3316 148.009C41.6161 147.1 40.748 147.27 40.748 147.27L40.4255 146.372L37.636 146.389Z" fill="#313149"/>
<path d="M81.146 146.389V151.468H88.5744C88.5455 150.668 88.3643 149.903 88.0564 149.283C87.7484 148.662 87.3294 148.216 86.8588 148.009C85.1432 147.1 84.2752 147.27 84.2752 147.27L83.9526 146.372L81.146 146.389Z" fill="#2A2A3D"/>
<path d="M84.2236 146.389V151.468H91.6349C91.606 150.668 91.4248 149.903 91.1168 149.283C90.8089 148.662 90.3899 148.216 89.9193 148.009C88.2037 147.1 87.3357 147.27 87.3357 147.27L87.0131 146.372L84.2236 146.389Z" fill="#313149"/>
<path d="M47.4489 99.7503H33.4157C33.3613 99.7521 33.3073 99.7344 33.2575 99.6983C33.2078 99.6623 33.1633 99.6089 33.1274 99.5417C33.0915 99.4746 33.0649 99.3953 33.0495 99.3095C33.0341 99.2237 33.0302 99.1334 33.0382 99.045L34.1705 82.5337C34.186 82.3435 34.2421 82.1686 34.3289 82.0404C34.4157 81.9122 34.5274 81.839 34.644 81.834H48.6739C48.7279 81.8323 48.7815 81.8499 48.831 81.8856C48.8805 81.9213 48.9248 81.9743 48.9606 82.0408C48.9965 82.1073 49.0232 82.1858 49.0388 82.2709C49.0545 82.356 49.0587 82.4456 49.0513 82.5337L47.919 99.045C47.9037 99.2348 47.8482 99.4096 47.7622 99.5387C47.6762 99.6677 47.5653 99.7427 47.4489 99.7503Z" fill="#E3D9FF"/>
<path d="M46.4092 98.1703H34.0778C34.0297 98.1761 33.9814 98.1642 33.9365 98.1353C33.8916 98.1065 33.8513 98.0614 33.8183 98.0035C33.7854 97.9455 33.7608 97.8762 33.7463 97.8006C33.7319 97.725 33.7279 97.645 33.7347 97.5665L34.6851 83.6848C34.6988 83.5211 34.7474 83.3706 34.8221 83.2601C34.8968 83.1496 34.9929 83.0862 35.0934 83.081H47.4248C47.4729 83.0752 47.5212 83.0871 47.5661 83.116C47.611 83.1449 47.6514 83.1899 47.6843 83.2478C47.7172 83.3058 47.7418 83.3751 47.7563 83.4507C47.7708 83.5263 47.7748 83.6063 47.768 83.6848L46.8175 97.5665C46.8045 97.7307 46.7561 97.8818 46.6812 97.9925C46.6064 98.1032 46.5099 98.1663 46.4092 98.1703Z" fill="#F5F3FF"/>
<path d="M48.674 81.8566H48.0872C48.1413 81.8549 48.1949 81.8725 48.2444 81.9082C48.2939 81.9439 48.3381 81.9968 48.374 82.0634C48.4099 82.1299 48.4366 82.2084 48.4522 82.2935C48.4679 82.3786 48.4721 82.4682 48.4647 82.5563L47.3324 99.0675C47.3177 99.2587 47.2619 99.435 47.175 99.5643C47.0882 99.6937 46.976 99.7677 46.8589 99.7729H47.4353C47.5528 99.7679 47.6654 99.6941 47.7528 99.5648C47.8402 99.4355 47.8968 99.2592 47.9122 99.0675L49.0445 82.5563C49.0519 82.4692 49.0478 82.3805 49.0325 82.2962C49.0173 82.2119 48.9912 82.134 48.9561 82.0677C48.921 82.0013 48.8776 81.9482 48.8289 81.9118C48.7803 81.8754 48.7274 81.8565 48.674 81.8566Z" fill="#C2B3E2"/>
<path d="M33.035 99.1071C33.0311 99.1925 33.0382 99.2783 33.0557 99.359C33.0732 99.4397 33.1008 99.5135 33.1366 99.5757C33.1725 99.6378 33.2158 99.687 33.2639 99.72C33.312 99.753 33.3637 99.7691 33.4158 99.7673H47.4457C47.558 99.7616 47.6658 99.693 47.7512 99.573C47.8367 99.453 47.8947 99.2886 47.9157 99.1071H33.035Z" fill="#B9A4D8"/>
<path d="M47.7989 99.4513H30.832C30.8329 99.8849 30.9381 100.3 31.1245 100.607C31.3109 100.913 31.5634 101.086 31.8271 101.088H46.8005C47.0647 101.088 47.3181 100.916 47.5053 100.609C47.6924 100.302 47.798 99.8858 47.7989 99.4513Z" fill="#E3D9FF"/>
<path d="M36.044 99.4513V99.7165C36.044 99.8003 36.0238 99.8807 35.9877 99.94C35.9517 99.9992 35.9028 100.033 35.8519 100.033H31.5973C31.5463 100.033 31.4974 99.9992 31.4614 99.94C31.4254 99.8807 31.4051 99.8003 31.4051 99.7165V99.4513H25.9668V100.27C25.9668 100.378 25.9799 100.486 26.0053 100.586C26.0306 100.686 26.0678 100.778 26.1147 100.854C26.1616 100.931 26.2172 100.991 26.2784 101.032C26.3396 101.073 26.4051 101.094 26.4712 101.093H42.443C42.5747 101.092 42.7007 101.005 42.7938 100.852C42.8869 100.699 42.9397 100.492 42.9406 100.275V99.4569L36.044 99.4513Z" fill="#C2B3E2"/>
<path d="M14.7539 151.507H32.6781V130.132C32.6781 128.709 32.3343 127.344 31.7224 126.337C31.1105 125.331 30.2805 124.766 29.4151 124.766H18.0135C17.1481 124.766 16.3181 125.331 15.7062 126.337C15.0943 127.344 14.7505 128.709 14.7505 130.132L14.7539 151.507Z" fill="#683F93"/>
<path d="M17.8488 124.771H25.5516C24.7327 124.771 23.9472 125.306 23.3681 126.259C22.789 127.211 22.4636 128.503 22.4636 129.85V151.496H14.7539V129.861C14.753 129.192 14.8324 128.53 14.9877 127.911C15.1429 127.293 15.3708 126.732 15.6584 126.259C15.9459 125.786 16.2875 125.411 16.6634 125.156C17.0393 124.9 17.4421 124.77 17.8488 124.771Z" fill="#9556CC"/>
<path d="M31.8098 71.1971C31.8098 71.1971 33.2784 68.1217 32.5201 64.4989C31.7618 60.8761 29.36 61.1131 29.36 61.1131C29.36 61.1131 24.7863 58.6415 22.9507 63.4211C21.2351 67.8959 22.1512 75.1133 26.1588 77.5284C30.1663 79.9436 31.8098 71.1971 31.8098 71.1971Z" fill="#695C89"/>
<path d="M28.9894 73.1721C31.9299 71.1745 32.2009 66.1749 32.0534 63.0769C32.2541 63.506 32.4106 63.9864 32.5166 64.4989C33.2749 68.1217 31.8064 71.1971 31.8064 71.1971C31.8064 71.1971 30.1251 79.938 26.1553 77.5285C25.1881 76.9813 24.3225 76.035 23.6412 74.7803C22.96 73.5255 22.4859 72.0042 22.2644 70.3619C23.6128 72.4329 26.0832 75.1472 28.9894 73.1721Z" fill="#595075"/>
<path d="M28.588 71.8064C28.2655 69.5493 26.5293 70.1136 26.742 72.1281C26.9548 74.1426 27.792 74.5376 27.792 74.5376C28.1762 77.3309 26.1553 77.5284 26.1553 77.5284L25.126 79.3511L28.787 82.4773L29.5521 78.6626C29.5521 78.6626 31.3946 78.4143 32.2215 76.84C33.0484 75.2656 32.719 72.7432 32.719 72.7432C32.869 72.5788 32.994 72.3601 33.0844 72.1038C33.1748 71.8474 33.2283 71.5604 33.2406 71.2647C33.2406 70.1644 31.8235 68.8608 31.8235 68.8608C31.604 67.4482 31.1475 66.1654 30.506 65.1591C30.506 65.1591 31.0927 70.1079 28.588 71.8064Z" fill="#FFBA94"/>
<path d="M29.542 78.6627L28.0117 77.5284L29.1303 80.7111L29.542 78.6627Z" fill="#FF9A83"/>
<path d="M32.7088 72.7376L31.8098 68.8552C31.8098 68.8552 33.2234 70.1587 33.2269 71.2591C33.2149 71.5543 33.162 71.841 33.0722 72.0973C32.9824 72.3536 32.8581 72.5726 32.7088 72.7376Z" fill="#FF9A83"/>
<path d="M23.9835 79.842C15.8345 88.5209 18.0099 114.174 18.0099 114.174H30.9315L28.8728 96.5056L32.6745 85.8517L30.1389 82.3475L30.8251 79.526L24.2202 77.3873L23.9835 79.842Z" fill="#D4D4FF"/>
<path d="M38.6997 98.5088L39.729 97.7527C39.729 97.7527 40.8682 96.816 41.3451 96.8385C41.822 96.8611 42.8171 97.8543 42.8171 97.8543L43.5479 99.4343H40.9505L40.2849 100.066L38.6997 98.5088Z" fill="#FFBA94"/>
<path d="M32.678 85.8518L35.3886 101.511L39.3138 97.4932L40.7583 100.247L36.5517 107.126C36.2873 107.558 35.9676 107.888 35.6159 108.091C35.2642 108.294 34.8893 108.366 34.5186 108.301C34.1479 108.236 33.7907 108.036 33.4729 107.716C33.1551 107.396 32.8847 106.963 32.6814 106.449L28.7871 96.5791L32.678 85.8518Z" fill="#D4D4FF"/>
<path d="M40.9503 99.44L39.5161 97.9052L40.5317 99.8407L40.9503 99.44Z" fill="#FF9A83"/>
<path d="M28.9311 96.9627L27.1641 92.4766L29.5624 102.442L28.9311 96.9627Z" fill="#BBB1EF"/>
<path d="M35.3886 101.505L33.8687 103.514L35.121 99.9535L35.3886 101.505Z" fill="#BBB1EF"/>
<path d="M30.5231 110.731L30.9211 114.174H18.0098C17.7901 111.024 17.7053 107.852 17.7559 104.682C21.7532 113.44 28.1385 112.3 30.5231 110.731Z" fill="#BBB1EF"/>
<path d="M87.768 50.3915C87.768 50.3915 88.7974 46.8759 87.5965 43.62C86.3956 40.364 84.0693 41.3966 84.0693 41.3966C84.0693 41.3966 79.2657 40.5784 78.1025 45.911C76.9977 50.8881 78.8265 57.6201 83.0605 58.5964C87.2945 59.5726 87.768 50.3915 87.768 50.3915Z" fill="#FF9517"/>
<path d="M85.2668 53.3032C87.8813 50.3237 87.5039 45.3467 86.9618 42.3672C87.2128 42.7175 87.4272 43.1331 87.5965 43.5974C88.8043 46.8759 87.7681 50.3689 87.7681 50.3689C87.7681 50.3689 87.25 59.5161 83.0606 58.5568C82.0448 58.3602 81.0766 57.7381 80.2488 56.7501C79.421 55.7621 78.7612 54.4412 78.3325 52.9139C79.9143 54.46 82.6797 56.2488 85.2668 53.3032Z" fill="#FF7915"/>
<path d="M84.7007 52.107C84.0934 50.0022 82.4808 51.1816 82.9371 53.0663C83.3934 54.951 84.2718 55.0526 84.2718 55.0526C85.0095 57.6484 83.0606 58.5456 83.0606 58.5456L82.2749 60.6899L86.255 62.4674L86.5123 58.4722C86.5123 58.4722 88.2828 57.5863 88.8867 55.758C89.4905 53.9297 88.8455 51.5766 88.8455 51.5766C88.9707 51.3639 89.0646 51.1067 89.1199 50.825C89.1752 50.5432 89.1905 50.2444 89.1646 49.9514C89.017 48.8792 87.4696 48.0949 87.4696 48.0949C87.0735 46.7904 86.4624 45.6954 85.706 44.9348C85.706 44.9348 86.9275 49.5733 84.7007 52.107Z" fill="#FFBA94"/>
<path d="M86.5121 58.4778L84.8721 57.9022L86.3749 60.6221L86.5121 58.4778Z" fill="#FF9A83"/>
<path d="M88.8419 51.5822L87.4695 48.1005C87.4695 48.1005 89.0203 48.8792 89.1645 49.957C89.1899 50.2504 89.1741 50.5495 89.1182 50.8313C89.0623 51.1131 88.9678 51.37 88.8419 51.5822Z" fill="#FF9A83"/>
<path d="M80.6519 55.7354C80.6519 55.7354 75.1964 57.4677 76.0404 67.4558L75.2444 65.5879C75.2444 65.5879 75.1381 71.5864 77.9481 72.619C81.7224 74.0016 85.8843 65.2042 83.0948 56.8865L80.6519 55.7354Z" fill="#FF7915"/>
<path d="M89.1852 76.0274L86.6736 73.5614L88.7837 77.946L89.1852 76.0274Z" fill="#BBB1EF"/>
<path d="M76.8846 87.5391C76.8846 87.5391 84.4811 98.5485 89.2023 88.3291L89.7719 94.999H76.8846C76.8846 94.999 76.8091 88.5096 76.8846 87.5391Z" fill="#BBB1EF"/>
<path d="M36.7095 77.3704H41.3004C41.6068 77.3689 41.9004 77.1681 42.117 76.8118C42.3337 76.4555 42.4558 75.9727 42.4567 75.4688V71.925C42.4558 71.4211 42.3337 70.9383 42.117 70.5819C41.9004 70.2256 41.6068 70.0248 41.3004 70.0233H36.7644C36.4581 70.0248 36.1645 70.2256 35.9478 70.5819C35.7312 70.9383 35.6091 71.4211 35.6082 71.925V79.9041L36.7095 77.3704Z" fill="#683F93"/>
<path d="M81.9283 37.4861H77.3374C77.0311 37.4846 76.7375 37.2837 76.5208 36.9274C76.3042 36.5711 76.1821 36.0883 76.1812 35.5844V32.035C76.1821 31.5311 76.3042 31.0482 76.5208 30.6919C76.7375 30.3356 77.0311 30.1348 77.3374 30.1333H81.8802C82.1866 30.1348 82.4802 30.3356 82.6969 30.6919C82.9135 31.0482 83.0356 31.5311 83.0365 32.035V40.0141L81.9283 37.4861Z" fill="#683F93"/>
<path d="M121.04 7.34147H125.63C125.937 7.33998 126.23 7.13915 126.447 6.78284C126.664 6.42653 126.786 5.9437 126.787 5.4398V1.90167C126.786 1.39777 126.664 0.914939 126.447 0.558629C126.23 0.202318 125.937 0.00148863 125.63 0H121.091C120.785 0.00148863 120.491 0.202318 120.274 0.558629C120.058 0.914939 119.936 1.39777 119.935 1.90167V9.88079L121.04 7.34147Z" fill="#683F93"/>
<path d="M61.6332 73.2397H44.5427C44.1183 73.2397 43.7742 73.8057 43.7742 74.5038V87.065C43.7742 87.7631 44.1183 88.329 44.5427 88.329H61.6332C62.0576 88.329 62.4017 87.7631 62.4017 87.065V74.5038C62.4017 73.8057 62.0576 73.2397 61.6332 73.2397Z" fill="#683F93"/>
<path d="M61.17 75.9145L60.8235 75.3446L60.2608 76.2644L59.7015 75.3446L59.355 75.9145L59.9143 76.84L59.355 77.7598L59.7015 78.3297L60.2608 77.4099L60.8235 78.3297L61.17 77.7598L60.6108 76.84L61.17 75.9145Z" fill="#683F93"/>
<path d="M77.1729 94.9539C77.1729 94.9539 77.9071 101.161 79.458 104.547L80.6829 146.389H84.6973L86.0697 94.9595L77.1729 94.9539Z" fill="#313149"/>
<path d="M79.9177 94.9539C79.9177 94.9539 80.7103 101.161 82.3778 104.547L83.6336 146.395H87.6412L89.4837 94.9651L79.9177 94.9539Z" fill="#3B3B59"/>
<path d="M79.9177 94.9539L89.3773 97.9051L89.4837 94.9539H79.9177Z" fill="#313149"/>
<path d="M95.1655 73.6968L94.2734 75.7565L94.4793 72.6246L95.1655 73.6968Z" fill="#BBB1EF"/>
<path d="M126.183 38.1011C125.995 37.6613 125.754 37.2904 125.475 37.0116C125.195 36.7329 124.884 36.5524 124.56 36.4816C123.789 36.4121 123.021 36.6932 122.34 37.2941L121.554 40.4203L123.366 40.7589L125.109 38.1067L126.183 38.1011Z" fill="#C4876C"/>
<path d="M123.363 40.7534L126.183 38.1012H125.106L123.363 40.7534Z" fill="#2A272D"/>
<path d="M113.817 20.6363C113.817 20.6363 112.445 20.4331 112.201 18.3339C112.129 17.74 112.168 17.1242 112.312 16.5667C112.455 16.0092 112.698 15.5357 113.007 15.2077C112.829 14.7095 112.733 14.1429 112.729 13.5645C112.725 12.9862 112.814 12.4164 112.987 11.9123C113.577 10.0896 114.936 10.9191 114.936 10.9191C115.115 10.2321 115.425 9.65954 115.819 9.28796C116.213 8.91637 116.67 8.76596 117.121 8.85943C118.785 9.09079 119.008 10.6426 119.008 10.6426C119.008 10.6426 121.705 10.1968 122.625 14.0284C123.544 17.8599 122.625 23.3392 121.012 25.3538C119.399 27.3683 113.817 20.6363 113.817 20.6363Z" fill="#464666"/>
<path d="M117.828 9.06248C117.597 8.95375 117.361 8.88379 117.121 8.85369C116.872 8.81608 116.621 8.84273 116.377 8.93269L117.828 9.06248Z" fill="#824030"/>
<path d="M118.813 21.1046C114.967 22.1316 113.196 18.4073 112.476 16.0654C112.338 16.3905 112.243 16.7587 112.195 17.147C112.148 17.5354 112.15 17.9355 112.201 18.3226C112.452 20.4218 113.817 20.6249 113.817 20.6249C113.817 20.6249 119.417 27.3965 121.022 25.3537C122.343 23.6608 123.208 19.66 122.947 16.1388C122.494 18.2549 121.393 20.4161 118.813 21.1046Z" fill="#2E2E44"/>
<path d="M119.259 14.5419C118.916 18.3001 120.144 19.1183 120.144 19.1183C120.144 19.1183 120.268 17.3859 121.077 17.4254C122.124 17.4762 122.488 21.1328 120.58 22.7298L121.369 28.7959C121.369 28.7959 118.967 34.3147 117.574 29.8794L117.756 27.8423C117.251 28.1009 116.711 28.1069 116.204 27.8598C115.697 27.6127 115.246 27.1234 114.908 26.4541C113.309 23.5932 113.879 16.2178 113.879 16.2178C113.879 16.2178 114.153 17.606 115.402 17.448C115.746 17.4246 116.076 17.2287 116.35 16.8866C116.624 16.5446 116.827 16.0729 116.933 15.535C117.33 15.9057 117.794 16.0355 118.243 15.9018C118.657 15.6265 119.011 15.1526 119.259 14.5419Z" fill="#C4876C"/>
<path d="M115.944 19.186L116.185 23.0289C116.185 23.0289 114.579 23.0063 115.944 19.186Z" fill="#BF695E"/>
<path d="M115.332 21.8648C115.535 21.8314 115.678 21.4608 115.653 21.0369C115.627 20.6131 115.441 20.2965 115.239 20.3299C115.036 20.3632 114.892 20.7339 114.918 21.1577C114.944 21.5815 115.129 21.8981 115.332 21.8648Z" fill="#2D2D2D"/>
<path d="M118.032 20.7579C118.289 20.7155 118.476 20.3393 118.45 19.9176C118.424 19.4959 118.196 19.1883 117.939 19.2307C117.683 19.2731 117.496 19.6494 117.522 20.0711C117.547 20.4928 117.776 20.8003 118.032 20.7579Z" fill="#2D2D2D"/>
<path d="M117.756 27.8253L119.904 26.1381L117.574 29.8624L117.756 27.8253Z" fill="#BF695E"/>
<path d="M118.857 18.2944L117.142 18.5822C117.142 18.5822 117.825 16.184 118.857 18.2944Z" fill="#2E2E44"/>
<path d="M115.032 19.2142L113.948 19.3891C113.948 19.3891 114.328 17.053 115.032 19.2142Z" fill="#2E2E44"/>
<path d="M113.803 38.0503L114.016 36.4534L122.145 38.0503H113.803Z" fill="#BBB1EF"/>
<path d="M109.782 86.3596L104.495 77.0205L104.406 89.7736L105.963 88.7861L107.054 93.4302L109.315 91.9912L108.224 87.3471L109.782 86.3596Z" fill="#9556CC"/>
<path d="M104.495 77.0205L108.187 92.7135L109.316 91.9912L108.224 87.3471L109.782 86.3596L104.495 77.0205Z" fill="#7547A5"/>
</svg>
