<svg width="160" height="160" viewBox="0 0 160 160" fill="none" xmlns="http://www.w3.org/2000/svg">
<path d="M125.502 30.3141C125.147 29.9293 124.742 29.6457 124.322 29.4229C124.344 28.9469 124.25 28.1569 123.78 27.3366C123.136 26.2327 121.537 26.1112 120.38 26.9315C119.664 27.4278 119.432 28.4 119.36 29.0583C119.194 29.0988 119.092 29.1292 119.092 29.1292C115.222 31.2054 114.926 35.5704 114.926 35.5704C114.926 35.5704 127.939 42.1332 128.583 38.791C129.22 35.4489 127.787 32.7549 125.502 30.3141Z" fill="#77A986"/>
<path d="M115.244 40.9076C115.244 40.9076 113.529 39.6822 114.925 35.5703C114.925 35.5703 122.434 33.4131 126.138 37.6465C126.138 37.6465 127.245 39.9252 128.583 38.7909C128.583 38.7909 129.864 40.3405 129.401 41.8495C128.938 43.3585 129.285 44.746 129.285 44.746C129.285 44.746 130.97 45.7284 130.912 47.9261C130.855 50.1238 131.202 52.1291 132.895 53.3849C134.58 54.6509 135.658 53.4457 137.061 56.0283C138.457 58.6108 137.466 61.4162 137.061 62.4796C136.656 63.543 136.244 65.3356 136.569 67.8574C136.895 70.3792 134.884 76.2533 130.92 74.7038C126.948 73.1542 115.244 40.9076 115.244 40.9076Z" fill="#29292A"/>
<path d="M123.425 52.9799C123.425 52.9799 123.006 50.4479 123.158 46.7817C123.158 46.7817 127.563 42.2951 124.301 40.4215C124.301 40.4215 123.396 40.543 122.991 41.647C122.991 41.647 122.904 40.5836 122.145 40.4215C121.385 40.2595 121.53 38.3048 120.749 38.7099C119.96 39.115 119.41 40.0164 118.622 38.1833C117.833 36.3502 117.573 37.1199 117.023 37.2414C116.473 37.363 116.003 36.5932 116.032 37.5655C116.061 38.5479 115.801 40.3405 115.244 40.9076C115.244 40.9076 115.504 43.1864 115.475 45.1512C115.446 47.1058 115.215 48.4933 117.457 50.5695C117.457 50.5695 118.072 52.3216 118.007 54.499C118.007 54.499 119.056 56.2714 120.799 55.9878C122.543 55.7042 123.425 52.9799 123.425 52.9799Z" fill="#F4B89D"/>
<path d="M118.521 50.8734C118.166 50.8734 117.797 50.8328 117.436 50.7113C117.378 50.6911 117.349 50.6202 117.356 50.5391C117.371 50.4581 117.421 50.4176 117.479 50.4277C118.803 50.8632 120.329 50.2353 120.344 50.2252C120.394 50.2049 120.452 50.2454 120.474 50.3163C120.488 50.3872 120.459 50.4683 120.409 50.4986C120.351 50.529 119.512 50.8734 118.521 50.8734Z" fill="#DB9C83"/>
<path d="M156.079 139.622C154.958 145.446 153.338 152.809 151.03 159.422H8.77477C3.05997 149.223 -0.00722116 130.801 1.27664e-05 121.393C0.00724669 107.497 4.48505 93.7237 11.9649 84.5986C15.6181 80.1424 19.9078 76.78 23.5682 72.334C29.2902 65.3864 33.2399 56.079 36.9726 46.8527C40.7053 37.6263 44.3946 28.1772 49.7405 20.6726C55.0864 13.1679 62.4577 7.73949 70.0027 8.70162C79.3851 9.90681 86.8578 20.5612 91.3211 32.1878C95.7772 43.8144 98.0921 56.8386 102.396 68.5766C105.767 77.7624 111.352 86.8571 118.723 87.2926C124.322 87.6167 129.581 82.7857 135.18 83.0794C139.897 83.3225 144.216 87.2622 147.189 92.3969C150.162 97.5215 151.978 103.76 153.555 109.989C155.971 119.499 157.953 129.849 156.079 139.622Z" fill="#FCF3F0"/>
<path d="M24.1251 45.4752C23.9587 45.7487 23.9515 46.1538 24.1034 46.4374C25.8178 49.7086 35.5619 68.2018 38.781 70.7033C42.3184 73.4581 52.4097 45.9411 52.4097 45.9411C52.4097 45.9411 40.1338 34.669 31.7569 33.16C31.5688 33.1296 31.3735 33.2308 31.2505 33.4435L24.1251 45.4752Z" fill="#F9DA93"/>
<path d="M26.9825 32.7244L23.2064 39.0644L18.9529 34.1018C18.5839 33.6764 18.5333 32.9067 18.8444 32.3902L21.5065 27.9138C21.8103 27.3973 22.3601 27.3264 22.729 27.7619L26.9825 32.7244Z" fill="#E5C583"/>
<path d="M25.0656 43.956L23.8213 42.4976C22.8448 41.3532 22.7073 39.3175 23.5248 37.9503L26.2592 33.3523C27.0766 31.9851 28.5306 31.7927 29.5072 32.9371L30.7515 34.3955L25.0656 43.956Z" fill="#F9DA93"/>
<path d="M30.3031 17.614C30.0861 17.7963 29.9776 18.1609 30.0499 18.4951C30.8456 22.3233 35.4175 44.0067 37.7902 47.835C40.4017 52.0481 56.3308 31.3572 56.3308 31.3572C56.3308 31.3572 47.6935 15.1529 40.3076 9.81563C40.1412 9.6941 39.9387 9.70423 39.7723 9.83589L30.3031 17.614Z" fill="#F29E91"/>
<path d="M31.5402 16.6518L30.7589 14.7681C30.1151 13.2287 30.4913 11.2436 31.5908 10.3524L35.1571 7.44576C36.2567 6.54439 37.6745 7.07103 38.3111 8.61044L39.0924 10.4942L31.5402 16.6518Z" fill="#F29E91"/>
<path d="M36.0106 7.17229L30.9975 11.2639L28.2631 4.691C28.0244 4.11372 28.1618 3.36427 28.5741 3.03006L32.0826 0.163921C32.4949 -0.170294 33.0302 0.0221331 33.269 0.599412L36.0106 7.17229Z" fill="#E2847A"/>
<path d="M9.92507 129.505C9.92507 129.505 4.15963 93.5008 28.5524 77.8129C52.9452 62.1251 69.5977 74.8151 71.4062 77.8129C73.2219 80.8107 88.3842 103.193 79.1538 127.884C69.9233 152.576 56.4103 160.658 44.5394 159.959C32.6685 159.27 23.6044 151.887 26.2448 145.881C28.8852 139.875 35.8081 139.015 32.7553 133.019C29.7026 127.023 24.0168 134.174 22.7002 135.267C21.3836 136.371 12.8114 141.04 9.92507 129.505Z" fill="#DFDFF4"/>
<path d="M18.801 123.702C21.4178 123.702 23.5392 120.732 23.5392 117.068C23.5392 113.404 21.4178 110.434 18.801 110.434C16.1841 110.434 14.0627 113.404 14.0627 117.068C14.0627 120.732 16.1841 123.702 18.801 123.702Z" fill="#F29E91"/>
<path d="M41.8771 148.849C44.494 148.849 46.6154 145.879 46.6154 142.215C46.6154 138.551 44.494 135.581 41.8771 135.581C39.2603 135.581 37.1389 138.551 37.1389 142.215C37.1389 145.879 39.2603 148.849 41.8771 148.849Z" fill="#9D9DED"/>
<path d="M60.9096 138.934C63.5265 138.934 65.6478 135.964 65.6478 132.3C65.6478 128.636 63.5265 125.666 60.9096 125.666C58.2928 125.666 56.1714 128.636 56.1714 132.3C56.1714 135.964 58.2928 138.934 60.9096 138.934Z" fill="#F47FF4"/>
<path d="M27.3732 105.35C29.9901 105.35 32.1115 102.38 32.1115 98.7165C32.1115 95.0529 29.9901 92.0829 27.3732 92.0829C24.7564 92.0829 22.635 95.0529 22.635 98.7165C22.635 102.38 24.7564 105.35 27.3732 105.35Z" fill="#F9DA93"/>
<path d="M37.5876 92.083C40.2044 92.083 42.3258 89.113 42.3258 85.4493C42.3258 81.7857 40.2044 78.8157 37.5876 78.8157C34.9707 78.8157 32.8494 81.7857 32.8494 85.4493C32.8494 89.113 34.9707 92.083 37.5876 92.083Z" fill="#77A986"/>
<path d="M64.0276 44.7055H59.311L64.1144 3.68835H68.8309L64.0276 44.7055Z" fill="#E0A575"/>
<path d="M93.0716 143.41C93.0716 143.41 94.2508 140.503 94.5546 140.169C94.8584 139.835 90.2938 137.293 90.2938 137.293C90.2938 137.293 90.0045 139.481 89.5343 140.544C89.0713 141.607 91.1474 144.392 93.0716 143.41Z" fill="#F4B89D"/>
<path d="M114.455 147.248C114.455 147.248 114.065 143.957 114.151 143.42C114.238 142.883 109.551 144.939 109.551 144.939C109.551 144.939 110.31 146.894 110.426 148.13C110.542 149.375 113.399 149.699 114.455 147.248Z" fill="#F4B89D"/>
<path d="M73.6341 44.7055H78.3507L73.5473 3.68835H68.8308L73.6341 44.7055Z" fill="#E0A575"/>
<path d="M96.9563 19.842H40.7053V114.232H96.9563V19.842Z" fill="#F2C9A7"/>
<path d="M89.0424 114.242H48.6265V118.405H89.0424V114.242Z" fill="#EDB683"/>
<path d="M82.3654 15.6796H55.2888V19.8421H82.3654V15.6796Z" fill="#EDB683"/>
<path d="M117.132 159.047H114.122L116.35 109.411H119.36L117.132 159.047Z" fill="#E0A575"/>
<path d="M128.106 159.047H131.122L128.894 109.411H125.878L128.106 159.047Z" fill="#E0A575"/>
<path d="M128.504 137.293H116.741V141.516H128.504V137.293Z" fill="#E0A575"/>
<path d="M130.58 109.411H114.672C113.428 109.411 112.422 108.004 112.422 106.262C112.422 104.52 113.428 103.112 114.672 103.112H130.58C131.824 103.112 132.829 104.52 132.829 106.262C132.822 108.004 131.817 109.411 130.58 109.411Z" fill="#EDB683"/>
<path d="M87.0313 159.412H91.7479L86.9445 118.405H82.228L87.0313 159.412Z" fill="#E0A575"/>
<path d="M84.4633 67.0372C84.4633 67.0372 76.6868 63.7356 73.5907 75.7166C70.4946 87.6977 71.0154 83.5453 64.9027 87.4546C58.7901 91.3639 57.828 98.2204 62.0236 100.54C66.2193 102.859 69.3588 94.9187 75.5655 98.585C81.765 102.251 89.7151 100.418 89.3679 91.8602C89.0207 83.3023 87.0964 82.8769 88.9338 77.8941C90.7568 72.9113 86.9952 66.6726 84.4633 67.0372Z" fill="#F9DA93"/>
<path d="M71.9777 49.6782C71.9777 49.6782 67.6084 54.4484 61.8429 56.6461C56.0775 58.8438 49.9648 72.6681 51.1874 79.1498C52.4099 85.6316 61.1485 86.9785 63.2391 77.3167C65.3297 67.6549 64.8089 61.5378 67.348 58.1146C69.8798 54.6914 71.9777 49.6782 71.9777 49.6782Z" fill="#9D9DED"/>
<path d="M54.9418 46.3766C54.9418 46.3766 57.8426 46.012 61.5029 42.4673C65.1633 38.9226 72.6721 34.8816 76.347 36.1071C80.0146 37.3326 88.5 39.1657 89.4114 34.6386C90.3229 30.1115 88.3987 28.1569 85.1651 28.1569C81.9316 28.1569 76.0793 30.4255 72.7589 29.0481C69.4386 27.6707 59.8319 27.9138 56.3379 30.6078C52.8439 33.2916 46.4708 43.8042 54.9418 46.3766Z" fill="#F29E91"/>
<path d="M117.399 57.3854C117.399 57.3854 108.321 71.8174 107.048 76.466L110.057 83.0693C110.057 83.0693 114.426 77.3167 114.687 76.1014C114.687 76.1014 113.898 89.3687 114.122 94.5338L129.596 99.4964C129.596 99.4964 129.191 85.0239 129.625 82.9477L130.934 81.4387C131.795 80.4462 132.178 78.846 131.911 77.3269C130.869 71.3819 128.026 56.8487 124.908 55.684C124.908 55.684 124.648 52.8077 123.425 52.99C123.425 52.99 121.371 55.8663 118.007 54.5193C118.007 54.5092 118.043 56.3423 117.399 57.3854Z" fill="#77A986"/>
<path d="M113.29 93.0551L105.145 94.6553C104.176 94.8477 103.329 95.6883 102.881 96.9138L88.3044 136.756C88.3044 136.756 92.5001 141.405 95.9073 141.526L104.906 117.291L107.966 145.557C107.966 145.557 111.46 146.043 116.264 142.255L111.981 104.044C111.981 104.044 128.836 105.451 129.364 102.514C129.885 99.5774 130.153 96.5796 124.908 94.5338C119.664 92.4778 113.29 93.0551 113.29 93.0551Z" fill="#29292A"/>
<path d="M104.906 117.422C104.856 117.422 104.812 117.372 104.805 117.301L103.344 99.6888C103.177 97.6836 104.103 95.7897 105.499 95.2934L110.643 93.44C110.701 93.4198 110.751 93.4704 110.766 93.5413C110.78 93.6223 110.744 93.6932 110.693 93.7135L105.55 95.5669C104.255 96.0327 103.387 97.795 103.546 99.6585L105.008 117.271C105.015 117.352 104.971 117.422 104.921 117.433C104.914 117.422 104.906 117.422 104.906 117.422Z" fill="#363638"/>
<path d="M119.982 57.7702C119.172 57.7702 118.34 57.5677 117.595 57.0005C117.544 56.96 117.53 56.879 117.551 56.8081C117.58 56.7372 117.638 56.7169 117.689 56.7473C120.561 58.9248 124.814 55.5826 124.858 55.5421C124.908 55.5016 124.966 55.5219 124.995 55.5928C125.024 55.6637 125.009 55.7447 124.959 55.7852C124.944 55.7953 123.852 56.6663 122.412 57.2436C121.711 57.5272 120.857 57.7702 119.982 57.7702Z" fill="#598E66"/>
<path d="M114.687 76.233H114.68C114.622 76.2229 114.578 76.1621 114.586 76.0811C114.593 75.99 115.121 66.7231 116.119 63.1379C117.11 59.573 117.689 57.5981 117.689 57.5778C117.711 57.5069 117.768 57.4664 117.819 57.4968C117.87 57.5272 117.899 57.6082 117.877 57.6791C117.87 57.6993 117.298 59.6742 116.307 63.2392C115.316 66.7839 114.788 76.0102 114.788 76.1014C114.788 76.1723 114.745 76.233 114.687 76.233Z" fill="#598E66"/>
<path d="M126.789 77.7016C126.782 77.7016 126.782 77.7016 126.775 77.7016C125.711 77.4889 124.713 76.2534 124.67 76.2027C124.626 76.1521 124.626 76.0609 124.662 76.0002C124.698 75.9394 124.764 75.9394 124.807 75.99C124.814 76.0002 125.805 77.2155 126.804 77.4181C126.861 77.4282 126.898 77.4991 126.89 77.5801C126.883 77.651 126.84 77.7016 126.789 77.7016Z" fill="#598E66"/>
<path d="M129.017 83.9098C128.959 83.9098 128.916 83.8491 128.916 83.7681C128.807 80.0107 124.467 76.9724 124.424 76.942C124.373 76.9116 124.351 76.8205 124.38 76.7496C124.402 76.6787 124.467 76.6483 124.518 76.6888C124.698 76.8103 129.01 79.8284 129.126 83.7579C129.126 83.839 129.082 83.9098 129.017 83.9098C129.024 83.9098 129.024 83.9098 129.017 83.9098Z" fill="#598E66"/>
<path d="M120.626 101.927L95.9363 63.9583L91.1836 56.6562L94.8512 51.2683L99.7196 59.4717L123.064 98.7774C123.686 103.365 120.626 101.927 120.626 101.927Z" fill="#7D7DD8"/>
<path d="M94.8295 51.7949C94.8295 51.7949 94.3376 51.086 94.1133 49.6782C93.8963 48.2705 90.1853 40.8165 85.9897 40.9988C81.794 41.1811 77.7357 43.7535 74.1984 49.6782C74.1984 49.6782 73.7643 50.1643 74.6324 50.1036C75.5005 50.0428 78.1698 49.3339 79.6961 51.7949C81.2225 54.2559 85.2012 57.75 88.5649 56.3422C91.9287 54.9345 92.6232 57.6082 92.6232 57.6082L94.8295 51.7949Z" fill="#9D9DED"/>
<path d="M109.326 84.5479C109.326 84.5479 108.813 86.462 106.78 86.614C104.747 86.7659 101.275 75.3925 100.884 74.1974C100.494 73.0023 99.792 72.6073 99.7341 72.0199C99.6763 71.4325 99.8209 71.311 99.8209 71.311C99.8209 71.311 99.2278 70.5413 99.4158 70.0653C99.4158 70.0653 99.0324 69.4374 99.1699 68.9209C99.1699 68.9209 100.291 67.5536 100.993 68.5968C100.993 68.5968 101.253 69.3462 100.747 69.5387C100.747 69.5387 102.071 69.2348 101.593 70.3793C101.593 70.3793 102.7 70.278 102.158 71.3009C102.158 71.3009 102.772 71.5237 102.418 72.1617C102.418 72.1617 102.078 72.5365 101.572 72.6377L109.189 84.3555L109.326 84.5479Z" fill="#F4B89D"/>
<path d="M99.4159 70.197C99.387 70.197 99.3508 70.1768 99.3291 70.1362C99.3002 70.0755 99.3074 69.9843 99.3508 69.9337C99.3725 69.9134 99.9729 69.3362 100.74 69.3767C100.798 69.3767 100.841 69.4476 100.841 69.5286C100.841 69.6096 100.79 69.6704 100.733 69.6704C100.038 69.6299 99.4738 70.1666 99.4666 70.1768C99.4593 70.197 99.4376 70.197 99.4159 70.197Z" fill="#DB9C83"/>
<path d="M99.821 71.4427C99.7849 71.4427 99.7487 71.4123 99.7342 71.3718C99.7053 71.3009 99.7198 71.2199 99.7704 71.1794C99.8066 71.149 100.682 70.4502 101.564 70.2274C101.622 70.2172 101.673 70.2679 101.68 70.3388C101.687 70.4198 101.651 70.4907 101.601 70.5008C100.754 70.7135 99.8789 71.4123 99.8717 71.4224C99.8572 71.4427 99.8427 71.4427 99.821 71.4427Z" fill="#DB9C83"/>
<path d="M99.9224 72.4149C99.879 72.4149 99.8428 72.3845 99.8283 72.3237C99.8066 72.2528 99.8283 72.1718 99.8862 72.1414C99.9513 72.1009 101.485 71.2198 102.15 71.1388C102.208 71.1287 102.259 71.1894 102.259 71.2705C102.266 71.3515 102.223 71.4224 102.165 71.4224C101.536 71.5034 99.973 72.3946 99.9585 72.4048C99.9441 72.4149 99.9296 72.4149 99.9224 72.4149Z" fill="#DB9C83"/>
<path d="M101.788 73.1948C101.781 73.1948 101.781 73.1948 101.774 73.1948C101.622 73.1644 101.42 73.1037 101.376 72.891C101.34 72.6884 101.485 72.5163 101.499 72.496C101.543 72.4454 101.608 72.4555 101.644 72.5264C101.68 72.5872 101.673 72.6783 101.629 72.7289C101.608 72.7593 101.579 72.7998 101.579 72.8201C101.579 72.8201 101.615 72.8809 101.803 72.9112C101.861 72.9214 101.897 72.9923 101.89 73.0733C101.883 73.1442 101.839 73.1948 101.788 73.1948Z" fill="#DB9C83"/>
<path d="M127.093 84.4062C127.093 84.4062 122.868 88.4775 120.864 89.5004C118.853 90.5233 118.13 91.374 117.79 91.7791C117.457 92.1842 115.193 92.7615 114.564 92.5893C113.934 92.407 114.014 91.7487 114.014 91.7487C114.014 91.7487 113.341 91.6171 113.442 90.8676C113.442 90.8676 112.704 90.8069 112.842 89.9359C112.842 89.9359 112.082 89.784 112.321 89.1358C112.56 88.4775 113.941 88.9535 114.535 88.518C115.128 88.0825 116.097 87.4749 116.104 87.0191C116.112 86.5634 115.895 86.0063 115.569 86.1076L115.027 85.1961C115.027 85.1961 116.162 84.8214 116.886 85.6822C117.609 86.5431 119.222 85.1657 119.222 85.1657C119.222 85.1657 123.461 80.426 123.794 79.4031C123.787 79.4031 126.152 81.621 127.093 84.4062Z" fill="#F4B89D"/>
<path d="M114.564 90.1688C113.847 90.1688 112.972 90.0979 112.827 90.0878C112.77 90.0878 112.726 90.0169 112.733 89.9358C112.733 89.8548 112.784 89.7941 112.842 89.8042C113.45 89.8548 115.092 89.9561 115.403 89.8143C115.786 89.632 116.567 89.1459 116.575 89.1459C116.625 89.1155 116.683 89.1459 116.712 89.2168C116.734 89.2877 116.712 89.3687 116.661 89.4092C116.633 89.4295 115.866 89.9055 115.475 90.0878C115.316 90.1485 114.969 90.1688 114.564 90.1688Z" fill="#DB9C83"/>
<path d="M114.976 91.1816C114.361 91.1816 113.471 91.0196 113.421 91.0094C113.363 90.9993 113.327 90.9284 113.334 90.8474C113.341 90.7664 113.392 90.7157 113.45 90.7259C113.464 90.7259 114.839 90.9892 115.323 90.8677C115.808 90.7461 116.56 90.3309 116.567 90.3208C116.618 90.2904 116.676 90.3309 116.698 90.4018C116.719 90.4727 116.69 90.5537 116.64 90.5841C116.611 90.6043 115.859 91.0196 115.352 91.1411C115.258 91.1715 115.128 91.1816 114.976 91.1816Z" fill="#DB9C83"/>
<path d="M114.882 91.931C114.426 91.931 114.043 91.8905 114.007 91.8905C113.949 91.8803 113.905 91.8196 113.913 91.7385C113.92 91.6575 113.963 91.5967 114.021 91.6069C114.036 91.6069 115.533 91.7487 116.076 91.4853C116.387 91.3334 116.488 91.2625 116.524 91.2423C116.546 91.1916 116.596 91.1613 116.64 91.1815C116.683 91.2018 116.712 91.2625 116.712 91.3233C116.712 91.4246 116.712 91.4853 116.141 91.7588C115.851 91.9006 115.33 91.931 114.882 91.931Z" fill="#DB9C83"/>
<path d="M53.6323 159.412H48.9158L53.7191 118.405H58.4356L53.6323 159.412Z" fill="#E0A575"/>
<path d="M141.076 125.373H137.799L134.652 98.4127H137.929L141.076 125.373Z" fill="#F29E91"/>
<path d="M136.786 99.0812C136.786 99.0812 132.988 99.8104 133.162 95.2934C133.336 90.7663 134.645 88.9332 133.864 86.2393C133.864 86.2393 139.542 89.4194 139.586 95.5365C139.586 95.5365 139.759 98.2305 136.786 99.0812Z" fill="#F9D8D4"/>
<path d="M145.395 125.19H142.776L143.167 92.9033H145.793L145.395 125.19Z" fill="#9D9DED"/>
<path d="M150.215 102.751L147.479 102.38L145.827 126.303L148.563 126.673L150.215 102.751Z" fill="#F9DA93"/>
<path d="M140.721 83.5555C140.721 83.5555 140.606 88.751 143.167 93.5819H145.785C145.785 93.5819 147.84 89.7334 148.368 83.9808C148.361 83.9808 145.785 82.5731 140.721 83.5555Z" fill="#D5D5F7"/>
<path d="M147.391 103.568C147.391 103.568 146.256 99.8509 147.681 96.7923C149.106 93.7338 149.923 90.6347 149.923 89.865C149.923 89.865 152.383 95.4859 151.789 100.297C151.384 103.598 150.126 104.074 150.126 104.074L147.391 103.568Z" fill="#FFF3DC"/>
<path d="M136.779 105.269C135.94 105.269 135.383 104.884 135.347 104.854C135.296 104.813 135.275 104.732 135.303 104.662C135.332 104.591 135.39 104.56 135.441 104.601C135.455 104.611 136.671 105.441 138.183 104.601C138.233 104.57 138.291 104.611 138.313 104.682C138.335 104.753 138.306 104.834 138.255 104.864C137.712 105.168 137.206 105.269 136.779 105.269Z" fill="#DB7B71"/>
<path d="M144.715 98.6963C143.738 98.6963 143.102 98.3013 143.065 98.2709C143.015 98.2405 142.993 98.1494 143.015 98.0785C143.036 98.0076 143.102 97.9772 143.152 98.0076C143.159 98.0177 144.23 98.676 145.706 98.2608C145.764 98.2506 145.814 98.2912 145.829 98.3722C145.843 98.4532 145.807 98.5241 145.749 98.5443C145.373 98.6557 145.026 98.6963 144.715 98.6963Z" fill="#8080D8"/>
<path d="M149.019 107.578C148.144 107.578 147.167 107.102 147.124 107.082C147.073 107.052 147.044 106.971 147.058 106.9C147.08 106.829 147.138 106.788 147.189 106.809C147.203 106.819 148.498 107.447 149.402 107.254C149.46 107.244 149.511 107.295 149.518 107.376C149.525 107.457 149.489 107.528 149.431 107.538C149.301 107.568 149.163 107.578 149.019 107.578Z" fill="#E2BF79"/>
<path d="M149.106 159.047H136.396L135.086 120.42H150.415L149.106 159.047Z" fill="#EDB683"/>
<path d="M88.0008 54.9751C88.131 55.0359 88.3552 55.0764 88.6012 55.0764C87.9791 54.9143 87.6391 54.7928 88.0008 54.9751Z" fill="#E8E8F7"/>
<path d="M91.5165 44.7056C91.5165 44.7056 92.9632 47.1666 93.3683 49.182C92.2399 47.3084 90.5978 44.9486 89.3535 44.7056C89.3535 44.7056 90.9811 46.721 91.256 47.278C91.5237 47.835 87.7838 45.8095 86.3876 45.931C84.9915 46.0525 89.0642 46.8324 90.3156 48.5035C91.5671 50.1745 89.6429 48.4629 88.3046 48.3819C86.9663 48.3009 89.4982 48.7465 90.388 49.8504C91.2777 50.9544 91.1041 50.924 89.2956 50.3366C87.4872 49.7492 86.6553 49.3947 86.0982 48.9491C85.5412 48.5035 87.3208 50.4581 89.3824 51.5418C91.4513 52.6254 88.0442 53.071 87.2557 52.3419C86.4672 51.6127 87.2846 53.2432 89.3824 54.0129C91.0535 54.6307 89.5922 55.0966 88.6012 55.0865C89.1003 55.2181 89.7875 55.3802 90.4458 55.4409C91.9288 55.5827 87.3714 56.0891 86.5612 55.1979C85.7438 54.2965 85.8017 56.0891 90.0263 55.9676C90.0263 55.9676 90.8148 55.8967 91.4948 56.2208C92.182 56.5448 94.6777 51.5519 94.6777 51.5519C94.6777 51.5519 93.5781 46.964 91.5165 44.7056Z" fill="#E8E8F7"/>
<path d="M99.7342 59.4717C98.0487 61.7404 96.7393 63.1684 95.9436 63.9583L91.1909 56.6562L94.8585 51.2683L99.7342 59.4717Z" fill="#BDBDF4"/>
<path d="M127.194 84.5479C127.136 84.5479 127.093 84.5479 127.086 84.5479C127.042 84.5479 127.006 84.4972 126.992 84.4365C126.695 82.7856 123.346 79.0485 123.317 79.008C123.295 78.9776 123.281 78.9371 123.281 78.8966C123.281 78.8561 123.295 78.8156 123.324 78.7852C123.881 78.2079 124.496 76.4761 124.619 76.1014C122.941 72.6782 122.311 68.6372 122.073 65.8319C121.819 62.7834 121.964 60.5047 121.971 60.4844C121.978 60.4034 122.029 60.3528 122.08 60.3528C122.138 60.3629 122.174 60.4338 122.174 60.5047C122.167 60.5958 121.602 69.5184 124.821 76.0001C124.843 76.0406 124.843 76.0912 124.829 76.1419C124.8 76.2229 124.178 78.1168 123.541 78.8966C124.105 79.5346 126.789 82.6337 127.165 84.2542C127.165 84.2542 127.165 84.2542 127.172 84.2542C127.52 84.2542 128.959 84.1731 129.538 82.8565C129.567 82.7856 129.632 82.7654 129.675 82.8059C129.726 82.8464 129.74 82.9376 129.712 82.9983C129.082 84.4466 127.614 84.5479 127.194 84.5479Z" fill="#598E66"/>
<path d="M89.5415 140.544C89.5415 140.544 90.8436 142.803 93.0717 143.41C93.0717 143.41 93.1151 147.816 92.1096 148.97C92.1096 148.97 84.2897 146.773 81.9748 143.096C81.9748 143.096 81.5842 140.423 83.588 140.534C85.599 140.666 89.0641 140.919 89.5415 140.544Z" fill="#77A986"/>
<path d="M110.426 148.14C110.426 148.14 112.451 148.737 114.455 147.249C114.455 147.249 116.474 150.631 116.213 152.414C116.213 152.414 109.153 157.599 105.702 156.789C105.702 156.789 104.198 155.057 105.803 153.376C107.417 151.695 110.223 148.849 110.426 148.14Z" fill="#77A986"/>
<path d="M159.899 159.189H1.7795C1.72163 159.189 1.67822 159.128 1.67822 159.047C1.67822 158.966 1.72163 158.906 1.7795 158.906H159.899C159.957 158.906 160 158.966 160 159.047C160 159.128 159.957 159.189 159.899 159.189Z" fill="#E0A575"/>
</svg>
