<?xml version="1.0" encoding="UTF-8"?>
<svg id="Camada_1" xmlns="http://www.w3.org/2000/svg" version="1.1" viewBox="0 0 293 187">
  <!-- Generator: Adobe Illustrator 29.5.1, SVG Export Plug-In . SVG Version: 2.1.0 Build 141)  -->
  <defs>
    <style>
      .st0 {
        fill: #db9c83;
      }

      .st1 {
        fill: #dfdff4;
      }

      .st2 {
        fill: #f2c9a7;
      }

      .st3 {
        fill: #598e66;
      }

      .st4 {
        fill: #e0a575;
      }

      .st5 {
        fill: #29292a;
      }

      .st6 {
        fill: #e5c583;
      }

      .st7 {
        fill: #8080d8;
      }

      .st8 {
        fill: #db7b71;
      }

      .st9 {
        fill: #e8e8f7;
      }

      .st10 {
        fill: #f47ff4;
      }

      .st11 {
        fill: #e2847a;
      }

      .st12 {
        fill: #e2bf79;
      }

      .st13 {
        fill: #fcf3f0;
      }

      .st14 {
        fill: #77a986;
      }

      .st15 {
        fill: #edb683;
      }

      .st16 {
        fill: #fff;
      }

      .st17 {
        fill: #bdbdf4;
      }

      .st18 {
        fill: #f4b89d;
      }

      .st19 {
        fill: #7d7dd8;
      }

      .st20 {
        fill: #9d9ded;
      }

      .st21 {
        fill: #fff3dc;
      }

      .st22 {
        fill: #f9da93;
      }

      .st23 {
        fill: #f29e91;
      }

      .st24 {
        fill: #f9d8d4;
      }

      .st25 {
        fill: #363638;
      }

      .st26 {
        fill: #d5d5f7;
      }
    </style>
  </defs>
  <g id="Illustration">
    <g>
      <path class="st14" d="M217.1,37.9c-.6-.4-1.2-.8-1.9-1,0-.5-.1-1.4-.9-2.3-1-1.2-3.5-1.4-5.3-.5-1.1.6-1.5,1.6-1.6,2.4h-.4c-6.1,2.3-6.5,7.2-6.5,7.2,0,0,20.5,7.4,21.5,3.6,1-3.8-1.3-6.8-4.8-9.5h-.1Z"/>
      <path class="st5" d="M201,49.8s-2.7-1.4-.5-6c0,0,11.8-2.4,17.6,2.3,0,0,1.7,2.6,3.8,1.3,0,0,2,1.7,1.3,3.4s-.2,3.3-.2,3.3c0,0,2.6,1.1,2.6,3.6s.5,4.7,3.1,6.1c2.6,1.4,4.3,0,6.5,3,2.2,2.9.6,6,0,7.2s-1.3,3.2-.8,6-2.6,9.4-8.9,7.7c-6.2-1.7-24.6-37.9-24.6-37.9h0Z"/>
      <path class="st18" d="M213.9,63.4s-.7-2.8-.4-7c0,0,6.9-5,1.8-7.1,0,0-1.4,0-2.1,1.4,0,0-.1-1.2-1.3-1.4s-1-2.4-2.2-1.9-2.1,1.5-3.3-.6-1.6-1.2-2.5-1.1-1.6-.7-1.6.4-.4,3.1-1.2,3.8c0,0,.4,2.6.4,4.8s-.4,3.8,3.1,6.1c0,0,1,2,.9,4.4,0,0,1.6,2,4.4,1.7,2.7-.3,4.1-3.4,4.1-3.4h0Z"/>
      <path class="st0" d="M206.2,61c-.6,0-1.1,0-1.7-.2,0,0-.1,0-.1-.2,0,0,.1,0,.2,0,2.1.5,4.5-.2,4.5-.2,0,0,.2,0,.2,0,0,0,0,.2-.1.2,0,0-1.4.4-3,.4h0Z"/>
      <path class="st13" d="M265.2,160.6c-1.8,6.5-4.3,14.8-7.9,22.2H33.7c-9-11.4-13.8-32.1-13.8-42.7,0-15.6,7-31.1,18.8-41.3,5.7-5,12.5-8.8,18.2-13.8,9-7.8,15.2-18.2,21.1-28.6s11.7-21,20.1-29.4,20-14.5,31.8-13.4c14.7,1.4,26.5,13.3,33.5,26.4,7,13,10.6,27.7,17.4,40.8,5.3,10.3,14.1,20.5,25.7,21,8.8.4,17.1-5.1,25.9-4.7,7.4.3,14.2,4.7,18.9,10.5s7.5,12.8,10,19.7c3.8,10.7,6.9,22.3,4,33.3h-.1Z"/>
      <g>
        <path class="st22" d="M57.8,54.9c-.3.3-.3.8,0,1.1,2.7,3.7,18,24.4,23.1,27.2,5.6,3.1,21.4-27.8,21.4-27.8,0,0-19.3-12.7-32.5-14.3-.3,0-.6,0-.8.3,0,0-11.2,13.5-11.2,13.5Z"/>
        <path class="st6" d="M62.3,40.6l-5.9,7.1-6.7-5.6c-.6-.5-.7-1.3-.2-1.9l4.2-5c.5-.6,1.3-.7,1.9-.2,0,0,6.7,5.6,6.7,5.6Z"/>
        <path class="st16" d="M56.5,45.4h0l-6.6-5.4v-.2h.2l6.6,5.4v.2h-.1Z"/>
        <path class="st16" d="M57.2,43.4h0l-6-5v-.2h.2l6,5v.2h-.1Z"/>
        <path class="st16" d="M57.6,41.5h0l-5.3-4.5v-.2h.2l5.3,4.5v.2h-.1Z"/>
        <path class="st16" d="M60.1,41.1h0l-6.4-5.7v-.2h.2l6.4,5.7v.2h-.1Z"/>
        <path class="st16" d="M66,60.8s5.7-10.1,10.7-13.2c0,0,10.9,7.4,13.6,9.5s-8.6,18.1-10.4,17.9-10.4-12.1-13.9-14.2Z"/>
        <path class="st22" d="M59.3,53.2l-2-1.6c-1.5-1.3-1.8-3.6-.5-5.1l4.3-5.2c1.3-1.5,3.6-1.8,5.1-.5l2,1.6-8.9,10.7h0Z"/>
      </g>
      <g>
        <path class="st23" d="M67.5,23.7c-.3.2-.5.6-.4,1,1.3,4.3,8.4,28.6,12.2,32.9,4.1,4.7,29.1-18.5,29.1-18.5,0,0-13.6-18.2-25.2-24.2-.3-.1-.6-.1-.8,0l-14.9,8.7h0Z"/>
        <path class="st23" d="M69.5,22.6l-1.2-2.1c-1-1.7-.4-4,1.3-5l5.6-3.3c1.7-1,4-.4,5,1.3l1.2,2.1-11.9,6.9h0Z"/>
        <path class="st11" d="M76.5,11.9l-7.9,4.6-4.3-7.4c-.4-.6-.2-1.5.5-1.9l5.5-3.2c.6-.4,1.5-.2,1.9.5l4.3,7.4Z"/>
        <path class="st16" d="M69.6,14.4h0l-4.3-7.2v-.2h.2l4.3,7.2v.2h0Z"/>
        <path class="st16" d="M70.9,12.8h0l-3.9-6.6v-.2h.2l3.9,6.6v.2h0Z"/>
        <path class="st16" d="M71.9,11.2h0l-3.3-6v-.2h.2l3.3,6v.2h0Z"/>
        <path class="st16" d="M74.4,11.7h0l-4-7.5v-.2h.2l4,7.5v.2h0Z"/>
        <path class="st16" d="M73.2,31.9s8.7-7.5,14.3-8.6c0,0,7.6,10.5,9.4,13.3s-14.1,13.9-15.6,13.1c-1.6-.8-5.5-14.7-8.1-17.8Z"/>
      </g>
      <g>
        <path class="st1" d="M35.5,149.2s-9.1-40.4,29.3-58c38.4-17.6,64.5-3.4,67.3,0,2.9,3.4,26.7,28.5,12.2,56.2s-35.7,36.8-54.4,36-32.9-9.1-28.7-15.8,15-7.7,10.2-14.4c-4.8-6.7-13.7,1.3-15.8,2.5s-15.5,6.5-20.1-6.5Z"/>
        <path class="st16" d="M33.5,147.4s-9.1-40.4,29.3-58c38.3-17.6,64.5-3.4,67.3,0,2.9,3.4,26.7,28.5,12.2,56.2s-35.7,36.8-54.4,36-32.9-9.1-28.7-15.8,15-7.7,10.2-14.4c-4.8-6.7-13.7,1.3-15.8,2.5s-15.6,6.5-20.1-6.5Z"/>
        <circle class="st23" cx="49.5" cy="135.3" r="7.4"/>
        <circle class="st20" cx="85.7" cy="163.5" r="7.4"/>
        <circle class="st10" cx="115.6" cy="152.4" r="7.4"/>
        <circle class="st22" cx="62.9" cy="114.7" r="7.4"/>
        <circle class="st14" cx="79" cy="99.8" r="7.4"/>
      </g>
      <polygon class="st4" points="120.5 54.1 113.1 54.1 120.7 8 128.1 8 120.5 54.1"/>
      <path class="st18" d="M166.2,164.9s1.9-3.3,2.3-3.6-6.7-3.2-6.7-3.2c0,0-.5,2.5-1.2,3.6-.7,1.2,2.5,4.3,5.6,3.2h0Z"/>
      <path class="st18" d="M199.8,169.2s-.6-3.7-.5-4.3-7.2,1.7-7.2,1.7c0,0,1.2,2.2,1.4,3.6.2,1.4,4.7,1.8,6.3-1Z"/>
      <polygon class="st4" points="135.6 54.1 143 54.1 135.5 8 128.1 8 135.6 54.1"/>
      <rect class="st2" x="83.9" y="26.2" width="88.4" height="105.9"/>
      <rect class="st16" x="87.2" y="30.2" width="81.7" height="97.9"/>
      <rect class="st15" x="96.3" y="132.1" width="63.5" height="4.7"/>
      <rect class="st15" x="106.8" y="21.5" width="42.5" height="4.7"/>
      <polygon class="st4" points="204 182.4 199.3 182.4 202.8 126.7 207.5 126.7 204 182.4"/>
      <polygon class="st4" points="221.2 182.4 226 182.4 222.5 126.7 217.7 126.7 221.2 182.4"/>
      <rect class="st4" x="203.4" y="158" width="18.5" height="4.7"/>
      <path class="st15" d="M225.1,126.7h-25c-2,0-3.5-1.6-3.5-3.5h0c0-2,1.6-3.5,3.5-3.5h25c2,0,3.5,1.6,3.5,3.5h0c0,2-1.6,3.5-3.5,3.5Z"/>
      <polygon class="st4" points="156.7 182.8 164.1 182.8 156.6 136.8 149.1 136.8 156.7 182.8"/>
      <path class="st22" d="M152.7,79.1s-12.2-3.7-17.1,9.7c-4.9,13.4-4,8.8-13.7,13.2s-11.1,12.1-4.5,14.7,11.5-6.3,21.3-2.2c9.7,4.1,22.2,2.1,21.7-7.5s-3.6-10.1-.7-15.7c2.9-5.6-3-12.6-7-12.2Z"/>
      <path class="st20" d="M133,59.6s-6.9,5.4-15.9,7.8c-9.1,2.5-18.7,18-16.7,25.3,1.9,7.3,15.7,8.8,18.9-2.1s2.5-17.7,6.5-21.6c4-3.8,7.3-9.5,7.3-9.5h0Z"/>
      <path class="st23" d="M106.3,55.9s4.6-.4,10.3-4.4,17.6-8.5,23.3-7.1c5.8,1.4,19.1,3.4,20.5-1.6s-1.6-7.3-6.7-7.3-14.3,2.5-19.5,1-20.3-1.3-25.8,1.8c-5.5,3-15.5,14.8-2.2,17.7h0Z"/>
      <path class="st14" d="M204.4,68.3s-14.3,16.2-16.3,21.4l4.7,7.4s6.9-6.5,7.3-7.8c0,0-1.2,14.9-.9,20.7l24.3,5.6s-.6-16.2,0-18.6l2.1-1.7c1.4-1.1,2-2.9,1.5-4.6-1.6-6.7-6.1-23-11-24.3,0,0-.4-3.2-2.3-3,0,0-3.2,3.2-8.5,1.7,0,0,0,2-1,3.2h0Z"/>
      <path class="st5" d="M198,108.3l-12.8,1.8c-1.5.2-2.9,1.2-3.6,2.5l-22.9,44.7s6.6,5.2,11.9,5.4l14.1-27.2,4.8,31.7s5.5.5,13-3.7l-6.7-42.9s26.5,1.6,27.3-1.7c.8-3.3,1.2-6.7-7-9s-18.3-1.7-18.3-1.7h.2Z"/>
      <path class="st25" d="M184.8,135.7s-.1,0-.2-.1l-2.3-19.8c-.3-2.3,1.2-4.4,3.4-4.9l8.1-2.1s.2,0,.2,0c0,0,0,.2-.1.2l-8.1,2.1c-2,.5-3.4,2.5-3.1,4.6l2.3,19.8s0,.2-.1.2h0Z"/>
      <path class="st3" d="M208.5,68.7c-1.3,0-2.6-.2-3.8-.9,0,0-.1,0,0-.2,0,0,.1,0,.2,0,4.5,2.4,11.2-1.3,11.3-1.4h.2v.2s-1.7,1-4,1.6c-1.1.3-2.4.6-3.8.6h0Z"/>
      <path class="st3" d="M200.1,89.5h0s-.2,0-.1-.2c0,0,.8-10.5,2.4-14.5,1.6-4,2.5-6.2,2.5-6.2,0,0,.1,0,.2,0,0,0,.1,0,0,.2,0,0-.9,2.2-2.5,6.2s-2.4,14.3-2.4,14.4,0,0-.2,0h.1Z"/>
      <path class="st3" d="M219.2,91.1h0c-1.7-.2-3.2-1.6-3.3-1.7s0-.2,0-.2h.2s1.6,1.4,3.1,1.6c0,0,.1,0,.1.2,0,0,0,0-.2,0h0Z"/>
      <path class="st3" d="M222.7,98.1s-.2,0-.2-.2c-.2-4.2-7-7.6-7.1-7.7,0,0-.1,0,0-.2,0,0,.1,0,.2,0,.3,0,7.1,3.5,7.2,7.9,0,0,0,.2-.2.2s-.1,0,0,0h.1Z"/>
      <path class="st19" d="M209.5,118.3l-38.8-42.6-7.5-8.2,5.8-6,7.7,9.2,36.7,44.1c1,5.1-3.8,3.5-3.8,3.5h0Z"/>
      <path class="st20" d="M168.9,62s-.8-.8-1.1-2.4c-.3-1.6-6.2-9.9-12.8-9.7s-13,3.1-18.5,9.7c0,0-.7.5.7.5s5.6-.9,8,1.9,8.7,6.7,13.9,5.1c5.3-1.6,6.4,1.4,6.4,1.4l3.5-6.5h0Z"/>
      <path class="st18" d="M191.7,98.8s-.8,2.1-4,2.3-8.7-12.6-9.3-13.9-1.7-1.8-1.8-2.4.1-.8.1-.8c0,0-.9-.9-.6-1.4,0,0-.6-.7-.4-1.3,0,0,1.8-1.5,2.9-.4,0,0,.4.8-.4,1.1,0,0,2.1-.3,1.3.9,0,0,1.7,0,.9,1,0,0,1,.3.4,1,0,0-.5.4-1.3.5l12,13.2.2.2h0Z"/>
      <path class="st0" d="M176.1,82.7h-.1v-.2s1-.7,2.2-.6c0,0,.2,0,.2.2s0,.2-.2.2c-1.1,0-2,.6-2,.6h0v-.2Z"/>
      <path class="st0" d="M176.8,84.1h-.1v-.2s1.4-.8,2.8-1.1c0,0,.2,0,.2,0,0,0,0,.2-.1.2-1.3.2-2.7,1-2.7,1h0Z"/>
      <path class="st0" d="M176.9,85.2s-.1,0-.1,0v-.2c.1,0,2.5-1,3.6-1.1,0,0,.2,0,.2,0,0,0,0,.2-.1.2-1,0-3.4,1.1-3.5,1.1h0Z"/>
      <path class="st0" d="M179.9,86h0c-.2,0-.6,0-.6-.3s.2-.4.2-.4h.2v.2h0q0,0,.4.2s.1,0,.1.2c0,0,0,0-.2,0h0Z"/>
      <path class="st18" d="M219.6,98.6s-6.6,4.6-9.8,5.7-4.3,2.1-4.8,2.6-4.1,1.1-5.1.9-.9-.9-.9-.9c0,0-1.1,0-.9-1,0,0-1.2,0-.9-1,0,0-1.2-.2-.8-.9.4-.7,2.5-.2,3.5-.7s2.5-1.2,2.5-1.7-.3-1.1-.8-1l-.9-1s1.8-.4,2.9.5,3.7-.6,3.7-.6c0,0,6.7-5.3,7.2-6.5,0,0,3.7,2.5,5.2,5.6h0Z"/>
      <path class="st0" d="M200,105.1h-2.7s-.2,0-.1-.2c0,0,0-.2.2,0,1,0,3.5.2,4,0,.6-.2,1.8-.8,1.8-.8h.2v.2s-1.3.6-1.9.8h-1.5Z"/>
      <path class="st0" d="M200.6,106.2c-1,0-2.4-.2-2.4-.2,0,0-.1,0-.1-.2,0,0,0,0,.2,0,0,0,2.2.3,2.9.2.8,0,1.9-.6,2-.6h.2v.2s-1.2.5-2,.6h-.8Z"/>
      <path class="st0" d="M200.5,107.1h-1.4s-.2,0-.1-.2,0-.2.2,0c0,0,2.4.2,3.2,0,.5-.2.6-.3.7-.3h.2s.1,0,.1.2,0,.2-.9.5c-.5.2-1.3.2-2,.2v-.2Z"/>
      <polygon class="st4" points="104.2 182.8 96.8 182.8 104.3 136.8 111.8 136.8 104.2 182.8"/>
      <g>
        <polygon class="st23" points="241.6 144.6 236.5 144.6 231.5 114.3 236.7 114.3 241.6 144.6"/>
        <path class="st24" d="M234.9,115.1s-6,.8-5.7-4.3c.3-5.1,2.3-7.1,1.1-10.2,0,0,8.9,3.6,9,10.4,0,0,.3,3-4.4,4h0Z"/>
        <polygon class="st20" points="248.4 144.4 244.3 144.4 244.9 108.2 249 108.2 248.4 144.4"/>
        <rect class="st22" x="239" y="130.2" width="27" height="4.3" transform="translate(96.5 371) rotate(-84.5)"/>
        <path class="st26" d="M241.1,97.7s-.2,5.8,3.8,11.3h4.1s3.2-4.3,4.1-10.8c0,0-4.1-1.6-12-.5h0Z"/>
        <path class="st16" d="M245.7,109c-1.2-2.3-1.2-5.8-1.2-5.9h.3s0,3.5,1.1,5.8h-.3,0Z"/>
        <path class="st16" d="M235.2,115.2l-.2-.2s3-2.7,2-5.3h.3c1,2.7-2,5.4-2.1,5.6h0Z"/>
        <path class="st16" d="M233.4,115.3c-3.2-3-2.5-6.1-2.5-6.2h.3-.2.2s-.7,3.1,2.4,6l-.2.2Z"/>
        <path class="st16" d="M234.4,115.1h-.3c1.8-4.3-1.5-9.9-1.5-10l.3-.2c.2.2,3.5,5.9,1.6,10.2h-.1Z"/>
        <path class="st16" d="M247.8,109.1l-.2-.3c1-.6,1.6-4,1.7-5.3h.3c0,.2-.6,4.7-1.9,5.6h0Z"/>
        <path class="st16" d="M246.9,108.9c-.5-1.1-.4-3.3-.4-3.4h.3s-.1,2.2.4,3.3h-.3Z"/>
        <path class="st21" d="M251.5,120.1s-1.8-4.2.5-7.6,3.5-6.9,3.5-7.8c0,0,3.9,6.3,2.9,11.7-.6,3.7-2.6,4.2-2.6,4.2l-4.3-.6h0Z"/>
        <path class="st16" d="M252.2,120.3c-.8-2.2.1-5.6.2-5.8h.3c0,0-1,3.5-.2,5.6h-.3v.2Z"/>
        <path class="st16" d="M255.2,120.7l-.2-.3c1.3-1.1,1.5-5.3,1.5-5.4h.3c0,.2-.1,4.4-1.6,5.6h0Z"/>
        <path class="st16" d="M253.7,120.5c-.6-2.6.8-7.6.9-7.8h.3c0,0-1.5,5.2-.9,7.7h-.3,0Z"/>
        <path class="st8" d="M234.9,122c-1.3,0-2.2-.4-2.3-.5,0,0-.1,0,0-.2,0,0,.1,0,.2,0,0,0,1.9.9,4.3,0h.2v.2c-.9.3-1.6.5-2.3.5h0Z"/>
        <path class="st7" d="M247.3,114.7c-1.5,0-2.5-.4-2.6-.5,0,0-.1,0,0-.2,0,0,.1,0,.2,0,0,0,1.7.8,4,.3,0,0,.2,0,.2,0,0,0,0,.2-.1.2-.6,0-1.1.2-1.6.2h0Z"/>
        <path class="st12" d="M254.1,124.6c-1.4,0-2.9-.5-3-.6,0,0-.1,0-.1-.2,0,0,.1,0,.2,0,0,0,2.1.7,3.5.5,0,0,.2,0,.2,0,0,0,0,.2-.1.2h-.7Z"/>
        <polygon class="st15" points="254.2 182.4 234.3 182.4 232.2 139 256.3 139 254.2 182.4"/>
        <rect class="st16" x="232.4" y="142.7" width="21.3" height=".3"/>
      </g>
      <g>
        <path class="st9" d="M158.2,65.6c.2,0,.6,0,.9,0-1-.2-1.5-.3-.9,0Z"/>
        <path class="st9" d="M163.7,54.1s2.3,2.8,2.9,5c-1.8-2.1-4.4-4.8-6.3-5,0,0,2.6,2.3,3,2.9.4.6-5.5-1.6-7.7-1.5s4.2,1,6.2,2.9-1.1,0-3.2,0,1.9.4,3.3,1.6,1.1,1.2-1.7.5-4.1-1.1-5-1.6,1.9,1.7,5.2,2.9-2.1,1.7-3.3.9,0,1,3.3,1.9c2.6.7.3,1.2-1.2,1.2.8,0,1.9.3,2.9.4,2.3.2-4.8.7-6.1-.3s-1.2,1,5.4.9c0,0,1.2,0,2.3.3,1.1.4,5-5.2,5-5.2,0,0-1.7-5.1-5-7.7h0Z"/>
      </g>
      <path class="st17" d="M176.6,70.6c-2.6,2.5-4.7,4.1-6,5l-7.5-8.2,5.8-6,7.7,9.2Z"/>
      <path class="st3" d="M219.8,98.8h-.2s-.1,0-.1,0c-.5-1.9-5.7-6-5.8-6.1h0v-.2c.9-.6,1.8-2.6,2-3-2.6-3.8-3.6-8.4-4-11.5-.4-3.4-.2-6-.2-6,0,0,0,0,.2,0,0,0,.1,0,.1.2s-.9,10.1,4.2,17.4v.2s-1,2.2-2,3.1c.9.7,5.1,4.2,5.7,6h0c.5,0,2.8,0,3.7-1.6,0,0,.1,0,.2,0,0,0,.1,0,0,.2-1,1.6-3.3,1.7-4,1.7l.2-.2Z"/>
      <path class="st16" d="M69.5,22.7h0v-.2l10.5-6.1h.2v.2l-10.5,6.1h0Z"/>
      <path class="st16" d="M59.3,53.4h0v-.2l7.7-9.2h.2v.2l-7.7,9.2h0Z"/>
      <path class="st14" d="M160.6,161.6s2,2.5,5.5,3.2c0,0,0,4.9-1.5,6.2,0,0-12.3-2.5-15.9-6.6,0,0-.6-3,2.5-2.9,3.2.1,8.6.4,9.4,0h0Z"/>
      <path class="st14" d="M193.4,170.2s3.2.7,6.3-1c0,0,3.2,3.8,2.8,5.8,0,0-11.1,5.8-16.5,4.9,0,0-2.4-1.9.2-3.8,2.5-1.9,6.9-5.1,7.3-5.9h-.1Z"/>
      <path class="st4" d="M271.2,182.6H22.7s-.2,0-.2-.2,0-.2.2-.2h248.5s.2,0,.2.2,0,.2-.2.2Z"/>
    </g>
  </g>
</svg>