<svg width="282" height="108" viewBox="0 0 282 108" fill="none" xmlns="http://www.w3.org/2000/svg">
<g clip-path="url(#clip0_2037_7)">
<path d="M280.132 25.2354C278.918 23.8555 277.439 22.8136 275.728 22.1319C274.059 21.4719 271.801 20.7793 269.016 20.0812C266.551 19.4648 264.579 18.8812 263.155 18.3358C261.775 17.8122 260.603 17.0486 259.671 16.0723C258.778 15.1287 258.324 13.8361 258.324 12.2325C258.324 10.0726 259.158 8.36 260.88 7.00189C262.603 5.63832 265.204 4.94565 268.599 4.94565C270.321 4.94565 272.099 5.21836 273.875 5.75288C275.651 6.28739 277.298 7.08372 278.773 8.11457C278.869 8.18546 278.988 8.20183 279.102 8.17456C279.215 8.14182 279.308 8.06002 279.362 7.95094L280.392 5.69833C280.473 5.51835 280.418 5.31109 280.261 5.19655C278.751 4.11661 276.946 3.24393 274.893 2.61122C272.841 1.97854 270.722 1.65674 268.599 1.65674C265.56 1.65674 262.981 2.13127 260.934 3.0694C258.864 4.01298 257.306 5.31109 256.291 6.93099C255.279 8.55091 254.764 10.3508 254.764 12.287C254.764 14.6869 255.392 16.6341 256.622 18.074C257.836 19.4921 259.325 20.5557 261.058 21.2374C262.75 21.9029 265.014 22.5902 267.802 23.2883C270.229 23.8663 272.185 24.4391 273.605 24.9791C274.985 25.5026 276.157 26.2663 277.087 27.2426C277.982 28.1862 278.436 29.4788 278.436 31.0823C278.436 33.204 277.586 34.8731 275.835 36.1984C274.075 37.5293 271.4 38.2056 267.894 38.2056C265.462 38.2056 263.118 37.7638 260.919 36.8857C258.729 36.013 256.963 34.8731 255.668 33.4931C255.582 33.4004 255.457 33.3513 255.339 33.3676C255.214 33.3786 255.106 33.455 255.04 33.5587L253.794 35.6476C253.702 35.8003 253.724 36.002 253.843 36.133C255.29 37.7092 257.315 39.0129 259.873 40C262.413 40.9818 265.133 41.4835 267.949 41.4835C270.988 41.4835 273.593 41.0091 275.694 40.0764C277.819 39.1328 279.417 37.8457 280.445 36.242C281.481 34.644 282 32.8496 282 30.9078C282 28.5461 281.372 26.6317 280.138 25.2244L280.132 25.2354Z" fill="#1E1E1E"/>
<path d="M21.8194 55.5669L0 106.209H17.1174L20.4705 97.3845H39.4404L42.7935 106.209H60.1927L38.3733 55.5669H21.8301H21.8194ZM25.1019 85.0851L29.9502 72.3495L34.7982 85.0851H25.1019Z" fill="#1E1E1E"/>
<path d="M114.384 84.1488C115.998 81.4488 116.811 78.2909 116.811 74.6694C116.811 70.8132 115.885 67.4369 114.032 64.5407C112.18 61.6446 109.541 59.4302 106.118 57.8865C102.694 56.3431 98.6751 55.574 94.0653 55.574H70.0305V106.217H86.8608V93.481H91.4273L99.9157 106.217H117.889L107.407 90.5901C110.451 88.9976 112.781 86.8541 114.395 84.1488H114.384ZM98.1226 79.0436C96.9795 80.08 95.2679 80.598 92.9873 80.598H86.8553V68.735H92.9873C95.2679 68.735 96.9795 69.2533 98.1226 70.2895C99.2655 71.3259 99.8344 72.7876 99.8344 74.6694C99.8344 76.5509 99.2655 78.0073 98.1226 79.0436Z" fill="#1E1E1E"/>
<path d="M125.791 68.8042H140.411V106.209H157.241V68.8042H171.862V55.5669H125.791V68.8042Z" fill="#1E1E1E"/>
<path d="M199.889 86.6778H220.998V74.3785H199.889V68.4442H223.918V55.5669H183.345V106.209H224.85V93.3319H199.889V86.6778Z" fill="#1E1E1E"/>
<path d="M277.445 81.6079C275.522 79.4862 273.248 77.9536 270.636 77.0153C268.02 76.0773 264.814 75.2428 261.011 74.5174C258.063 73.9393 255.946 73.3938 254.662 72.8921C253.379 72.3847 252.739 71.6267 252.739 70.6121C252.739 68.4904 254.901 67.4269 259.229 67.4269C263.557 67.4269 268.237 68.6813 273.135 71.1902L278.199 58.8201C275.681 57.3747 272.765 56.2784 269.461 55.5257C266.157 54.7785 262.793 54.4021 259.37 54.4021C254.376 54.4021 250.134 55.1495 246.64 56.6438C243.147 58.1383 240.519 60.1891 238.758 62.7908C236.998 65.3979 236.12 68.2887 236.12 71.474C236.12 75.1391 237.074 78.0462 238.976 80.1898C240.877 82.3388 243.108 83.8769 245.675 84.8204C248.242 85.7639 251.45 86.6421 255.302 87.4603C258.296 88.0875 260.447 88.6656 261.753 89.1948C263.059 89.7238 263.713 90.5201 263.713 91.5838C263.713 92.5 263.216 93.1873 262.219 93.6454C261.222 94.1035 259.554 94.3326 257.225 94.3326C254.517 94.3326 251.683 93.9126 248.736 93.0673C245.789 92.2219 243.123 91.1036 240.752 89.702L235.329 102.143C237.848 103.736 241.071 105.001 244.993 105.939C248.914 106.877 252.944 107.352 257.078 107.352C262.072 107.352 266.314 106.594 269.808 105.072C273.301 103.55 275.929 101.505 277.69 98.925C279.45 96.3452 280.328 93.4655 280.328 90.2801C280.328 86.615 279.364 83.7186 277.441 81.5969L277.445 81.6079Z" fill="#1E1E1E"/>
<path d="M69.3515 38.0597C69.2 38.0269 66.5727 38.0324 66.5727 38.0324H46.3678V23.5241H62.8189C63.041 23.5241 63.2196 23.3442 63.2196 23.1205V20.6497C63.2196 20.426 63.041 20.2462 62.8189 20.2462H46.3678V5.89602H57.9164C58.1387 5.89602 58.3173 5.71604 58.3173 5.4924V2.9671C58.3173 2.74346 58.1387 2.56348 57.9164 2.56348H42.7654C42.5433 2.56348 42.3645 2.74346 42.3645 2.9671V3.18526L42.2617 3.49069L42.3645 41.425C42.3645 41.6484 42.5433 41.8285 42.7654 41.8285H69.1567C69.33 41.8285 69.4816 41.714 69.5358 41.5503L69.5141 38.4033C69.5141 38.4033 69.4978 38.1088 69.3463 38.076L69.3515 38.0597Z" fill="#1E1E1E"/>
<path d="M255.427 20.6518L223.375 5.69085C223.272 5.64176 223.148 5.65266 223.05 5.71267C222.952 5.77812 222.894 5.8872 222.894 6.00174V8.55977C222.894 8.69612 222.97 8.81612 223.093 8.87067L231.918 12.9122V19.8174H221.36C221.188 16.3975 220.299 13.9649 218.707 11.2324C216.913 8.16162 214.379 5.72357 211.159 3.98367C207.948 2.24923 204.227 1.37109 200.093 1.37109H184.482C184.292 1.37109 184.146 1.52381 184.146 1.7147V19.8227H170.403V19.7954H123.964V6.33444H137.707C137.929 6.33444 138.108 6.15447 138.108 5.93083V2.95828C138.108 2.73464 137.929 2.55467 137.707 2.55467H120.367C120.151 2.55467 119.978 2.7292 119.967 2.9419L119.636 3.88551L119.967 41.4105C119.967 41.6342 120.145 41.8143 120.367 41.8143H146.52C146.743 41.8143 146.921 41.6342 146.921 41.4105V38.438C146.921 38.2145 146.743 38.0345 146.52 38.0345H123.964V23.5261H170.403V23.4935H184.146V41.7489C184.146 41.9397 184.298 42.0925 184.482 42.0925H200.093C204.227 42.0925 207.948 41.2144 211.159 39.4799C214.379 37.7399 216.913 35.3019 218.707 32.2311C220.25 29.5804 221.139 26.7769 221.349 23.4935H231.924V31.3367L223.099 35.4273C222.98 35.4819 222.903 35.6074 222.903 35.7382V38.2909C222.903 38.4054 222.964 38.5144 223.062 38.58C223.158 38.6453 223.283 38.6508 223.387 38.6018L255.437 23.6408C255.557 23.5862 255.633 23.4607 255.633 23.3298V20.9628C255.633 20.8263 255.557 20.7064 255.437 20.6518H255.427ZM216.041 30.8568C214.524 33.5075 212.336 35.6019 209.53 37.0854C206.718 38.569 203.414 39.3216 199.715 39.3216H187.109V23.4935H218.272C218.072 26.2805 217.32 28.6204 216.041 30.8568ZM187.109 19.8227V4.03822H199.715C203.414 4.03822 206.714 4.7909 209.53 6.27445C212.336 7.75799 214.524 9.85243 216.041 12.5032C217.379 14.843 218.131 16.8502 218.29 19.8227H187.104H187.109Z" fill="#1E1E1E"/>
<path d="M111.817 16.5928C111.384 14.9838 110.75 13.4676 109.932 12.0549C108.204 9.09326 105.756 6.73703 102.657 5.06258C99.5642 3.39359 95.9728 2.54272 91.9913 2.54272H76.5532C76.4882 2.54272 76.4341 2.5591 76.3799 2.58636L76.5912 41.3987C76.5912 41.6224 76.77 41.8023 76.9921 41.8023H91.9913C95.9728 41.8023 99.5642 40.9569 102.657 39.2825C105.761 37.6079 108.21 35.2573 109.932 32.2902C111.091 30.3048 111.633 29.9994 112.251 25.7014C112.868 21.4034 111.817 16.5819 111.817 16.5819V16.5928Z" fill="#1E1E1E"/>
<path d="M32.3373 37.4226L32.3157 37.4935L25.7504 28.1723C28.4155 27.2886 30.5172 25.8269 32.0014 23.8252C33.5832 21.6925 34.3849 19.0309 34.3849 15.9165C34.3849 11.744 32.9712 8.4333 30.1813 6.07162C27.4134 3.73175 23.5565 2.54272 18.7138 2.54272H5.12278C4.9007 2.54272 4.72192 2.72271 4.72192 2.94635V41.3987C4.72192 41.6224 4.9007 41.8023 5.12278 41.8023H7.88542C8.10751 41.8023 8.28627 41.6224 8.28627 41.3987V41.7424L25.967 41.8405L31.1131 41.6277C31.1889 41.7314 31.3082 41.797 31.4382 41.797H34.5799C34.7533 41.797 34.905 41.6823 34.9591 41.5187L35.1271 41.0005C34.6232 40.357 33.3178 38.6879 32.3373 37.4116V37.4226Z" fill="#1E1E1E"/>
</g>
<defs>
<clipPath id="clip0_2037_7">
<rect width="282" height="108" fill="white"/>
</clipPath>
</defs>
</svg>
