<svg width="283" height="108" viewBox="0 0 283 108" fill="none" xmlns="http://www.w3.org/2000/svg">
<g clip-path="url(#clip0_633_347)">
<path d="M280.632 25.2355C279.418 23.8557 277.939 22.8138 276.227 22.132C274.559 21.472 272.301 20.7794 269.516 20.0814C267.051 19.4649 265.079 18.8813 263.655 18.3359C262.274 17.8123 261.103 17.0487 260.171 16.0724C259.278 15.1288 258.824 13.8362 258.824 12.2326C258.824 10.0728 259.658 8.36013 261.379 7.00202C263.103 5.63845 265.703 4.94577 269.099 4.94577C270.82 4.94577 272.599 5.21848 274.375 5.75301C276.151 6.28751 277.798 7.08384 279.273 8.11469C279.369 8.18558 279.488 8.20195 279.602 8.17468C279.715 8.14195 279.807 8.06014 279.862 7.95106L280.892 5.69846C280.972 5.51847 280.918 5.31121 280.761 5.19667C279.251 4.11673 277.446 3.24405 275.393 2.61134C273.341 1.97866 271.222 1.65686 269.099 1.65686C266.06 1.65686 263.481 2.13139 261.434 3.06952C259.364 4.01311 257.805 5.31121 256.791 6.93111C255.778 8.55103 255.263 10.3509 255.263 12.2872C255.263 14.687 255.892 16.6342 257.122 18.0741C258.336 19.4922 259.824 20.5558 261.558 21.2376C263.25 21.903 265.513 22.5903 268.302 23.2884C270.728 23.8665 272.685 24.4393 274.105 24.9793C275.485 25.5028 276.656 26.2664 277.587 27.2427C278.481 28.1863 278.936 29.4789 278.936 31.0824C278.936 33.2042 278.086 34.8732 276.335 36.1985C274.575 37.5295 271.9 38.2057 268.394 38.2057C265.962 38.2057 263.618 37.7639 261.419 36.8858C259.229 36.0131 257.463 34.8732 256.168 33.4932C256.082 33.4005 255.957 33.3514 255.839 33.3677C255.714 33.3787 255.606 33.4551 255.54 33.5588L254.294 35.6477C254.202 35.8005 254.224 36.0021 254.343 36.1331C255.79 37.7093 257.815 39.013 260.373 40.0001C262.913 40.9819 265.633 41.4836 268.449 41.4836C271.488 41.4836 274.093 41.0092 276.194 40.0765C278.319 39.133 279.917 37.8458 280.945 36.2421C281.981 34.6441 282.5 32.8497 282.5 30.9079C282.5 28.5462 281.871 26.6319 280.638 25.2245L280.632 25.2355Z" fill="white"/>
<path d="M22.3194 55.5669L0.5 106.209H17.6174L20.9705 97.3845H39.9404L43.2935 106.209H60.6927L38.8733 55.5669H22.3301H22.3194ZM25.6019 85.0851L30.4502 72.3495L35.2982 85.0851H25.6019Z" fill="white"/>
<path d="M114.884 84.1488C116.498 81.4488 117.311 78.2909 117.311 74.6694C117.311 70.8132 116.385 67.4369 114.532 64.5407C112.68 61.6446 110.042 59.4302 106.618 57.8865C103.194 56.3431 99.1752 55.574 94.5655 55.574H70.5306V106.217H87.3609V93.481H91.9274L100.416 106.217H118.389L107.907 90.5901C110.952 88.9976 113.281 86.8541 114.895 84.1488H114.884ZM98.6227 79.0436C97.4797 80.08 95.7681 80.598 93.4874 80.598H87.3555V68.735H93.4874C95.7681 68.735 97.4797 69.2533 98.6227 70.2895C99.7656 71.3259 100.335 72.7876 100.335 74.6694C100.335 76.5509 99.7656 78.0073 98.6227 79.0436Z" fill="white"/>
<path d="M126.291 68.8042H140.911V106.209H157.741V68.8042H172.362V55.5669H126.291V68.8042Z" fill="white"/>
<path d="M200.389 86.6778H221.498V74.3785H200.389V68.4442H224.418V55.5669H183.845V106.209H225.35V93.3319H200.389V86.6778Z" fill="white"/>
<path d="M277.945 81.6079C276.022 79.4862 273.748 77.9536 271.136 77.0153C268.519 76.0773 265.314 75.2428 261.511 74.5174C258.563 73.9393 256.446 73.3938 255.162 72.8921C253.879 72.3847 253.239 71.6267 253.239 70.6121C253.239 68.4904 255.401 67.4269 259.728 67.4269C264.056 67.4269 268.737 68.6813 273.635 71.1902L278.699 58.8201C276.18 57.3747 273.264 56.2784 269.961 55.5257C266.657 54.7785 263.293 54.4021 259.869 54.4021C254.876 54.4021 250.634 55.1495 247.14 56.6438C243.647 58.1383 241.019 60.1891 239.258 62.7908C237.497 65.3979 236.62 68.2887 236.62 71.474C236.62 75.1391 237.574 78.0462 239.475 80.1898C241.377 82.3388 243.607 83.8769 246.175 84.8204C248.742 85.7639 251.95 86.6421 255.802 87.4603C258.796 88.0875 260.947 88.6656 262.253 89.1948C263.559 89.7238 264.213 90.5201 264.213 91.5838C264.213 92.5 263.716 93.1873 262.719 93.6454C261.722 94.1035 260.054 94.3326 257.725 94.3326C255.017 94.3326 252.183 93.9126 249.236 93.0673C246.288 92.2219 243.623 91.1036 241.252 89.702L235.829 102.143C238.347 103.736 241.571 105.001 245.493 105.939C249.414 106.877 253.444 107.352 257.578 107.352C262.572 107.352 266.814 106.594 270.307 105.072C273.801 103.55 276.429 101.505 278.19 98.925C279.95 96.3452 280.828 93.4655 280.828 90.2801C280.828 86.615 279.864 83.7186 277.941 81.5969L277.945 81.6079Z" fill="white"/>
<path d="M69.8517 38.0596C69.7001 38.0268 67.0728 38.0323 67.0728 38.0323H46.8679V23.524H63.3191C63.5411 23.524 63.7197 23.3441 63.7197 23.1204V20.6496C63.7197 20.4259 63.5411 20.2461 63.3191 20.2461H46.8679V5.8959H58.4166C58.6388 5.8959 58.8174 5.71591 58.8174 5.49227V2.96698C58.8174 2.74334 58.6388 2.56335 58.4166 2.56335H43.2655C43.0434 2.56335 42.8647 2.74334 42.8647 2.96698V3.18514L42.7618 3.49056L42.8647 41.4249C42.8647 41.6483 43.0434 41.8284 43.2655 41.8284H69.6568C69.8301 41.8284 69.9817 41.7139 70.0359 41.5501L70.0142 38.4032C70.0142 38.4032 69.998 38.1087 69.8464 38.0759L69.8517 38.0596Z" fill="white"/>
<path d="M255.927 20.6518L223.875 5.69085C223.771 5.64176 223.648 5.65266 223.55 5.71267C223.452 5.77812 223.394 5.8872 223.394 6.00174V8.55977C223.394 8.69612 223.47 8.81612 223.593 8.87067L232.418 12.9122V19.8174H221.86C221.688 16.3975 220.799 13.9649 219.207 11.2324C217.413 8.16162 214.879 5.72357 211.659 3.98367C208.448 2.24923 204.727 1.37109 200.593 1.37109H184.982C184.792 1.37109 184.646 1.52381 184.646 1.7147V19.8227H170.903V19.7954H124.464V6.33444H138.207C138.429 6.33444 138.608 6.15447 138.608 5.93083V2.95828C138.608 2.73464 138.429 2.55467 138.207 2.55467H120.867C120.651 2.55467 120.477 2.7292 120.466 2.9419L120.136 3.88551L120.466 41.4105C120.466 41.6342 120.645 41.8143 120.867 41.8143H147.02C147.242 41.8143 147.421 41.6342 147.421 41.4105V38.438C147.421 38.2145 147.242 38.0345 147.02 38.0345H124.464V23.5261H170.903V23.4935H184.646V41.7489C184.646 41.9397 184.798 42.0925 184.982 42.0925H200.593C204.727 42.0925 208.448 41.2144 211.659 39.4799C214.879 37.7399 217.413 35.3019 219.207 32.2311C220.75 29.5804 221.639 26.7769 221.848 23.4935H232.423V31.3367L223.599 35.4273C223.48 35.4819 223.403 35.6074 223.403 35.7382V38.2909C223.403 38.4054 223.464 38.5144 223.562 38.58C223.658 38.6453 223.783 38.6508 223.887 38.6018L255.937 23.6408C256.057 23.5862 256.133 23.4607 256.133 23.3298V20.9628C256.133 20.8263 256.057 20.7064 255.937 20.6518H255.927ZM216.541 30.8568C215.024 33.5075 212.836 35.6019 210.03 37.0854C207.218 38.569 203.914 39.3216 200.215 39.3216H187.609V23.4935H218.772C218.572 26.2805 217.82 28.6204 216.541 30.8568ZM187.609 19.8227V4.03822H200.215C203.914 4.03822 207.214 4.7909 210.03 6.27445C212.836 7.75799 215.024 9.85243 216.541 12.5032C217.879 14.843 218.631 16.8502 218.789 19.8227H187.604H187.609Z" fill="white"/>
<path d="M112.317 16.5928C111.884 14.9838 111.25 13.4676 110.432 12.0549C108.704 9.09326 106.256 6.73703 103.157 5.06258C100.064 3.39359 96.4728 2.54272 92.4913 2.54272H77.0532C76.9882 2.54272 76.9341 2.5591 76.8799 2.58636L77.0912 41.3987C77.0912 41.6224 77.27 41.8023 77.4921 41.8023H92.4913C96.4728 41.8023 100.064 40.9569 103.157 39.2825C106.261 37.6079 108.71 35.2573 110.432 32.2902C111.591 30.3048 112.133 29.9994 112.751 25.7014C113.368 21.4034 112.317 16.5819 112.317 16.5819V16.5928Z" fill="white"/>
<path d="M32.8374 37.4226L32.8158 37.4935L26.2505 28.1723C28.9156 27.2886 31.0173 25.8269 32.5015 23.8252C34.0833 21.6925 34.885 19.0309 34.885 15.9165C34.885 11.744 33.4713 8.4333 30.6815 6.07161C27.9135 3.73175 24.0566 2.54272 19.2139 2.54272H5.6229C5.40082 2.54272 5.22205 2.72271 5.22205 2.94635V41.3987C5.22205 41.6224 5.40082 41.8023 5.6229 41.8023H8.38554C8.60763 41.8023 8.78639 41.6224 8.78639 41.3987V41.7424L26.4671 41.8405L31.6132 41.6277C31.689 41.7314 31.8083 41.797 31.9383 41.797H35.0801C35.2534 41.797 35.4051 41.6823 35.4592 41.5187L35.6272 41.0005C35.1233 40.357 33.8179 38.6879 32.8374 37.4116V37.4226Z" fill="white"/>
</g>
<defs>
<clipPath id="clip0_633_347">
<rect width="282" height="108" fill="white" transform="translate(0.5)"/>
</clipPath>
</defs>
</svg>
